<?xml version="1.0" standalone="no"?>
<!DOCTYPE svg PUBLIC "-//W3C//DTD SVG 1.1//EN" "http://www.w3.org/Graphics/SVG/1.1/DTD/svg11.dtd" >
<svg xmlns="http://www.w3.org/2000/svg" xmlns:xlink="http://www.w3.org/1999/xlink" version="1.1">
<metadata>
Created by FontForge 20141024 at Wed Feb  3 22:21:07 2016
 By Jimmy Warting
Copyright (c) 2015 by Carlos Fabian Camargo G./andinistas.net. All rights reserved.
</metadata>
<defs>
<font id="CoffeBreak-Script1" horiz-adv-x="398" >
  <font-face 
    font-family="CoffeBreak-Script1"
    font-weight="400"
    font-stretch="normal"
    units-per-em="1000"
    panose-1="4 4 6 5 5 16 2 2 13 2"
    ascent="546"
    descent="-454"
    x-height="230"
    cap-height="424"
    bbox="-1111 -944 1971 1078"
    underline-thickness="34"
    underline-position="-51"
    unicode-range="U+0020-FB06"
  />
<missing-glyph horiz-adv-x="215" 
 />
    <glyph glyph-name="AE" unicode="AE" horiz-adv-x="540" 
d="M181 359q-59 -9 -74 -17q-4 -17 -21 -17q-11 0 -19 9.5t-8 20.5q0 31 47 48.5t112 17.5q29 0 55.5 -12t32.5 -32q38 40 104 40q36 0 67 -26t31 -69q0 -56 -54 -56q-12 0 -21 8.5t-9 21.5q0 16 17 24v-1q8 8 8 10q0 11 -9 20.5t-22 9.5q-19 0 -35 -16t-16 -33
q0 -32 15.5 -61t55.5 -29q13 0 21.5 -9.5t8.5 -20.5q0 -23 -22 -23q-28 0 -49.5 -26t-21.5 -67q0 -14 4.5 -37t21 -48t40.5 -25q21 0 26 23l3 8l-1 -1l-1 3q-2 3 -4 8.5t-2 12.5q0 12 7.5 19.5t20.5 7.5q19 0 30 -18t11 -37q0 -38 -31 -63t-76 -25q-135 0 -148 198h-67
q-2 -6 -10.5 -35t-12 -40t-12 -35.5t-16 -35.5t-17.5 -25.5t-21.5 -20.5t-24.5 -6q-41 0 -66.5 26.5t-25.5 61.5q0 34 17 59.5t50 25.5q13 0 24 -12t11 -25q0 -15 -17.5 -22t-17.5 -19q0 -41 10 -41q2 0 19 27h-1q31 54 57 181t26 195zM255 360q-4 -15 -16.5 -99t-16.5 -104
h68q-14 184 -35 203z" />
    <glyph glyph-name="ae" unicode="ae" horiz-adv-x="537" 
d="M554 90q0 -85 -58 -160.5t-130 -75.5q-69 0 -111.5 46t-51.5 122q-59 -101 -117 -101q-54 0 -79.5 28t-25.5 75q0 111 62.5 208.5t132.5 97.5q26 0 44.5 -25t23.5 -62q47 89 122 89q50 0 79 -44t29 -96q0 -60 -42 -107t-115 -47q-6 0 -8 2q10 -123 84 -123q40 0 83 56.5
t61 140.5q5 0 11 -8t6 -16zM128 -12q26 0 74 93q3 61 22 117q-6 7 -15.5 19t-15 18.5t-12 12t-11.5 5.5q-24 0 -44.5 -73.5t-20.5 -133.5q0 -58 23 -58zM308 76v-4q41 4 67.5 50.5t26.5 93.5q0 26 -9 51.5t-23 25.5q-28 0 -45 -72t-17 -145z" />
    <glyph glyph-name="I_J" unicode="IJ" horiz-adv-x="460" 
d="M425 399q0 -19 0.5 -166.5t0.5 -199.5q0 -46 -27.5 -79t-80.5 -33q-81 0 -97 65h-1q-4 0 -79 5h-11q-8 0 -26 2h-9q-36 0 -92 -7q-4 0 -9.5 -3t-9.5 -5l-5 -3q-14 0 -14 27q0 31 83 33q-2 5 -2 17q0 97 3 129l9 115l5 77q-49 -4 -69 -11q-16 0 -16 26q0 22 24.5 28.5
t98.5 6.5l301 -1q23 0 23 -23zM261 102q5 0 5 -5v-3q-19 -60 -20 -83v-7q0 -48 28 -48q19 0 35.5 23t16.5 58l-6 334q-13 1 -140 3q-1 -8 -5.5 -33.5t-5.5 -35.5q-14 -103 -14 -269h61q0 29 16 47.5t29 18.5z" />
    <glyph glyph-name="i_j" unicode="ij" horiz-adv-x="375" 
d="M218 62q-27 0 -42 13.5t-14 51.5q0 23 45.5 36.5t78.5 13.5q48 0 48 -39v-26.5t-0.5 -59t-0.5 -67.5q0 -42 -2.5 -131.5t-5 -163.5t-2.5 -79q0 -36 -10.5 -74t-31 -73.5t-57.5 -58t-85 -22.5q-111 0 -166.5 55t-55.5 133q0 72 44 128t112 56q53 0 88.5 -33.5t35.5 -97.5
q0 -70 -63 -70q-13 0 -13 4q0 2 1 3q62 19 62 83q0 38 -22.5 57.5t-57.5 19.5q-66 0 -105 -49t-39 -112q0 -55 30 -93t85 -38q145 0 145 249v253q-20 -38 -35.5 -63.5t-41 -49.5t-48.5 -24q-73 0 -73 72q0 20 -5 96t-5 91q-26 14 -26 37q0 25 24.5 48.5t47.5 23.5
q27 0 45 -14t18 -42q0 -6 -2.5 -119t-2.5 -120q0 -12 5 -12q7 0 14 4.5t14.5 14.5t14 20t14.5 26.5t13.5 27.5t14.5 29.5t13 27.5zM104 213q-7 -5 -23 -5q-31 0 -65 42.5t-34 83.5q0 24 16.5 41.5t48.5 17.5q35 0 68 -23t33 -62q0 -51 -44 -95zM356 321q0 -44 -24.5 -71.5
t-45.5 -27.5q-46 0 -68.5 23.5t-22.5 50.5q0 34 34 68t65 34q26 0 44 -18.5t18 -58.5z" />
    <glyph glyph-name="OE" unicode="OE" horiz-adv-x="493" 
d="M398 -41v3q-1 2 -1.5 5.5t-0.5 7.5q0 22 11 36.5t27 14.5q17 0 26 -18t9 -42q0 -57 -34.5 -94t-78.5 -37q-90 0 -120 62q-41 -57 -86 -57q-56 0 -87.5 42.5t-31.5 113.5q0 99 43.5 172.5t81.5 73.5q28 0 28 -31q0 -9 -4 -17q-45 -77 -45 -179q0 -35 10 -60.5t24 -25.5
q11 0 26.5 32.5t28.5 91t13 118.5q0 66 -17 92.5t-49 29.5q-47 0 -105 -103v2q-11 -18 -27 -18q-23 0 -23 34q0 65 45.5 120.5t105.5 55.5t93 -77q17 41 51 69t78 28q33 0 61 -30t28 -84q0 -41 -15.5 -69.5t-43.5 -28.5q-12 0 -20 9t-8 26q0 30 20 41v-2q9 9 9 14
q0 42 -24 42t-40.5 -29t-16.5 -87q0 -39 13.5 -55t29 -14.5t29 -5t13.5 -27.5q0 -42 -23 -42q-5 0 -13 0.5t-11 0.5q-23 0 -38 -19.5t-15 -58.5q0 -27 12.5 -45.5t32.5 -18.5q10 0 19 9.5t10 28.5z" />
    <glyph glyph-name="oe" unicode="oe" horiz-adv-x="516" 
d="M453 242q0 -79 -45.5 -160.5t-89.5 -85.5q1 -47 10.5 -70.5t22.5 -23.5q43 0 95 57t70 124q14 -6 14 -26q-13 -88 -72.5 -151.5t-128.5 -63.5q-16 0 -32.5 4t-40.5 22.5t-37 50.5q-41 -81 -95 -81q-110 0 -110 152q0 126 42 255t93 129q29 0 38 -29q3 0 8.5 2t7.5 2
q41 0 55 -103q50 100 127 100q33 0 50.5 -29t17.5 -75zM119 15q-1 -14 -1 -39q0 -74 26 -74q28 0 49.5 82.5t21.5 189.5q0 110 -25 110q-16 0 -30 -46t-17 -46q-24 -93 -24 -177zM382 293q-23 0 -41.5 -96.5t-22.5 -173.5q32 19 56 92t24 141q0 37 -16 37z" />
    <glyph glyph-name="f_f" unicode="ff" horiz-adv-x="553" 
d="M364 -108q0 -147 21 -147q9 0 14.5 44.5t6.5 101.5q-28 41 -28 110q0 32 8 54.5t22 22.5q25 0 37 -35.5t12 -83.5q0 -37 -7 -65q42 0 103 205q13 -7 13 -30q0 -51 -32 -131.5t-72 -80.5q-10 0 -19 3q-7 -68 -29.5 -121.5t-49.5 -53.5q-25 0 -39.5 10.5t-28.5 46.5
t-20 114.5t-6 205.5q0 18 2 54l-67 -3q33 -40 33 -141q0 -77 -7 -133t-16.5 -85t-24 -45.5t-25 -20t-23.5 -3.5q-50 0 -69.5 59t-19.5 178q0 106 7 180l-47 -4q0 33 11.5 46.5t41.5 17.5q19 141 57.5 213t85.5 72q80 0 80 -51q-95 0 -133 -225q44 4 122 8q15 114 56 191
t97 77q80 0 80 -51q0 -12 -10 -28t-16 -16q-3 0 -3 5q0 55 -37 55q-13 0 -30 -65.5t-31 -165.5h34q48 0 71 -18.5t23 -48.5q-16 1 -25.5 2.5t-14.5 2t-15 0.5q-54 0 -80 -1q-13 -120 -13 -226zM137 -102q0 -153 22 -153q36 0 36 185q0 134 -45 179h-3q-10 -86 -10 -211z" />
    <glyph glyph-name="f_i" unicode="fi" horiz-adv-x="511" 
d="M274 411q-19 0 -39.5 -17t-44 -67.5t-38.5 -128.5q37 8 142 8q11 0 11 11q0 13 16.5 18.5t32.5 5.5q28 0 45 -15.5t17 -33.5q0 -22 -10.5 -113t-10.5 -125q0 -39 7 -39q54 0 122 203q7 -1 7 -17q0 -24 -9.5 -61.5t-26 -78.5t-46 -69.5t-64.5 -28.5q-19 0 -33 9
t-22.5 28.5t-13.5 38.5t-7.5 49.5t-3 51.5t-0.5 54q0 52 3 67q-8 0 -47.5 0.5t-41.5 0.5q-28 0 -48 -4q104 -72 104 -232q0 -72 -12.5 -122.5t-33 -74.5t-40 -34t-41.5 -10q-53 0 -75 61.5t-22 179.5q0 44 0.5 95.5t1.5 86.5t1 40l-26 -5q-6 0 -10.5 7t-4.5 16q0 17 9.5 26
t37.5 17q9 96 72.5 164.5t148.5 68.5q53 0 95 -34t42 -73q0 -19 -13.5 -35t-49.5 -16q-47 0 -47 23q0 3 2 15t2 20q0 23 -9 46t-29 23zM128 -109q0 -55 12 -84.5t30 -29.5q21 0 38 40.5t17 108.5q0 62 -26.5 126.5t-57.5 77.5q-13 -106 -13 -239z" />
    <glyph glyph-name="f_l" unicode="fl" horiz-adv-x="545" 
d="M214 365q-9 0 -18.5 -18t-19.5 -66.5t-17 -120.5q70 2 126 2h4v31q0 363 133 363q77 0 77 -71q0 -55 -30 -136t-75 -144v-32q0 -105 5 -182t13.5 -115.5t19.5 -38.5q13 0 28 22.5t31 67t27 80.5t27 93q5 -1 10.5 -10.5t5.5 -22.5q0 -58 -51.5 -176t-92.5 -118
q-64 0 -93 79.5t-34 261.5q-17 -7 -36 -7q-14 0 -43.5 2t-49.5 2q36 -35 66.5 -106.5t30.5 -129.5q0 -89 -27.5 -137t-72.5 -48q-44 0 -74.5 59.5t-30.5 172.5q0 104 6 187l-35 -3q0 28 38 41q29 299 136 299q34 0 56 -20.5t22 -52.5q0 -28 -16 -57t-38 -38q5 25 5 51
q0 36 -13 36zM218 -129q0 109 -64 201q-4 -67 -4 -174q0 -88 5.5 -123t19.5 -35q17 0 30 41.5t13 89.5zM441 497q-41 0 -46 -233q28 51 49 110t21 76q0 29 -5.5 38t-18.5 9z" />
    <glyph glyph-name="f_f_i" unicode="ffi" horiz-adv-x="726" 
d="M347 543q-21 0 -54 -83.5t-33 -154.5q-24 0 -38 17.5t-17 34.5t-3 35q0 47 18 94q-30 -6 -51 -52t-27 -132v-13q-1 -13 -1 -25q34 3 140 9q20 138 76 210.5t157 72.5q46 0 93.5 -49.5t47.5 -106.5q0 -30 -16 -49.5t-44 -19.5q-58 0 -58 78q0 32 -14.5 66.5t-35.5 34.5
q-70 0 -100 -238q57 -4 77 -18t20 -40q0 -81 -45.5 -270.5t-87.5 -189.5q-27 0 -44 20.5t-28.5 88.5t-11.5 188q0 95 7 166q-26 0 -98 -2q26 -29 26 -185q0 -56 -8 -100t-19 -68t-25 -39.5t-24.5 -20.5t-19.5 -5q-49 0 -68.5 65.5t-19.5 219.5q0 64 5 127q-57 -3 -65 -6
q-6 13 -6 24q0 13 76 25q20 147 71 214.5t109 67.5q16 0 30 -12q30 50 62 50q24 0 47 -29zM633 234q-37 -242 -37 -301q0 -55 22 -55q49 0 110 222q5 -1 10.5 -10.5t5.5 -22.5q0 -32 -24.5 -95t-61 -116.5t-63.5 -53.5q-45 0 -71 84t-26 188q0 100 25.5 154t66.5 54
q16 0 28 -12.5t15 -35.5zM434 185q0 14 -10.5 21t-42.5 10q-13 -153 -13 -360q0 -34 5 -34q12 0 36.5 155t24.5 208zM157 2q0 32 -5.5 106t-12.5 99q-13 -312 -13 -337q0 -4 2 -4q5 0 11.5 14.5t12 47.5t5.5 74zM139 213v-1q0 1 1 1h-1z" />
    <glyph glyph-name="f_f_l" unicode="ffl" horiz-adv-x="731" 
d="M464 355q-11 28 -41 28q-35 0 -55.5 -52.5t-28.5 -166.5q69 8 133 47q2 345 133 345q77 0 77 -71q0 -54 -28 -122.5t-77 -123.5v-66q0 -300 38 -300q50 0 113 227q5 -1 10.5 -10.5t5.5 -22.5q0 -33 -23 -94.5t-58 -112.5t-63 -51q-69 0 -98 75t-30 273q-57 -27 -119 -27
q-4 0 -16 4q-1 -8 -1 -25q106 -57 106 -182q0 -75 -25 -114t-61 -39q-45 0 -82 55t-37 142q0 69 3 128q-42 7 -82 7q47 -54 47 -172q0 -92 -32 -145.5t-74 -53.5q-36 0 -62 44t-26 125q0 45 2 94t7 124t17.5 138.5t30 122.5t47 93.5t67.5 34.5q41 0 65 -12q1 0 4 0.5t4 0.5
q20 0 39 -19q-14 -3 -39.5 -78t-25.5 -131q-44 0 -44 71q0 62 19 106q-58 -52 -74 -308q18 3 40 3q39 0 72 -6q24 308 154 308q73 0 73 -63q0 -10 -5 -28zM333 -50q0 -42 5 -71.5t12.5 -42t15.5 -12.5q14 0 25 27.5t11 71.5q0 95 -68 141q-1 -35 -1 -114zM124 -123
q0 -66 14 -66q6 0 12 14t10 41t4 60q0 123 -36 156q-4 -81 -4 -205zM648 450q0 29 -5.5 38t-18.5 9q-36 0 -45 -186q32 41 50.5 81t18.5 58z" />
    <glyph glyph-name="b_b" unicode="bb" horiz-adv-x="765" 
d="M206 94q58 0 106 15q-22 91 -22 198q0 180 35 264.5t89 84.5q81 0 125.5 -57.5t44.5 -145.5q0 -90 -47.5 -179.5t-136.5 -146.5q3 -42 7.5 -80t7.5 -57l3 -20q0 -8 4 -8v4l-1 3q3 -5 4 -5q17 85 38.5 151t57.5 116t78 50q39 0 59 -35.5t20 -94.5t-19 -124.5t-50 -114.5
q2 -1 7 -1q93 0 149 191q13 -7 13 -29q-12 -96 -59.5 -142t-120.5 -62q-5 0 -18 5q-40 -45 -86 -45q-37 0 -58.5 25t-21.5 45q0 17 13 32t35 15q17 0 64 -14q36 63 36 154q0 88 -35 88q-20 0 -42 -60t-39.5 -120t-26.5 -60q-28 0 -55 41.5t-46 111.5q-55 -19 -111 -25
q-4 -183 -79 -183q-50 0 -84.5 44t-48.5 108.5t-14 142.5q0 124 31.5 238t77.5 114q68 0 99 -29.5t31 -79.5q0 -57 -33 -127t-80 -128q14 7 33 7q59 0 66 -75zM393 310q0 -84 5 -161q78 50 122 130.5t44 154.5q0 53 -25 86.5t-72 33.5q-32 0 -53 -59.5t-21 -184.5zM54 330
q0 -35 4 -116l4 -80q49 45 90.5 126.5t41.5 142.5q0 79 -73 79q-67 0 -67 -152zM169 7q0 22 -6 52h-16q-79 0 -79 55v7l-6 -6q2 -74 19.5 -135.5t48.5 -61.5q39 0 39 89zM463 -114q23 0 44 21q-35 14 -41 14q-11 0 -19.5 -8t-8.5 -15q0 -12 25 -12z" />
    <glyph glyph-name="b_f" unicode="bf" horiz-adv-x="528" 
d="M594 470q0 -74 -42.5 -126.5t-71.5 -52.5q-10 0 -10 14q35 21 53.5 62t18.5 81q0 58 -52 58q-94 0 -103 -326q30 9 64 9q41 0 41 -32q0 -16 -10 -44q-4 35 -59 35q-21 0 -36 -6v-12q0 -17 3 -185t3 -196q0 -144 -32.5 -261.5t-89 -197t-135 -133t-167 -77.5t-188.5 -24
q-140 0 -231 83.5t-91 221.5q0 78 25.5 141t64.5 101t88 63.5t92 35.5t81 10q29 -3 52.5 -38.5t23.5 -60.5q0 -8 -2.5 -9.5t-10.5 -1.5q-50 71 -141 71q-87 0 -145.5 -65.5t-58.5 -156.5q0 -112 47.5 -188.5t123 -110t174.5 -33.5q211 0 310.5 169t103.5 524q0 33 2 129
t2 142q-20 -12 -39 -18q8 -34 8 -68q0 -74 -32.5 -130t-87.5 -56q-50 0 -88.5 55.5t-56 133.5t-17.5 160q0 168 21 293.5t54.5 191.5t69.5 97t74 31q149 0 149 -127q0 -27 -7 -58t-26 -70.5t-33 -67.5t-47 -79.5t-47 -73t-54.5 -81t-49.5 -73.5v-28q4 20 24.5 34t44.5 14
q53 0 83 -54l17 8.5t20.5 11t19.5 10.5q0 66 5 118.5t20 107.5t40.5 91.5t70.5 60t105 23.5q20 0 41 -17t21 -53zM82 194v-1q225 327 225 464q0 100 -93 100q-77 0 -104.5 -143t-27.5 -420zM158 52q-67 0 -75 42q8 -244 58 -244t50 113q0 49 -9 89h-24z" />
    <glyph glyph-name="b_h" unicode="bh" horiz-adv-x="602" 
d="M340 266q0 226 -28.5 310.5t-105.5 84.5q-74 0 -125.5 -43.5t-51.5 -117.5q0 -42 25.5 -74.5t71.5 -44.5q-11 -4 -33 -4q-57 0 -89 39.5t-32 98.5q0 101 55.5 161t135.5 60q119 0 181 -113t79 -341q44 77 101 77q27 0 44.5 -34.5t17.5 -104.5q0 -36 -28 -203.5
t-28 -246.5q0 -85 30.5 -137.5t89.5 -52.5q44 0 74 35.5t30 75.5q0 28 -16.5 45.5t-50.5 17.5q-26 0 -42 -20q-3 0 -3 2q0 17 15 41t34 24q44 0 72.5 -47t28.5 -104q0 -46 -22 -76.5t-64 -30.5q-238 0 -238 255q0 48 10 177t10 187q0 120 -21 120t-41 -64q4 -65 4 -156
q-9 -244 -135 -244q-48 0 -73.5 14t-39.5 14q-13 0 -37 -14.5t-50 -14.5q-9 0 -9 11q0 31 21.5 47t38.5 16q37 0 70 -14.5t59 -14.5q16 0 27 8.5t18.5 28t11.5 39.5t6 57t2.5 65t0.5 77q0 25 -0.5 71t-0.5 58zM155 -13q-26 0 -49.5 9t-23.5 16q-2 10 -2 85q-28 1 -47.5 31.5
t-19.5 85.5q0 68 46.5 109t114.5 41q58 0 98 -31t40 -91q0 -28 -28 -55t-76 -39q116 -4 116 -110q0 -45 -39 -85.5t-108 -40.5q-51 0 -87.5 24t-36.5 65q0 2 7 7t8 9q16 -26 44.5 -38.5t55.5 -12.5q33 0 51.5 21t18.5 51q0 32 -20 57.5t-56 31.5q-5 -121 -7 -140zM59 189
q0 -35 23 -59q8 136 9 136q21 0 46.5 -15.5t25.5 -43.5q0 -30 -1 -54q26 12 40.5 38t14.5 55q0 26 -11.5 43.5t-33.5 17.5q-46 0 -79.5 -37t-33.5 -81z" />
    <glyph glyph-name="b_l" unicode="bl" horiz-adv-x="530" 
d="M155 -31q-26 0 -49.5 8.5t-23.5 16.5q-2 12 -2 54q-38 1 -62.5 33t-24.5 77q0 74 64.5 139t168.5 65q39 0 60 -24t21 -60q0 -32 -17 -65t-49 -55q76 -21 76 -101q0 -68 -52.5 -121t-136.5 -53q-89 0 -89 53q0 15 5.5 32t12 32t7.5 19q1 -73 82 -73q48 0 70 20t22 62
q0 37 -20 62t-56 33q-5 -135 -7 -154zM266 562q43 0 77.5 -20t56 -52t35.5 -77.5t19.5 -92t5.5 -99.5q0 -149 -34 -255q27 -16 49.5 -20.5t62.5 -4.5q112 0 140 12q-18 -69 -113 -69q-23 0 -40 1.5t-32.5 5.5t-24 7t-28 11t-32.5 13q-11 -18 -51 -18q-10 0 -21 2t-25.5 12
t-14.5 28q0 19 10 31t22 14q23 24 38.5 106t15.5 174q0 109 -23 183t-69 74q-22 0 -43 -17.5t-21 -48.5h-1q-1 -1 -2 -1q-6 0 -13.5 20t-7.5 34q0 24 19.5 35.5t44.5 11.5zM202 305q-52 0 -94 -60q22 -6 38.5 -20t16.5 -36v-20l26 -2q18 23 29.5 53.5t11.5 53.5
q0 15 -8.5 23t-19.5 8zM74 146q0 -25 8 -36q0 6 1.5 41.5t2.5 54.5q-12 -30 -12 -60z" />
    <glyph glyph-name="b_k" unicode="bk" horiz-adv-x="597" 
d="M940 -178q19 -26 19 -53q0 -52 -65 -100t-152 -48q-123 0 -201.5 96.5t-105.5 278.5q-3 -1 -8 -1q-21 0 -21 15q0 11 12 24q24 0 53 54t29 76q0 27 -18 27t-47 -29t-45 -67q-1 -56 -1 -125q0 -60 -16.5 -103t-44 -64t-54.5 -30t-55 -9q-16 0 -52 11t-67 11q-51 0 -73 -25
q-15 5 -15 19q0 20 23.5 43t48.5 23q31 0 57.5 -10t67.5 -10q39 0 60 26.5t21 65.5q0 63 0.5 154t0.5 122q0 190 36.5 316.5t100.5 126.5q118 0 118 -82q0 -58 -48.5 -170t-105.5 -200v-26q24 48 58 81.5t63 33.5q21 0 43 -26.5t22 -64.5q0 -42 -30.5 -94t-71.5 -78
q34 -148 116.5 -234.5t203.5 -86.5q29 0 51.5 4.5t36.5 9.5t25 18t16 20t8.5 26t4 25.5t2.5 28.5zM46 120q-35 26 -35 70q0 63 38 100t99 37t92.5 -36t31.5 -91q0 -61 -35 -117q19 -8 30 -36t11 -52q0 -43 -28 -68t-62 -25q-22 0 -36 11t-14 32v11q25 -5 39 -5q25 0 37 14
t12 49q0 22 -11.5 31.5t-40.5 9.5q-18 0 -29 -1q-6 -160 -42 -160q-29 0 -41 8t-12 33q0 15 6 130.5t10 157.5q-26 -33 -26 -74q0 -14 6 -29zM522 540q0 80 -80 80q-36 0 -49 -404q50 86 89.5 187t39.5 137zM161 268q-29 0 -59 -15q32 0 38.5 -17.5t6.5 -86.5q0 -38 -1 -60
q17 13 42 13q9 0 19.5 31t10.5 63q0 72 -57 72z" />
    <glyph glyph-name="d_d" unicode="dd" horiz-adv-x="705" 
d="M-590 511q-51 39 -51 85q0 51 58.5 83.5t135.5 32.5q117 0 178 -50.5t61 -126.5q0 -103 -102 -187t-268 -84q-92 0 -170 29.5t-127.5 77.5t-77 107t-27.5 120q0 114 91 193t264 79q101 0 234.5 -25t229 -52t238 -71t190.5 -57q55 129 126 129q69 0 108 -27.5t39 -64.5
q0 -35 -36 -60t-99 -25q-31 0 -93 13q-52 -179 -52 -684q0 -194 31 -194q19 0 43.5 76.5t39.5 177.5q-9 24 -9 52q0 72 44.5 146t88.5 74q28 0 41 -37q3 89 11 171t25 175t49 148.5t75 55.5q78 0 114 -35.5t36 -81.5q0 -19 -12 -49t-37.5 -73t-50 -82t-64.5 -101.5
t-67 -105.5q-6 -93 -6 -176q0 -162 17 -233.5t75 -71.5q23 0 51 13.5t50 38.5q-18 -36 -46.5 -54.5t-79.5 -18.5q-32 0 -55.5 8.5t-39 30t-24.5 46.5t-14 70t-6.5 86.5t-1.5 109.5q-6 -12 -21 -29q-40 -78 -61 -134q-48 7 -71 38q-15 -124 -50.5 -202.5t-74.5 -78.5
q-18 0 -33 19.5t-27 59t-19 106.5t-7 155v34q-4 -11 -8 -11q0 2 2 16q-63 -226 -113 -226q-36 0 -55.5 38t-19.5 96q0 85 38.5 156.5t101.5 71.5q41 0 56 -40l2 6q15 290 80 456q-28 7 -170.5 46t-225 59.5t-213.5 41t-234 20.5q-177 0 -270 -71t-93 -172
q0 -114 108.5 -202.5t285.5 -88.5q67 0 129.5 24.5t105.5 61.5t68.5 81t25.5 84q0 50 -41 80.5t-123 30.5q-73 0 -139.5 -32.5t-66.5 -75.5q0 -9 5 -19zM760 763q-50 0 -86 -134.5t-52 -324.5q24 40 60.5 96.5t59.5 93t46 76t34.5 67.5t11.5 45q0 30 -18.5 55.5t-55.5 25.5z
M425 768q-66 0 -107 -117q67 -18 109 -18q34 0 53 20t19 48q0 27 -19.5 47t-54.5 20zM91 -65q27 0 73 195q-6 15 -17 25.5t-24 10.5q-37 0 -54.5 -31t-17.5 -77q0 -37 11.5 -73t28.5 -50zM473 12q19 53 45 107q0 105 -35 105q-14 0 -27.5 -41t-13.5 -85q0 -66 31 -86z" />
    <glyph glyph-name="d_b" unicode="db" horiz-adv-x="722" 
d="M-29 -6q0 77 62.5 141.5t163.5 108.5q-7 138 -67 266t-153.5 207t-192.5 79q-125 0 -215.5 -70t-90.5 -188q0 -65 53 -104t123 -39q69 0 117 39.5t48 116.5q0 19 -15 36.5t-42 17.5q-38 0 -44 -43q-12 4 -12 20q0 32 48 32q31 0 74.5 -30t43.5 -62q0 -83 -51 -127.5
t-125 -44.5q-95 0 -170 69.5t-75 189.5q0 122 60.5 189.5t155.5 67.5q405 0 558 -451h1q0 -2 2 -8q24 -74 37 -137q113 35 208 35q84 0 136 -28t52 -83q0 -75 -66 -122q47 -25 77 -64t30 -86q0 -56 -39.5 -93t-117.5 -37q-68 0 -151 30t-83 64q0 5 2.5 10t10 11t12 9.5
t16.5 11.5l15 10q-6 4 -10 10l19 313q-57 -15 -102 -37q35 -182 35 -409q-38 0 -69 72.5t-40 222.5q-28 -89 -75.5 -143t-106.5 -54q-22 0 -34.5 27t-12.5 54zM501 40q-7 0 -24 3q-11 -124 -65 -124q-9 0 -13 1q12 -27 49.5 -44t66.5 -17q91 0 91 67q0 37 -29.5 66.5
t-72.5 47.5h-3zM494 279q-22 0 -46 -3q33 -21 33 -50q0 -105 -1 -127q4 1 11 1q9 0 29 -2q80 61 80 115q0 66 -106 66zM96 -16q21 0 50.5 56t51.5 137v4q-116 -77 -116 -163q0 -10 3.5 -22t10.5 -12z" />
    <glyph glyph-name="d_f" unicode="df" horiz-adv-x="574" 
d="M318 294l-39 -13q0 -14 -6.5 -107.5t-6.5 -136.5q0 -66 24 -137t66 -114q-29 4 -55.5 16.5t-53 38t-42.5 72.5t-16 111q6 49 12 87q-29 -90 -76 -144t-107 -54q-22 0 -34.5 27t-12.5 54q0 83 71.5 163.5t177.5 135.5q0 111 -22.5 203t-56.5 146.5t-71 83.5t-70 29
q-88 0 -155.5 -57.5t-67.5 -140.5q0 -48 30.5 -84.5t86.5 -48.5q-20 -5 -42 -5q-68 0 -106 44.5t-38 110.5q0 113 66.5 179.5t162.5 66.5q59 0 114.5 -30t103 -89t80.5 -157.5t42 -223.5l31 11q0 82 40 94q22 -64 26 -76q40 8 70 8q44 0 73 -26.5t29 -68.5q0 -30 -14 -59
q-4 42 -39.5 73.5t-64.5 31.5q-15 0 -39 -2q36 -104 51 -181q86 -3 86 -58h-76q8 -61 8 -121q0 -228 -67 -358t-197 -130q-66 0 -109 48.5t-43 111.5q0 66 37.5 114.5t102.5 48.5q33 0 59 -19t37 -56q2 -3 2 -8q0 -29 -26.5 -50.5t-42.5 -21.5q-8 0 -14 5t-6 13q0 6 5 10
q10 -20 24 -20q17 0 25.5 12t8.5 23q0 36 -29.5 56t-58.5 20q-51 0 -75.5 -25t-24.5 -65q0 -55 40.5 -103t99.5 -48q32 0 58 15.5t42.5 38.5t28.5 61.5t18 72.5t9.5 84.5t4 85t0.5 84.5q0 40 -9 121q-32 3 -32 19q0 14 6 26t18 12q-12 85 -32 170zM214 248q-64 -43 -98 -106
t-34 -124q0 -10 3.5 -22t10.5 -12q26 0 62.5 81.5t55.5 182.5z" />
    <glyph glyph-name="d_h" unicode="dh" horiz-adv-x="602" 
d="M356 -214q-29 4 -55.5 16.5t-53 38t-42.5 72.5t-16 111q5 44 12 87q-29 -90 -76 -144t-107 -54q-22 0 -34.5 27t-12.5 54q0 124 219 155q35 119 35 218q0 17 -4 47h3q-6 86 -30.5 154.5t-57.5 107.5t-68 59t-68 20q-88 0 -155.5 -57.5t-67.5 -140.5q0 -48 30.5 -84.5
t86.5 -48.5q-20 -5 -42 -5q-68 0 -106 44.5t-38 110.5q0 113 66.5 179.5t162.5 66.5q65 0 125 -36t109.5 -106t79.5 -188.5t30 -269.5q0 -12 -6 -62q48 2 73 2q-7 37 -17 69q0 83 40 97q13 -39 32.5 -92t26.5 -74h37q4 0 32 -2q-3 46 -3 88q0 143 42 224t123 81
q42 0 68.5 -30t26.5 -70q0 -41 -23.5 -71t-63.5 -30q-21 0 -41.5 14t-20.5 38q0 18 17 31t26 13q12 0 12 -11q0 -5 -2 -6q-7 12 -15 12q-11 0 -16.5 -7.5t-5.5 -14.5q0 -22 19 -34.5t36 -12.5q32 0 48 16t16 40q0 34 -25.5 64t-62.5 30q-28 0 -48.5 -18.5t-30.5 -43.5
t-15.5 -67t-6.5 -71.5t-1 -75.5q0 -40 3 -103q16 -7 16 -17q0 -23 -11 -53q10 -145 18 -170q0 -52 -24 -61q-35 100 -51 264q-20 5 -52 5h-7q14 -60 14 -165q0 -228 -67 -358t-197 -130q-66 0 -109 48.5t-43 111.5q0 66 37.5 114.5t102.5 48.5q33 0 59 -19t37 -56q2 -3 2 -8
q0 -29 -26.5 -50.5t-42.5 -21.5q-8 0 -14 5t-6 13q0 6 5 10q10 -20 24 -20q17 0 25.5 12t8.5 23q0 36 -29.5 56t-58.5 20q-51 0 -75.5 -25t-24.5 -65q0 -55 40.5 -103t99.5 -48q32 0 58 15.5t42.5 38.5t28.5 61.5t18 72.5t9.5 84.5t4 85t0.5 84.5q0 86 -11 166q-46 2 -74 2
h-12q-4 -32 -4 -77q0 -66 24 -137t66 -114zM96 -16q16 0 38 34t42 89q-47 -8 -70.5 -28.5t-23.5 -60.5q0 -10 3.5 -22t10.5 -12z" />
    <glyph glyph-name="d_l" unicode="dl" horiz-adv-x="530" 
d="M214 657q27 -43 27 -89q0 -47 -35 -87q46 -95 46 -213q0 -64 -10 -124t-33 -119t-68 -95t-107 -36q-34 0 -51 33t-17 87q0 63 22 129t67.5 114.5t102.5 48.5q5 0 8 -1q-3 65 -25 125q-122 -68 -313 -68q-143 0 -224.5 58.5t-81.5 137.5q0 89 72 138.5t181 49.5
q118 0 232 -59t180 -169q32 45 32 97q0 23 -5 42zM262 239q17 0 32 4q5 242 58.5 385.5t138.5 143.5q155 0 155 -122q0 -93 -81.5 -213t-176.5 -180v-67q0 -85 1.5 -142.5t5.5 -93.5t10 -51.5t14 -15.5q23 0 56.5 62.5t54.5 151.5q6 -1 11 -10.5t5 -22.5q0 -33 -22.5 -91
t-57 -106t-62.5 -48q-55 0 -82.5 102t-27.5 268v29h-4q-17 0 -28 17zM-129 383q63 0 133.5 19.5t123.5 56.5q-55 115 -168 179t-225 64q-78 0 -127.5 -33t-49.5 -94q0 -74 84.5 -133t228.5 -59zM530 752q-129 0 -141 -464q92 65 164 178.5t72 195.5q0 90 -95 90zM81 -67
q9 0 18.5 6.5t20.5 26t20 50t16.5 83t9.5 120.5q-2 0 -6 0.5t-5 0.5q-45 0 -76.5 -71.5t-31.5 -143.5t34 -72z" />
    <glyph glyph-name="d_k" unicode="dk" horiz-adv-x="610" 
d="M113 235q-27 -5 -27 -102q0 -44 8.5 -85.5t18.5 -41.5q17 0 38 222q-18 8 -30 8q-5 0 -8 -1zM112 313q29 0 46 -17v1q1 1 1 2q-1 31 -1 99q0 104 12 183t29.5 123.5t42.5 72t46.5 36.5t45.5 9q211 0 211 -93q0 -48 -47 -123t-126 -180t-117 -169q-2 -58 -2 -187
q0 -122 20.5 -191.5t75.5 -81.5q-15 -33 -45 -33q-18 0 -31.5 4.5t-31.5 24t-30.5 54t-24.5 99.5t-19 156q-37 -148 -69 -148q-51 0 -77 44.5t-26 110.5q0 78 33 141t84 63zM329 787q-32 0 -48 -110t-24 -355q37 56 109 147.5t109 149.5t37 95q0 73 -183 73zM411 13
q-6 -56 -20.5 -92.5t-27.5 -48t-25 -11.5q-29 0 -29 258q0 111 20 183.5t45 72.5q10 0 18.5 -15t14 -51t5.5 -87l-2 -110q4 6 30 40.5t38 53t30.5 49t27 55t8.5 44.5q0 4 -0.5 10t-0.5 10q22 0 39 -16.5t17 -44.5q0 -38 -45 -109t-92 -128q11 -17 36.5 -56t40.5 -61t39 -56
t42 -54t40 -41t42 -30.5t39 -9.5q32 0 59 13q-46 -74 -106 -74q-30 0 -64 23.5t-73.5 72.5t-69.5 93t-76 117z" />
    <glyph glyph-name="f_g" unicode="fg" horiz-adv-x="586" 
d="M326 378q-2 0 -21 5t-34 5q-48 0 -72.5 -24.5t-33.5 -93.5q8 0 25.5 0.5t27.5 0.5q93 0 115 -14q30 25 55 25q39 0 65 -50q15 52 41.5 85.5t56.5 34.5q0 -43 -3 -161.5t-3 -132.5q0 -201 -23 -342.5t-66 -220.5t-98 -114t-127 -35q-113 0 -175 69.5t-62 166.5
q0 103 68 181t185 78q54 0 102 -41.5t48 -88.5t-23 -86.5t-52 -39.5q-26 0 -44 33h5q32 0 53 40t21 69q0 40 -25.5 62t-67.5 22q-94 0 -147.5 -63t-53.5 -149t54 -147.5t153 -61.5q38 0 69 27t56.5 86.5t40 166.5t14.5 255q0 17 -3.5 70.5t-4.5 85.5q-21 -68 -70 -119
t-89 -51q-62 0 -62 90q0 51 22.5 113.5t56.5 107.5q-98 -2 -139 -4v-200q0 -54 -28 -103.5t-75 -49.5q-13 0 -22.5 8t-9.5 14q28 14 28 86v235q-8 -1 -17 -1q-11 0 -19 6.5t-8 13.5q0 16 45 29q8 107 47.5 152.5t95.5 45.5q48 0 93 -26.5t45 -42.5q0 -7 -10 -7zM441 144
q0 34 6 65q-2 1 -7 1q-43 0 -73.5 -63.5t-30.5 -121.5q0 -44 20 -44q16 0 40.5 48t44.5 109v6z" />
    <glyph glyph-name="f_k" unicode="fk" horiz-adv-x="547" 
d="M254 339q-23 38 -44 38q-46 0 -51 -202q50 17 99 45q26 248 91.5 399.5t129.5 151.5q41 0 62 -28t21 -71q0 -82 -60.5 -201t-151.5 -216q-6 -74 -8 -113q22 14 32.5 21.5t36 29t39 40t25.5 47t12 58.5q22 0 38.5 -17t16.5 -45q0 -48 -32 -84t-79 -56q88 -239 151 -357
q164 -310 359 -310q62 0 106.5 18t67 50t32 67t9.5 78q0 78 -53.5 135.5t-144.5 57.5q-56 0 -92 -32.5t-36 -96.5q0 -37 24 -63t67 -26q1 0 3 1h3q-22 -32 -48 -32q-37 0 -56.5 23.5t-19.5 60.5q0 90 52.5 139t128.5 49q113 0 178.5 -67t65.5 -159q0 -50 -13.5 -92
t-43.5 -79.5t-86 -59t-134 -21.5q-90 0 -179.5 50.5t-158.5 130t-124 172.5t-84 184t-29 159v4q-9 -2 -25 -2q-7 0 -10 1q-2 -62 -2 -92q0 -28 -23 -46.5t-71 -18.5q0 102 8 206q-53 -38 -95 -54v-36q0 -32 0.5 -94t0.5 -90q0 -48 -1.5 -88t-6.5 -91t-13.5 -90.5t-24.5 -80
t-37.5 -67t-54 -43t-72.5 -16.5q-66 0 -117 61t-51 126q0 44 28.5 71.5t88.5 27.5q43 0 72 -37q-7 1 -21 1q-53 0 -80 -25.5t-27 -64.5q0 -46 35 -83.5t89 -37.5q60 0 76.5 80t16.5 317l-3 246q-21 6 -37.5 20.5t-16.5 30.5q19 0 53 2q-1 17 -1 52q0 135 41 192t103 57
q37 0 55 -23.5t18 -52.5q0 -39 -17 -39zM530 678q0 33 -8.5 52.5t-23.5 19.5q-38 0 -79.5 -131.5t-63.5 -321.5q84 84 129.5 192.5t45.5 188.5z" />
    <glyph glyph-name="f_y" unicode="fy" horiz-adv-x="605" 
d="M48 194q-22 0 -22 18q0 15 40 25v17q0 115 57 175.5t155 60.5q55 0 91.5 -23.5t36.5 -65.5q0 -25 -13.5 -46t-26.5 -30t-18 -9q-2 0 -2 2q4 11 4 24q0 42 -21.5 62.5t-42.5 20.5q-122 0 -132 -180h8q115 0 164 -14q20 -1 32 -9.5t12 -21.5q0 -16 -21 -33
q-12 -9 -22.5 -68.5t-10.5 -102.5q0 -37 12 -38q5 0 14.5 17t22.5 50.5t22 58.5t23 65.5t16 45.5q6 20 11.5 32t19.5 25.5t33 13.5q42 0 42 -28q0 -8 -5 -36t-5 -47q0 -21 -0.5 -91.5t-0.5 -121.5q65 59 82 154q14 -8 14 -42q-17 -108 -97 -167q-9 -191 -92 -296t-185 -105
q-26 0 -56.5 9t-62.5 29t-58 48t-42.5 70.5t-16.5 91.5q2 38 44 60.5t96 30t134 22t134 34.5q9 70 15 151l8 110q-45 -132 -65 -167q-26 -45 -52 -45q-47 0 -69 28t-22 69q0 81 55 167h-131q0 -27 4 -88.5t4 -91.5q0 -40 -4.5 -70.5t-16 -59t-35 -43.5t-57.5 -15
q-13 0 -22.5 7.5t-10.5 14.5q25 2 41 84.5t16 185.5q0 1 -3 76h-22zM230 -478q60 0 106 78t72 234q-59 -18 -158 -28.5t-150.5 -25t-53.5 -50.5q0 -54 19.5 -96.5t49.5 -65.5t59.5 -34.5t55.5 -11.5z" />
    <glyph glyph-name="f_b" unicode="fb" horiz-adv-x="618" 
d="M316 42q0 -70 -19 -132.5t-61.5 -106.5t-101.5 -44q-27 0 -49.5 16t-22.5 51q0 11 7.5 23.5t22.5 12.5q1 -22 12 -34t25 -12q39 0 58.5 46.5t19.5 155.5q0 46 -0.5 75t-0.5 74q0 23 32 23q20 0 40 -22.5t30 -60.5q56 11 84 32t28 45q0 50 -67 50q-59 0 -197 -49v-37v-20
q0 -39 -0.5 -60t-2.5 -55.5t-8 -53t-16 -39.5t-26.5 -30t-38.5 -9q-14 0 -23.5 8t-9.5 15q24 22 24 85q0 24 -5 176q-31 8 -59 39q13 0 57 13v41q0 106 47.5 157.5t111.5 51.5q55 0 90 -20t35 -60q0 -23 -18 -36.5t-43 -13.5q0 38 -14 50.5t-43 14.5q-60 0 -60 -124v-30
q133 38 220 38q132 0 132 -96q0 -38 -22 -61.5t-78 -35.5q5 1 16 1q54 0 84 -29t30 -71q0 -48 -35 -88q62 0 117 196q13 -8 13 -29q0 -63 -54.5 -151.5t-116.5 -95.5q-28 -2 -40 -2q-56 0 -84.5 17.5t-28.5 42.5q0 21 14.5 38.5t46.5 17.5q23 0 45 -9q32 18 32 54
q0 31 -31.5 54.5t-85.5 23.5q-8 0 -14 8q2 -18 2 -29z" />
    <glyph glyph-name="f_p" unicode="fp" horiz-adv-x="543" 
d="M219 111h-46v-58q0 -82 -3 -140q54 9 106 9q74 0 121.5 -28.5t47.5 -87.5q0 -50 -29 -88t-72 -38q-26 0 -55.5 17t-29.5 49q0 14 8.5 29.5t26.5 15.5q6 0 10 -3q-6 -10 -6 -23q0 -18 14.5 -26.5t30.5 -8.5q29 0 51.5 23.5t22.5 52.5q0 24 -12.5 39.5t-36 21.5t-41.5 7.5
t-44 1.5q-55 0 -120 -23q-15 -77 -65 -77q-20 0 -44.5 16.5t-24.5 44.5q0 68 57 82q0 29 -14 87t-17 105h-45q0 31 44 49q2 92 65.5 140.5t174.5 48.5q96 0 168.5 -54t72.5 -124q0 -46 -36 -89.5t-93 -43.5q-16 0 -25 12q-10 -103 -30 -120q-27 0 -45.5 8t-18.5 20v286
q0 10 8.5 17.5t19.5 7.5q22 0 46.5 -29t24.5 -85q0 -41 -4 -84q27 3 45.5 32t18.5 63q0 73 -37 110.5t-120 37.5q-62 0 -89.5 -19.5t-27.5 -62.5v-59q43 -3 65 -15.5t22 -27.5q0 -20 -27 -20q-8 0 -13 1z" />
    <glyph glyph-name="f_h" unicode="fh" horiz-adv-x="574" 
d="M646 -318q37 0 60.5 18t23.5 57q0 10 -8 21.5t-24 11.5t-24 -19q-4 3 -4 10q0 16 16 18q16 0 42 -18.5t27 -45.5q0 -41 -32.5 -61.5t-63.5 -20.5q-88 0 -151 82.5t-63 219.5q0 51 5 129q-15 1 -66 5q-22 -122 -58 -200q-20 5 -36 29.5t-16 65.5q3 37 11 118
q-94 12 -133 16l2 -109q0 -69 -1.5 -117t-7 -105.5t-16 -96.5t-28.5 -78.5t-44 -63t-64 -38t-87 -14.5q-45 0 -76 25t-31 69q0 18 5 33q6 -40 31.5 -60.5t59.5 -20.5q154 0 154 376l-3 208v2q-22 7 -22 28q0 3 1 8v2q3 0 11 -0.5t11 -0.5q9 99 55 168t115 69q53 0 53 -93
q0 -27 -37 -60q-16 120 -41 120q-24 0 -32.5 -48.5t-8.5 -147.5v-17q7 -1 138 -19q17 150 26 253q3 30 3 56q0 71 -16.5 95.5t-54.5 24.5q-46 0 -75 -24.5t-29 -56.5q0 -22 14.5 -36.5t40.5 -14.5q43 0 68 59q11 -4 16 -27q-3 -24 -18 -38.5t-37 -14.5q-55 4 -86 32t-31 65
q0 43 40 90t107 47q68 0 110.5 -67t42.5 -213q0 -120 -20 -243q13 -1 36 -1q19 0 28 1q14 148 45 237q14 -5 27 -22.5t15 -43.5q-8 -26 -10 -160q10 -19 10 -36q0 -8 -10 -11v-19q0 -182 16 -258q27 -128 99 -129z" />
    <glyph glyph-name="g_f" unicode="gf" horiz-adv-x="546" 
d="M518 222q-17 0 -69 2q0 -16 0.5 -60t0.5 -71q0 -60 -29 -127.5t-75 -67.5q-12 0 -21.5 8t-9.5 14q31 16 31 159q0 19 -1.5 65t-1.5 61v22q-60 -2 -101 -8q21 -19 33.5 -60t12.5 -63q0 -114 -6 -219q122 -4 215 -24.5t146 -49t85.5 -67t43 -71.5t10.5 -69q0 -59 -41 -96.5
t-124 -37.5q-75 0 -133 35.5t-58 94.5q0 23 14.5 37.5t40.5 14.5q5 0 5 -5q-32 -35 -32 -66q0 -40 32 -60.5t82 -20.5q85 0 130 40.5t45 100.5q0 30 -10.5 57t-41 56t-79.5 49.5t-133 34t-194 13.5h-6q-35 -494 -221 -494q-71 0 -132 23.5t-99.5 60t-60.5 79t-22 82.5
q0 87 68.5 153t170.5 97.5t220 33.5q3 66 3 131v103.5t0.5 70t0.5 29.5l-21 -6q-25 -236 -112 -236q-48 0 -72 22t-24 59q0 72 53.5 129.5t134 86t168.5 28.5h16q13 75 47 114.5t73 39.5q23 0 37.5 -6t20.5 -18.5t7.5 -23t1.5 -28.5q0 -30 -9 -30q-25 27 -46 27
q-29 0 -32 -87q71 -16 71 -47q0 -6 -3 -14zM14 -607q163 0 188 447q-80 -7 -153 -28t-135 -55t-99 -87.5t-37 -119.5t62 -111.5t174 -45.5zM112 44q31 0 58 157q-89 -37 -89 -125q0 -32 31 -32z" />
    <glyph glyph-name="g_u" unicode="gu" horiz-adv-x="629" 
d="M178 254q0 22 14 22q9 0 19.5 -8t22 -25.5t19 -52t7.5 -80.5q0 -180 -6 -260q137 8 316 8q312 0 517.5 -44t205.5 -124q0 -57 -37 -91.5t-77 -34.5q-43 0 -43 37q0 5 6 13q17 -18 41 -18q22 0 32.5 14.5t10.5 32.5q0 61 -109 107t-269.5 67t-341.5 21q-130 0 -254 -6
q-7 -84 -23.5 -146.5t-51 -119t-88 -92t-136.5 -56t-195 -20.5q-150 0 -257 65.5t-107 137.5q0 49 58.5 90.5t164 71t239.5 49.5t296 32q44 181 44 368q-5 -12 -24 -86.5t-42 -128.5t-47 -54q-54 0 -74.5 31.5t-20.5 96.5q0 76 32.5 126.5t63.5 50.5q29 0 51.5 -21.5
t24.5 -56.5q18 65 18 84zM-198 -569q70 0 128 32.5t99.5 90.5t69.5 124.5t49 147.5q-314 -23 -515 -80.5t-201 -139.5q0 -67 92 -121t278 -54zM629 95q14 0 14 -34q0 -56 -30 -116t-65 -60q-32 0 -70.5 79.5t-38.5 182.5q-17 -96 -45 -155.5t-59 -59.5q-29 0 -43 41
t-16.5 99t-5 116.5t-16.5 99.5t-44 41q-9 0 -24 -5v4q0 10 13 17t32 7q126 0 126 -170q0 -32 -4.5 -82.5t-4.5 -63.5q0 -27 10 -27q24 0 46.5 61t22.5 128q0 12 -1 17q0 20 9.5 31.5t22.5 11.5q18 0 32 -19t14 -52q0 -52 14.5 -107t30 -86.5t23.5 -31.5q19 0 57 133zM85 -28
q10 0 32 61.5t42 133.5q-7 21 -21 21q-20 0 -49.5 -51t-29.5 -110q0 -55 26 -55z" />
    <glyph glyph-name="g_a" unicode="ga" horiz-adv-x="676" 
d="M608 109q0 -19 -30 -27q0 -32 -1 -62.5t-2 -48t-1 -21.5q0 -23 16 -23q11 0 25 15t31.5 56.5t30.5 103.5q13 -7 13 -24q0 -83 -35 -139.5t-77 -56.5q-44 0 -62.5 37.5t-18.5 90.5q0 41 4 76q-24 4 -51 11q-4 -23 -9.5 -61t-9.5 -66.5t-8 -48.5q-10 -59 -35 -84.5
t-54 -25.5q-24 0 -24 28q0 8 1 13q18 133 54 284q-18 11 -46 31t-44.5 31.5t-42 20.5t-51.5 9q-37 0 -68.5 -89t-31.5 -156q0 -30 9 -30q26 0 59 110.5t33 132.5q2 4 5 4q37 0 73 -18t36 -59q0 -158 -35 -352q109 8 215 8q98 0 172.5 -16.5t122 -56.5t47.5 -100
q0 -30 -22 -49t-62 -19q-5 0 -6 1t-1 6q49 46 49 86q0 61 -78.5 91.5t-205.5 30.5q-118 0 -237 -11q-15 -80 -35.5 -147.5t-47 -124t-60.5 -89t-73 -32.5q-94 0 -187 33.5t-148.5 82t-55.5 92.5q0 66 139.5 122t366.5 82q23 175 27 372q-43 -244 -128 -244q-35 0 -55.5 50.5
t-20.5 103.5q0 86 59.5 148.5t159.5 62.5q14 0 26.5 -1.5t27.5 -7t24 -9t26 -13t23 -13t26.5 -16.5t24.5 -15q51 209 85 209q119 0 119 -266v-15h4q8 0 26 2zM-298 -478q0 -53 88.5 -94.5t204.5 -41.5q104 0 155 344q-199 -28 -323.5 -83t-124.5 -125zM515 247q0 62 -28 62
q-6 0 -32 -175q18 -8 49 -17q11 106 11 130z" />
    <glyph glyph-name="g_e" unicode="ge" horiz-adv-x="596" 
d="M-16 -671q-132 0 -208 75t-76 169q0 146 172 146q112 0 304 -64q30 129 30 254q0 68 -5 170t-5 119h-2q-14 -108 -52 -223.5t-77 -115.5q-48 0 -71 41t-23 106q0 118 52.5 199t113.5 81q28 0 61.5 -15t54.5 -29.5t60 -43.5q38 121 106 121q58 0 88 -41t30 -95
q0 -89 -51 -89q-39 0 -111 30q-5 -35 -5 -74q0 -82 35 -145t87 -63q29 0 102 260q13 -8 13 -29q0 -39 -22 -110.5t-56.5 -132.5t-64.5 -61q-80 0 -129.5 75t-49.5 180q0 65 16 133l-47 20q6 -27 6 -67q0 -57 4.5 -174.5t4.5 -174.5q0 -68 -14 -133q19 -7 83 -29t89 -30
t69.5 -21.5t74 -18.5t54.5 -5q72 0 119.5 47t47.5 105q0 46 -35.5 77t-104.5 31q-40 0 -66 -16t-26 -48q0 -25 26 -54q0 -4 -4 -4q-21 0 -32.5 11.5t-11.5 30.5q0 47 46.5 76t107.5 29q63 0 98.5 -36t35.5 -87q0 -69 -59.5 -123t-165.5 -54q-75 0 -158 23t-196 66
q-32 -120 -103 -194.5t-160 -74.5zM-39 -638q69 0 122.5 73.5t85.5 191.5q-180 69 -270 69q-67 0 -102.5 -32.5t-35.5 -107.5q0 -77 52.5 -135.5t147.5 -58.5zM66 -102q13 0 55.5 122.5t54.5 182.5q-15 3 -28 3q-38 0 -72.5 -75t-34.5 -161q0 -72 25 -72zM438 270
q-39 0 -59 -119q50 -31 85 -31q37 0 37 72q0 32 -16 55t-47 23z" />
    <glyph glyph-name="h_a" unicode="ha" horiz-adv-x="617" 
d="M366 434q8 -2 12 -2q30 0 51 27.5t21 53.5q0 92 -35.5 136.5t-92.5 44.5q-55 0 -99.5 -30.5t-71.5 -78t-45 -110t-25 -122t-7 -119.5q0 -192 19 -192q17 94 46 174.5t53.5 119t37.5 38.5q22 0 48 -20.5t27 -52.5q-23 -100 -23 -236q0 -98 13 -189.5t39 -171t71.5 -127
t104.5 -47.5q99 0 178 61.5t79 128.5q0 62 -44.5 104t-124.5 42q-71 0 -127.5 -27.5t-56.5 -71.5q0 -46 58 -79q0 -9 -26 -9q-28 0 -43.5 18t-15.5 49q0 64 82 113.5t173 49.5q78 0 119 -43t41 -108q0 -88 -85.5 -167.5t-214.5 -79.5q-84 0 -147.5 40t-99.5 109.5t-53.5 153
t-17.5 181.5q0 147 34 285q1 2 1 6q0 13 -11 13q-7 0 -23.5 -41t-37 -111.5t-35.5 -144.5q-2 -11 -10 -19.5t-17 -8.5q-26 0 -39 11t-13 26q-37 113 -37 283q0 80 12.5 156t38 143t71 108t104.5 41q61 0 108.5 -18.5t75.5 -46.5t45.5 -65t24 -69t6.5 -63q0 -33 -24.5 -52.5
t-52.5 -19.5q-33 0 -39 26zM315 -4q8 45 10 56q-16 -2 -16 -5q-2 3 -2 9q0 13 22 18q34 192 53 239q14 37 30 37t43.5 -9t36.5 -23q8 -14 13 -55t10 -107.5t9 -100.5q30 -5 46 -5q35 0 44 14q17 -3 17 -19q0 -23 -73 -23q-8 0 -30 2q14 -94 42 -94q0 -7 -8 -12.5t-16 -5.5
q-37 0 -57 118q-12 2 -35.5 7t-33.5 7q-1 -24 -1 -67q0 -13 -17.5 -22t-34.5 -9q-53 0 -53 37q0 8 1 13zM422 74q11 -2 32 -6t30 -6q-5 37 -11 106t-11.5 102t-13.5 33q-7 0 -14.5 -71.5t-11.5 -157.5z" />
    <glyph glyph-name="h_e" unicode="he" horiz-adv-x="604" 
d="M514 -83q32 -17 32 -48q0 -26 -23 -47t-57 -21q-43 0 -76 39t-49.5 98.5t-16.5 124.5q0 62 14.5 112.5t48 84.5t81.5 34q40 0 63 -34.5t23 -84.5q-4 -60 -44 -117t-81 -57q-7 0 -11 8q5 0 12.5 4t19 16.5t21 31.5t16.5 53.5t7 78.5q0 54 -21 54q-25 0 -42 -70t-17 -155
q0 -73 16 -121.5t48 -48.5q15 0 27 10.5t12 31.5q0 11 -3 23zM222 742q131 0 199.5 -55t68.5 -129q0 -59 -44 -101.5t-118 -42.5q-52 0 -90.5 30.5t-38.5 77.5q0 75 80 75q21 0 32 -8t11 -18q0 -17 -14 -17q2 8 2 11q0 14 -10.5 21.5t-21.5 7.5q-16 0 -25.5 -12.5t-12 -25
t-2.5 -24.5q0 -44 37.5 -71.5t82.5 -27.5q48 0 72 27.5t24 69.5q0 60 -38.5 112t-93.5 52t-99.5 -30.5t-71.5 -78t-45 -110t-25 -122t-7 -119.5q0 -192 19 -192q17 94 46 174.5t53.5 119t37.5 38.5q22 0 48 -20.5t27 -52.5q-23 -100 -23 -236q0 -143 45.5 -227t134.5 -84
q54 0 86.5 29t32.5 83q0 56 -70 93q0 11 31 11q33 0 51.5 -21.5t18.5 -58.5q0 -76 -55.5 -122.5t-127.5 -46.5q-106 0 -175.5 73.5t-69.5 200.5q0 147 34 285q1 2 1 6q0 13 -11 13q-7 0 -23.5 -41t-37 -111.5t-35.5 -144.5q-2 -11 -10 -19.5t-17 -8.5q-26 0 -39 11t-13 26
q-37 113 -37 283q0 80 12.5 156t38 143t71 108t104.5 41z" />
    <glyph glyph-name="h_i" unicode="hi" horiz-adv-x="508" 
d="M245 152q0 26 -11 26q-24 0 -79.5 -99.5t-55.5 -132.5q0 -7 -7.5 -11.5t-16.5 -4.5q-19 0 -28 9t-15.5 55.5t-6.5 141.5q0 148 -13 253q-108 -40 -178 -40q-50 0 -74 25.5t-24 67.5q0 106 51.5 165t124.5 59q157 0 198 -206q66 30 94.5 42.5t77 27.5t81.5 15
q112 0 112 -161q0 -41 -22 -68t-62 -27q-20 0 -33 14.5t-13 42.5q0 15 14.5 35.5t42.5 20.5q9 0 20 -4q0 106 -81 106q-27 0 -69 -12.5t-68.5 -23.5t-88.5 -37q9 -63 9 -130q0 -127 -25 -269q47 135 93 215t78 80q17 0 25 -50t11.5 -122t11.5 -143.5t34 -121.5t70 -50
q17 0 40 11.5t23 27.5q0 19 -9 43q34 -23 34 -54q0 -40 -53 -73t-113 -33q-63 0 -87 46.5t-24 127.5q0 39 6 113.5t6 102.5zM-95 392q42 0 103 24q-32 232 -130 232q-28 0 -45.5 -37t-17.5 -110q0 -47 22 -78t68 -31zM484 -46q-39 -30 -66 -30q-37 0 -50 49.5t-13 164.5
q0 21 2 47q-9 0 -20.5 9.5t-11.5 19.5t24.5 19t51.5 9q51 0 51 -28q0 -10 -1 -75.5t-1 -98.5q0 -66 34 -86z" />
    <glyph glyph-name="h_o" unicode="ho" horiz-adv-x="622" 
d="M603 -110q31 -34 31 -70q0 -43 -36 -74.5t-88 -31.5q-69 0 -119.5 16.5t-81 43.5t-48.5 68t-24.5 83.5t-6.5 97.5q0 53 8 163v4q-4 0 -26.5 -46.5t-51.5 -121t-46 -136.5q-8 -24 -24 -24q-59 0 -59 56l15 286v157q-97 -20 -167 -20q-172 0 -172 113q0 82 84 159.5
t191 77.5q62 0 93 -74t41 -218q35 8 124 31q-63 57 -63 147q0 101 82 178.5t221 77.5q28 0 47 -29.5t24.5 -57t5.5 -44.5q0 -40 -21.5 -68t-41.5 -28q-8 0 -20 8t-12 21l2 3q14 -7 29 -7q24 0 38 20t14 38q0 72 -107 72q-95 0 -149.5 -61.5t-54.5 -142.5q0 -70 40 -117
q226 63 289 63q68 0 68 -46q0 -30 -31.5 -51.5t-74.5 -31t-89 -9.5q-115 0 -182 53q-80 -25 -137 -40q7 -108 7 -380q26 117 68.5 218t69.5 101q24 0 34 -17.5t10 -55.5q0 -26 -2 -76t-2 -74q0 -82 8.5 -141t30 -108t63 -74t102.5 -25q33 0 65 38.5t32 105.5zM328 10
q0 75 16 107q-4 24 -4 52q0 55 23 88.5t69 33.5q69 0 103 -48t34 -121q0 -54 -18.5 -108t-49.5 -91q19 -16 36 -16q21 0 38 46t47 157q7 0 12.5 -5t5.5 -11q-9 -90 -34 -161t-60 -71q-41 0 -80 30q-29 -19 -59 -19q-40 0 -59.5 39.5t-19.5 97.5zM-69 374q51 0 114 11
q-2 152 -26 208.5t-102 56.5q-65 0 -110 -52t-45 -114q0 -110 169 -110zM527 490q-10 0 -22.5 -1.5t-30 -5.5t-30 -7t-37 -10.5t-36.5 -11t-43 -13t-42 -13.5q47 -45 123 -45q63 0 109.5 22t46.5 60q0 25 -38 25zM398 175q0 -38 15 -90.5t39 -95.5q39 74 39 153
q0 41 -20 74.5t-41 33.5q-32 0 -32 -75zM417 -58q-19 26 -39 67v-13q0 -61 22 -61q6 0 17 7z" />
    <glyph glyph-name="h_u" unicode="hu" horiz-adv-x="555" 
d="M516 -111q-57 -77 -136 -77q-206 0 -206 231q0 41 8.5 101.5t8.5 72.5q0 21 -10 21q-17 0 -51.5 -93t-48.5 -169q-6 -20 -22 -20q-61 0 -61 46q0 215 21 341q-54 8 -86.5 23.5t-32.5 35.5q0 7 4.5 15t7.5 8q27 -44 110 -66q65 348 312 348q33 0 62.5 -39.5t44 -87.5
t14.5 -83q0 -54 -54 -92t-128 -53t-158 -15q-28 0 -42 1q-5 -48 -5 -112q0 -49 4 -118t4 -81q10 54 40 121.5t59.5 112t41.5 44.5q26 0 36 -16.5t10 -48.5q0 -20 -5 -102.5t-5 -112.5q0 -81 41.5 -125t108.5 -44q61 0 113 33zM279 594q-174 0 -204 -245q30 -3 63 -3
q113 0 199.5 40.5t86.5 111.5q0 31 -12 51.5t-35 29.5t-45 12t-53 3zM511 -8q-9 0 -9 24q0 46 5 108t9 62q0 20 -24.5 28t-49.5 8q-9 -24 -29.5 -85.5t-35 -104t-17.5 -42.5q-13 0 -13 20q0 18 10 80t10 80q0 54 -17 73t-56 19v-20q0 -23 -0.5 -63.5t-0.5 -58.5
q0 -74 12 -111.5t48 -37.5q19 0 40 49t37 122q-2 -29 -2 -76q0 -58 7.5 -96.5t17.5 -53t22 -14.5q38 0 67 67t29 108q0 10 -5 10q-12 -43 -28.5 -69t-26.5 -26z" />
    <glyph glyph-name="j_a" unicode="ja" horiz-adv-x="565" 
d="M362 -96q0 42 12 100q-34 -4 -64 -4q-22 -81 -31 -152q-3 -17 -21.5 -28.5t-31.5 -11.5q-21 0 -34.5 9.5t-13.5 19.5q0 11 12 15q0 10 28 148q-4 1 -4 9q0 15 9 18l13 60q22 85 73.5 159t94.5 74q34 0 62 -42.5t28 -103.5q0 -23 -19 -129t-19 -122q0 -17 9 -17
q20 0 47.5 50t53.5 146q14 -8 14 -29q0 -61 -49 -150t-94 -89q-38 0 -56.5 19.5t-18.5 50.5zM31 -244q18 71 29 188.5t11 197.5q-5 -2 -7 -2q-8 0 -17 16.5t-9 33.5t17.5 28.5t38.5 11.5q29 0 55.5 -7.5t29.5 -19.5q0 -46 -9 -137.5t-20 -182t-13 -109.5q1 2 22.5 6.5
t56.5 8.5t64 4q69 0 119 -18.5t50 -57.5q0 -22 -17.5 -38.5t-27.5 -16.5q-17 25 -81.5 43t-124.5 18q-47 0 -68 -13q-4 -36 -44 -70t-81 -34q-39 0 -39 52q0 21 5.5 37t17 28t19 17.5t23.5 15.5zM75 326q0 3 2 15q8 25 29 42t45 17q47 0 47 -48q0 -29 -16 -57.5t-44 -28.5
q-22 0 -42.5 19.5t-20.5 40.5zM402 226q-14 0 -38 -57t-46 -139h62q5 22 16 63.5t16.5 66.5t5.5 41q0 25 -16 25z" />
    <glyph glyph-name="j_e" unicode="je" horiz-adv-x="522" 
d="M150 -181q68 33 127 98q-46 62 -46 153q0 103 54 183t109 80q89 0 89 -92q0 -62 -38.5 -149t-98.5 -168q13 -21 43 -21q34 0 83.5 72t49.5 122q19 -15 19 -31q0 -55 -57 -135t-116 -80q-24 0 -57 29q-95 -113 -168 -125q-4 -37 -43.5 -70t-81.5 -33q-20 0 -30 15t-10 38
q0 24 9 42.5t18 26t27 19.5l10 8l29 337q-39 0 -39 24q0 19 23 42t37 23q30 0 57 -7t30 -19zM77 379q10 31 34.5 52t53.5 21q26 0 41 -16t15 -42q0 -36 -24 -82.5t-57 -46.5q-24 0 -43.5 42t-19.5 72zM398 288q-14 0 -37.5 -116t-26.5 -181q43 65 68 133.5t25 113.5
q0 50 -29 50z" />
    <glyph glyph-name="j_i" unicode="ji" horiz-adv-x="440" 
d="M31 -202l42 352q-8 -1 -10 -1q-9 0 -18.5 6.5t-9.5 13.5q0 10 17.5 26t37.5 16q48 0 64.5 -16t16.5 -52l-33 -325q8 8 92 8q63 0 101.5 -19t38.5 -58q0 -24 -17.5 -41.5t-28.5 -17.5q1 5 1 14q0 25 -15.5 42.5t-41 25t-47 10.5t-44.5 3q-27 0 -41 -11q-5 -39 -47.5 -82
t-82.5 -43q-39 0 -39 53q0 24 9 42.5t18 26.5t27 20zM327 -94q34 0 73 87.5t39 124.5q9 0 16 -7.5t7 -20.5q0 -33 -18 -88.5t-57 -106t-84 -50.5q-38 0 -55.5 27t-17.5 64q0 7 2.5 30.5t5.5 51t4 34.5l12 108q-13 0 -37.5 9.5t-24.5 20.5q0 30 138 30q10 0 21 -10t11 -21
q-28 -238 -35 -283zM266 371l-2 -3q28 43 66 43q28 0 47 -22t19 -51q0 -35 -22.5 -58t-52.5 -23q-29 0 -48 19.5t-19 46.5q0 24 12 48zM77 324l-2 -2q9 26 28.5 43t44.5 17q22 0 35.5 -13.5t13.5 -34.5q0 -29 -16 -58.5t-44 -29.5q-23 0 -43 20t-20 41q0 12 3 17z" />
    <glyph glyph-name="j_o" unicode="jo" horiz-adv-x="538" 
d="M405 298q33 0 51.5 -32t18.5 -92q0 -151 -64 -228q31 2 69 39.5t63 115.5q18 0 18 -17q-11 -74 -58 -128t-89 -54q-25 0 -45 11q-18 -7 -32 -7q-59 0 -86.5 40t-27.5 103q0 101 36 183.5t88 82.5q37 0 42 -20q15 3 16 3zM34 -164l40 262h-7q-7 0 -14 29.5t-7 49.5
t16.5 32.5t40.5 12.5q30 0 56 -7t28 -20q-1 -20 -47 -341q1 2 23.5 7t58 9t64.5 4q68 0 116 -18t48 -57q0 -22 -18.5 -39.5t-28.5 -17.5q-16 26 -79.5 44t-123.5 18q-50 0 -68 -14q-6 -36 -48.5 -69.5t-83.5 -33.5q-37 0 -37 50q0 25 10.5 44t19.5 27t29 21zM124 367h-3
q25 11 51 11q30 0 53 -14.5t23 -35.5q0 -22 -32.5 -44t-69.5 -22q-26 0 -40.5 14.5t-14.5 34.5q0 17 9.5 33t23.5 23zM358 186q0 -149 22 -208q45 57 45 197q0 67 -35 67q-19 0 -32 -40v-16z" />
    <glyph glyph-name="j_u" unicode="ju" horiz-adv-x="532" 
d="M27 -128l19 172q-5 -2 -7 -2q-8 0 -16.5 15.5t-8.5 32.5q0 25 21 79t42 54q30 0 57.5 -7t27.5 -19q0 -8 -6 -70t-13.5 -137t-9.5 -100q2 2 24 7t57 9t64 4q73 0 134 -19.5t61 -58.5q0 -22 -17.5 -38t-26.5 -16q-18 25 -95.5 43t-139.5 18q-49 0 -66 -13
q-5 -37 -45.5 -70.5t-81.5 -33.5q-20 0 -29.5 15t-9.5 37q0 25 8.5 43.5t18.5 27t28 19.5zM57 343q0 55 82 55q28 0 46 -22.5t18 -58.5q0 -26 -15 -44.5t-47 -18.5q-27 0 -55.5 34.5t-28.5 54.5zM310 66q0 -58 25 -58q16 0 27 11.5t17 38t8 37.5t5 42q10 97 19 124t27 27
t18 -32q0 -13 -14 -108.5t-15 -101.5q1 -35 5 -52.5t8 -21.5t11 -4q31 0 69.5 91t38.5 124q8 0 14.5 -6t6.5 -17q0 -28 -18 -83t-55.5 -107t-78.5 -52q-52 0 -59 42q-25 -14 -56 -14q-63 0 -86 29t-23 83q0 29 5 69q5 47 6.5 87.5t2.5 49.5q5 42 78 42q35 0 35 -53
q0 -21 -3 -46t-8.5 -66.5t-9.5 -74.5z" />
    <glyph glyph-name="k_a" unicode="ka" horiz-adv-x="576" 
d="M126 248q0 1 1.5 -42t3 -87t1.5 -49v-3q3 4 9.5 13.5t8.5 13.5t19 29.5t34.5 56.5t24.5 58q-43 0 -43 52q0 26 15.5 42.5t35.5 16.5q22 0 38.5 -20t16.5 -53q0 -31 -26.5 -84t-44 -79t-55.5 -81q59 -83 136.5 -136.5t163.5 -53.5q1 0 8 11t17 22t17 11q10 0 21 -9.5
t11 -20.5q0 -38 -31 -60t-67 -22q-76 0 -171 69t-138 160q0 -74 -11.5 -121t-30.5 -47q-21 0 -41.5 13t-20.5 37q0 1 0.5 3.5t0.5 3.5q0 42 -0.5 141.5t-1 167.5t-1.5 89q0 11 -1 29t-1 23q0 30 20 56.5t51 26.5q43 0 43 -84q0 -49 -12 -93zM308 33q-14 0 -14 19q0 26 24 27
q32 277 90 277q19 0 47 -11.5t38 -29.5q4 -9 8.5 -28.5t8 -47.5t6.5 -53t6.5 -58t5.5 -49h6q13 -2 13 -21t-13 -24l1 -2q3 -9 8 -24.5t8 -25.5t3 -12q0 -14 -12 -25.5t-23 -11.5t-24 30t-15 50l-2 19h-54l-3 -50q-2 -24 -21 -40t-38 -16q-25 0 -46 14t-21 26q0 15 13 21
q0 19 5 46h-5zM454 284q-5 12 -8 12q-9 0 -20 -217h46q-2 23 -5.5 73t-6 83t-6.5 49z" />
    <glyph glyph-name="k_e" unicode="ke" horiz-adv-x="566" 
d="M114 354q32 -252 32 -262v-2q6 6 21 27q8 16 34.5 79t32.5 82q-25 0 -25 25q0 13 9 20.5t20 7.5q16 0 36 -17t20 -44q0 -9 -2.5 -20t-9 -23.5t-12 -23.5t-16 -26t-17 -24.5t-19 -25.5t-18 -23t-18.5 -23t-16 -19q60 -71 138 -116t164 -45l22 16q21 16 31 16t21.5 -8.5
t11.5 -18.5q0 -30 -35.5 -47t-75.5 -17q-78 0 -160 49t-133 135v-23q0 -145 -45 -145q-26 0 -48 12t-22 36q0 1 0.5 3t0.5 3q-2 42 -6.5 139.5t-7.5 165.5t-5 89q-4 28 -4 53q0 26 29.5 54.5t50.5 28.5q25 0 25 -48q0 -24 -4 -40zM307 152q0 94 33.5 136.5t108.5 42.5
q40 0 62.5 -34t22.5 -83q0 -61 -24.5 -101t-63.5 -40q-11 0 -17 6q13 -61 48 -61q12 0 21 7q10 8 20 8t16 -7t6 -17q0 -21 -25.5 -32t-53.5 -11q-18 0 -29.5 1t-38 10.5t-42.5 27t-30 55.5t-14 92zM475 230q0 55 -21 55q-13 0 -23.5 -41.5t-10.5 -93.5q0 -23 5 -51
q20 3 35 43t15 88z" />
    <glyph glyph-name="k_i" unicode="ki" horiz-adv-x="482" 
d="M131 136l5 -36q4 -36 9 -74t5 -40v-3q2 3 5.5 8t6 9t3.5 7t16 26t29 51t19 52q-2 0 -3.5 -0.5t-2.5 -0.5q-22 0 -31 15t-9 30q0 22 15 36t34 14q21 0 37.5 -16.5t16.5 -46.5q0 -55 -95 -201q-5 -8 -7 -12q53 -57 103 -84t109 -27q7 0 23 2l15 11q14 12 23 12
q12 0 21.5 -8.5t9.5 -20.5q0 -55 -106 -55q-65 0 -124 37t-103 106q3 -26 3 -50q0 -97 -35 -97q-23 0 -40 11.5t-17 33.5q-22 256 -32 338q-7 39 -7 51q0 25 18 47.5t46 22.5q45 0 45 -98q0 -23 -5 -50zM448 -55q0 -21 -11 -36t-30 -15q-27 0 -42.5 29t-21.5 98l-9 108
q-10 0 -23 9.5t-13 21.5q0 17 38.5 26.5t57.5 9.5q9 0 21 -9t16 -20q17 -207 17 -222zM306 286v-3q-4 9 -4 19q0 22 13 37t35 15q26 0 47 -22.5t21 -49.5q0 -23 -13.5 -38t-35.5 -15t-39.5 16t-23.5 41z" />
    <glyph glyph-name="k_o" unicode="ko" horiz-adv-x="566" 
d="M135 99q0 -79 77.5 -163t190.5 -138t213 -54q144 0 192 126q13 -25 13 -50q0 -61 -72 -97.5t-175 -36.5q-83 0 -187.5 52t-186.5 128.5t-109 145.5q5 -23 13.5 -56.5t13.5 -52.5t8.5 -41.5t3.5 -38.5q0 -59 -42 -59q-44 0 -61 12t-17 44q0 1 -8.5 113.5t-8.5 188.5
q0 36 8.5 91t8.5 67q0 18 26.5 56.5t42.5 38.5q10 0 14.5 -41.5t6 -116t3.5 -97.5q35 87 134 155.5t171 68.5q28 0 54 -13.5t26 -37.5q0 -10 -9.5 -20.5t-18.5 -10.5q-5 0 -13 4t-14.5 8.5t-12.5 9.5l-6 4q-79 -9 -157 -63.5t-122 -125.5zM454 214q57 -13 57 -124
q0 -107 -31 -165t-76 -58q-57 0 -83.5 45.5t-26.5 109.5q0 94 28.5 158t68.5 64q27 0 40.5 -15t22.5 -15zM406 -78h5q8 0 17.5 10t18.5 30t15 55t6 79q0 65 -30 65q-24 0 -40 -66.5t-16 -110.5q0 -56 24 -62z" />
    <glyph glyph-name="k_u" unicode="ku" horiz-adv-x="693" 
d="M139 14q1 2 19 35t35.5 69.5t33 91t15.5 101.5v25q21 0 37 -22.5t16 -60.5q0 -22 -7.5 -49.5t-25.5 -65.5t-27 -56.5t-35 -64t-27 -47.5q57 -96 131.5 -157t157.5 -61l21 22q21 21 31 21q9 0 20 -11t11 -24q0 -42 -33.5 -64.5t-72.5 -22.5q-73 0 -165 80t-134 185
q0 -85 -10.5 -139.5t-28.5 -54.5q-21 0 -41 14.5t-20 42.5q0 1 0.5 4t0.5 5q0 292 -3 460q-2 42 -2 58q0 46 25 73t69 27q5 0 7.5 -3.5t4.5 -14.5t3 -30.5t1 -52.5q0 -141 -15 -265q2 0 5 -19t3 -29zM534 26q-21 -96 -51 -142.5t-62 -46.5q-111 0 -111 417q0 68 72 68
q21 0 30.5 -23.5t9.5 -79.5v-4q0 -4 -0.5 -11t-1 -16.5t-1 -21t-1 -24.5t-0.5 -27.5v-28.5q0 -162 24 -162q23 0 50.5 85.5t29.5 153.5h1q1 1 1 3h-2q-15 11 -15 25q0 28 34 47h2q7 5 18 5q45 0 45 -41q0 -4 -1.5 -165.5t-1.5 -166.5q0 -10 3 -10q24 0 56 109.5t32 148.5
q9 0 16 -7.5t7 -20.5q0 -33 -16.5 -96t-48.5 -120.5t-65 -57.5q-26 0 -39.5 80.5t-13.5 129.5z" />
    <glyph glyph-name="l_i" unicode="li" horiz-adv-x="404" 
d="M390 -80q2 2 4 2q8 0 8 -14q0 -34 -35 -74t-97 -40q-16 0 -32.5 3t-31.5 8.5t-26.5 11t-24.5 14t-19.5 13t-17.5 13t-12 9.5q-4 -10 -21.5 -17t-38.5 -7q-11 0 -21.5 2.5t-21.5 12t-11 25.5q0 17 10 29.5t20 15.5q22 34 34 72.5t14 65t2 67.5q0 53 -4 117t-4 86
q0 37 20 56.5t72 22.5q19 0 19 -11l-1 -26q-1 -26 -2.5 -60t-4.5 -80t-7 -92.5t-9.5 -90.5t-13 -80.5t-16.5 -57.5q10 -19 53.5 -33.5t92.5 -14.5q97 0 123 52zM212 -24q1 11 27 217q-9 1 -20 11t-11 22q0 24 76 24q21 0 32 -1.5t21.5 -10t12.5 -25.5q-7 -59 -22.5 -139.5
t-19.5 -115.5q33 0 68.5 75t37.5 115q8 -1 14 -8t6 -18q0 -31 -16.5 -81.5t-52.5 -96.5t-79 -46q-75 0 -75 68q0 1 0.5 4.5t0.5 5.5zM245 350q0 25 15 41t42 16q33 0 77 -24q0 -29 -24 -64t-53 -35q-24 0 -39.5 19t-17.5 47z" />
    <glyph glyph-name="l_k" unicode="lk" horiz-adv-x="506" 
d="M481 -101q6 -4 6 -14q0 -31 -44 -72t-96 -41q-50 0 -135 34.5t-117 55.5q-4 -11 -24 -19.5t-42 -8.5q-18 0 -32.5 8.5t-14.5 27.5q0 18 9 30.5t19 15.5q17 41 23.5 108t9.5 125t13 113t43 87.5t91 32.5q-19 -38 -38 -148t-28 -185.5t-14 -135.5q11 -3 97.5 -35t133.5 -32
q100 0 140 53zM334 334q0 -1 -4 -12.5t-9 -30.5t-10.5 -42.5t-9.5 -53.5t-4 -57q117 35 117 129v18q19 0 34 -12.5t15 -34.5q0 -85 -136 -131q3 -5 17 -44t30 -72t28 -33q34 0 69 60.5t37 97.5q8 -1 14 -8t6 -18q0 -30 -16.5 -73t-52.5 -81t-79 -38q-17 0 -31.5 26.5
t-33 83.5t-24.5 71q-6 -56 -27.5 -102.5t-37.5 -46.5q-15 0 -29.5 8t-14.5 22v8q6 38 12.5 86.5t11 80t10 67.5t12 58t16 41t22.5 28t31 9q17 0 37 -4z" />
    <glyph glyph-name="l_u" unicode="lu" horiz-adv-x="573" 
d="M373 -131q-5 -55 -29 -77t-66 -22q-26 0 -57 7.5t-64 19.5t-40 14q-5 -11 -25.5 -19.5t-42.5 -8.5q-15 0 -30.5 10.5t-15.5 24.5q0 16 9 28t27 12q49 119 49 392q0 37 -1 76t-1 54q29 0 76 -32.5t47 -70.5q0 -95 -26.5 -218t-52.5 -198q11 -1 41 -5t60 -6.5t55 -2.5
q66 0 87 22zM431 -160q-39 8 -39 77q0 48 18 108q-26 -71 -63 -113.5t-69 -42.5q-26 0 -42.5 31.5t-16.5 93.5q0 70 4 126q2 28 3.5 45.5t2 23t0.5 12.5t1 15q4 42 66 42q30 0 30 -50q0 -18 -9 -56.5t-9 -132.5q0 -57 22 -57q14 0 24.5 30.5t19.5 76t13 57.5q14 76 66 76
q59 0 59 -22q0 -11 -16.5 -106.5t-16.5 -125.5q0 -24 9 -27q17 0 89 162q14 -6 14 -26q-21 -77 -71.5 -147.5t-82.5 -70.5q-4 0 -6 1z" />
    <glyph glyph-name="l_a" unicode="la" horiz-adv-x="533" 
d="M342 -80q0 12 9 118q-17 -57 -42 -92.5t-52 -35.5q-67 0 -67 114q0 57 15.5 112.5t48 95t75.5 39.5q34 0 48 -64q22 33 56 33q10 0 23.5 -5.5t13.5 -12.5q-16 -56 -28 -155.5t-12 -141.5q0 -18 8 -21q6 0 12 4.5t13 14.5t12.5 20.5t13.5 28t13.5 30.5t14.5 35.5t15 35.5
q6 -12 6 -29q0 -58 -54.5 -130t-101.5 -72q-40 0 -40 78zM430 -157q0 -104 -80 -104q-21 0 -43.5 7t-39 15t-42 27t-37 28.5t-40 35.5t-37.5 33q-24 -37 -53 -37q-31 0 -53.5 26t-22.5 63q0 47 38 47q14 0 42 -18q17 48 30.5 144.5t17.5 175.5q1 23 25 47.5t42 24.5
q16 0 16 -20q0 -72 -16 -209.5t-52 -216.5q117 -102 217 -102q54 0 88 33zM326 205q-19 0 -33 -78t-14 -133q0 -25 9 -25q11 0 22 29t25.5 81t25.5 79v7q-20 40 -35 40z" />
    <glyph glyph-name="l_e" unicode="le" horiz-adv-x="478" 
d="M-27 -125q0 21 11 32t24 11q11 0 32 -8q14 39 28.5 98.5t18.5 92.5q8 42 8 97q0 69 -17 102q-5 9 -5 22q0 18 13.5 31t35.5 13q74 0 74 -142q0 -81 -25 -179t-61 -166q129 -58 196 -58q119 0 160 89q6 -18 6 -38q0 -52 -35.5 -97t-76.5 -45q-42 0 -95.5 18t-90.5 37
t-92 51q-26 -34 -50 -34q-25 0 -42 20.5t-17 52.5zM315 -148q-56 0 -87.5 64.5t-31.5 138.5q0 87 42.5 156.5t111.5 69.5q45 0 67 -20t22 -52q0 -54 -44 -133.5t-98 -97.5q12 -81 47 -81q81 0 134 195q9 -13 9 -38q0 -39 -18.5 -84t-59.5 -81.5t-94 -36.5zM295 16v-12
q46 27 72.5 94t26.5 110q0 25 -20 25q-22 0 -50.5 -76.5t-28.5 -140.5z" />
    <glyph glyph-name="l_o" unicode="lo" horiz-adv-x="452" 
d="M348 228q-19 0 -36 -46q31 17 57 17t42 -18.5t16 -56.5q0 -118 -40 -198t-97 -80q-56 0 -84.5 60t-28.5 131q0 34 5 59q36 168 114 168q21 0 38 -12.5t17 -20.5q0 -3 -3 -3zM414 -118q0 -3 1 -7.5t1.5 -8.5t0.5 -8q0 -41 -25.5 -75.5t-65.5 -34.5q-51 0 -124.5 23
t-97.5 39q-5 -11 -26 -19.5t-44 -8.5q-17 0 -30.5 8t-13.5 26q0 19 16 35.5t36 22.5q40 93 40 304v75q0 46 22.5 80.5t46.5 34.5q35 0 35 -68q0 -71 -24 -215.5t-43 -223.5q22 -8 101.5 -21t103.5 -13q77 0 90 55zM368 140q-15 0 -40.5 -32.5t-25.5 -62.5q0 -24 19 -38
q-23 7 -40 19v-7q0 -39 9 -77.5t20 -38.5q22 0 49 80t27 126q0 31 -18 31z" />
    <glyph glyph-name="M_a" unicode="Ma" horiz-adv-x="889" 
d="M704 -271q-59 0 -99 59t-57 143.5t-26.5 168.5t-14.5 143t-13 59q-12 0 -24.5 -79.5t-12.5 -149.5q0 -1 12.5 -37.5t12.5 -55.5q0 -36 -39 -36q-73 0 -73 75q0 11 2 32t2 22q-13 97 -33 97q-13 0 -22 -43t-9 -110q-24 -27 -60 -27q-23 0 -39.5 13.5t-16.5 36.5
q0 43 15.5 103.5t15.5 110.5q0 35 -12 51t-41 16q-40 0 -74.5 -32t-34.5 -85q0 -27 14.5 -50.5t35.5 -23.5t40 18q2 0 2 -10q0 -46 -53 -46q-39 0 -74 26t-35 68q0 76 54 120.5t118 44.5q129 0 129 -233q2 56 17 85t36 29q22 0 41.5 -33t23.5 -87q2 20 4 51t3.5 49.5t4 44
t5.5 41t7.5 34t10.5 29t14.5 20.5t20 14.5t25.5 4.5q36 0 58 -44t29 -110t15.5 -143t17 -143t34 -110t66.5 -44q32 0 64.5 19t32.5 46q0 17 -16 37q2 2 4 2q49 0 49 -32q0 -40 -56.5 -94.5t-100.5 -54.5zM839 234q0 -6 -4.5 -37t-5.5 -54h36q8 0 8 -10q0 -17 -14 -17
q-10 0 -30 2q0 -86 40 -144q0 -13 -10.5 -22.5t-22.5 -11.5q-26 0 -37.5 48t-17.5 130q-15 -1 -26 -4.5t-17 -5.5t-12 -11t-7.5 -12t-6.5 -18t-7 -19h-1q-3 -12 -28 -12q-51 0 -51 70q0 54 31 117t57 75q21 10 42 10q36 0 60 -27t24 -47zM712 126q23 15 68 17
q-7 107 -21 107q-5 0 -13.5 -16t-18 -45.5t-15.5 -62.5z" />
    <glyph glyph-name="M_e" unicode="Me" horiz-adv-x="902" 
d="M418 112q26 64 72.5 113.5t80.5 49.5q42 0 42 -76q0 -36 -3 -133t-3 -140q0 -100 75 -125q5 -4 16 -4q30 0 63 13.5t33 39.5q0 11 -6 26q2 2 4 2q41 -11 41 -34q0 -35 -69.5 -78.5t-122.5 -43.5q-12 0 -18 2q-129 30 -129 170q0 62 29.5 168.5t29.5 127.5q0 22 -12 22
q-20 0 -51 -49t-34 -90q0 -1 2 -22t2 -32q0 -75 -73 -75q-39 0 -39 36q0 19 13 54.5t13 38.5q11 87 11 141q0 77 -23 77q-1 0 -3.5 -31t-8 -75.5t-15 -88.5t-28.5 -75t-44 -31q-23 0 -39.5 13.5t-16.5 36.5q0 44 15.5 109t15.5 110q0 125 -47 125q-29 0 -55 -50.5
t-26 -120.5q0 -25 11.5 -47t27.5 -22q17 0 32 17q1 0 1 -9q0 -22 -21.5 -41t-45.5 -19q-39 0 -74 26t-35 68q0 120 44 182t106 62q59 0 106 -52.5t54 -138.5q11 72 30 110.5t39 38.5q25 0 40 -34t15 -91q0 -66 -22 -151zM841 44q37 -18 37 -50q0 -34 -40 -62.5t-92 -28.5
q-104 0 -104 164q0 225 143 225q86 0 86 -103q0 -63 -45 -107t-86 -44q-7 0 -17 2v-14q0 -76 57 -76q25 0 43 27t18 67zM818 209q0 33 -16 33t-42 -58t-34 -119q33 11 62.5 51t29.5 93z" />
    <glyph glyph-name="M_i" unicode="Mi" horiz-adv-x="841" 
d="M10 215q0 -129 40 -197t85 -68q32 0 61 27.5t29 73.5q0 5 -1.5 12.5t-2.5 13.5t-1 7q-13 -41 -36 -41q-52 0 -66 164q-2 27 -2 39q0 66 15 110t37 44q13 0 33 -34.5t38.5 -97t24.5 -130.5q1 -13 1 -43t2 -49.5t7.5 -42t21 -34t40.5 -11.5q63 0 63 76q-2 36 -2 93
q0 146 12 146q10 0 24 -106t22 -224q1 -10 16 -16t29 -6q22 0 26 25q0 12 -3.5 37t-3.5 35q0 114 41 188q2 -28 2.5 -81t2 -90t6 -85.5t15 -81t26.5 -63t44 -46t65 -15.5q39 0 79.5 32t40.5 59q0 16 -25 34q-4 -29 -17 -40t-39 -11q-145 0 -145 437q-5 18 -19.5 32t-30.5 14
q-14 0 -25 -11t-18.5 -29.5t-12 -35t-8.5 -36.5l-5 -25q-11 80 -37.5 139.5t-51.5 59.5q-17 0 -32 -14.5t-28 -60.5t-15 -120q-17 122 -68.5 205.5t-111.5 83.5q-61 0 -101.5 -62.5t-40.5 -179.5zM801 -68q0 -19 -12 -35t-29 -16q-46 0 -56 133q-5 61 -5 218q-10 0 -22.5 11
t-12.5 23q0 31 104 31q10 0 21.5 -10.5t14.5 -24.5v-226q0 -61 -3 -104zM700 496q47 -13 69 -37.5t22 -51.5q0 -33 -23 -50t-52 -17q-32 0 -52 21t-20 47q0 50 56 88z" />
    <glyph glyph-name="M_o" unicode="Mo" horiz-adv-x="882" 
d="M311 147q7 121 37 183.5t65 62.5q57 0 57 -223q32 94 80 94q21 0 37.5 -18t16.5 -40q0 -20 -2 -56t-2 -52q0 -111 41.5 -170t99.5 -59q34 0 65.5 21.5t52.5 61.5q10 -23 10 -46q0 -52 -45.5 -90t-102.5 -38q-95 0 -146.5 77.5t-51.5 194.5q0 14 3 64t3 64q0 26 -10 26
q-12 0 -25.5 -59.5t-20.5 -141.5q-7 -67 -28 -67q-14 2 -33.5 10t-19.5 20q0 18 5 126t5 155q0 85 -8 85q-23 0 -45.5 -102.5t-25.5 -201.5q-9 -30 -24 -46t-31 -16q-28 0 -47.5 39t-19.5 112q0 51 -4 100t-13 101.5t-28.5 84.5t-46.5 32q-21 0 -38 -33.5t-17 -67.5
q0 -19 10 -29.5t25 -10.5q17 0 30 13t13 36q10 -10 10 -38q0 -43 -18 -66.5t-43 -23.5q-31 0 -55 33.5t-24 91.5q0 78 42.5 121.5t92.5 43.5q84 0 129 -101t45 -257zM773 267q-29 0 -41.5 -33.5t-12.5 -105.5q0 -50 4.5 -87.5t11.5 -55t15 -17.5q7 0 13 15t10 48.5t4 79.5
q0 95 -37 95q-7 0 -11 -2q16 22 39 22q46 0 69 -33t23 -85q0 -86 -36 -137t-83 -51q-46 0 -78.5 51t-32.5 147q0 77 28.5 137t63.5 60q30 0 51 -48z" />
    <glyph glyph-name="M_u" unicode="Mu" horiz-adv-x="974" 
d="M894 182q-36 -154 -36 -219q0 -43 16 -43q20 0 49.5 47t46.5 110q15 -6 15 -27q-13 -78 -53 -127t-78 -49q-33 0 -51 29.5t-18 82.5q0 39 9 88q-5 -13 -15 -36.5t-14.5 -35t-13 -30.5t-14 -28.5t-14 -23t-16 -20t-16.5 -13.5t-19.5 -9.5t-22.5 -2.5q-30 0 -41.5 24
t-11.5 70q0 26 6 83.5t6 81.5q0 34 -16.5 57.5t-44.5 23.5q-26 0 -61 -25q0 2 -0.5 8t-0.5 8q0 35 23 52t57 17q61 0 101.5 -46t40.5 -104q0 -20 -8.5 -79.5t-8.5 -75.5q0 -15 4 -16q24 0 51.5 56t54.5 137.5t34 96.5q10 2 25 2q37 0 37 -38q0 -6 -2 -26zM349 -44
q7 20 17 66t10 72q0 51 -10 55q-5 0 -15.5 -24t-26 -72t-29.5 -107q-1 -6 -1.5 -15t-1 -14t-1.5 -12t-2 -11.5t-2.5 -9.5t-3.5 -7.5t-4.5 -5.5t-6.5 -4t-8 -1q-10 0 -29 7q-59 22 -59 60q0 6 1.5 13t4 12.5t2.5 6.5q45 119 71.5 249.5t26.5 204.5q0 75 -16 75q-24 0 -57 -38
t-59 -106q-32 -88 -32 -142q0 -47 31 -47q19 0 40 25q-8 -47 -37.5 -70.5t-62.5 -23.5q-45 0 -67 29t-22 77q0 62 36 156q38 102 94.5 155t110.5 53q53 0 85 -64.5t32 -163.5q0 -67 -13 -123q44 73 81 73q15 0 26 -24t11 -59q0 -41 -13 -79q37 56 64 56q33 0 47.5 -22
t14.5 -55q0 -28 -10 -83t-10 -76q0 -146 125 -146q54 0 100 36q-37 -51 -70.5 -72t-71.5 -21q-19 0 -41 9q-113 42 -113 174q0 35 9 90t9 68q0 22 -10 23q-6 0 -24 -52t-42.5 -104.5t-48.5 -52.5q-35 4 -35 39q2 10 6 23z" />
    <glyph glyph-name="p_e" unicode="pe" horiz-adv-x="610" 
d="M97 -246q-5 -39 -35 -65t-69 -26q-49 0 -49 67q0 30 12 51.5t22.5 29.5t31.5 21q28 94 50 385q11 9 28 9q27 0 46.5 -28t19.5 -95q0 -59 -20 -179q45 9 67.5 50.5t22.5 97.5q0 72 -34 130t-88 58q-50 0 -100 -47q-6 -3 -16 -3q-14 0 -23 10.5t-9 25.5q0 33 41 59t94 26
q61 0 104.5 -36t62 -88.5t18.5 -115.5q0 -88 -36.5 -153.5t-98.5 -65.5q-5 0 -13 2q-2 -11 -4 -23.5t-3 -16.5l-1 -5q34 9 164 9q37 0 71.5 -5t68.5 -15.5t55 -32.5t21 -51q0 -25 -17 -41t-27 -16q-18 30 -97 58t-169 28q-52 0 -91 -9zM535 186q0 -60 -36.5 -98.5
t-82.5 -40.5q5 -73 29.5 -115.5t59.5 -44.5q20 0 50 58t58 157q13 -7 13 -29q0 -37 -24 -97.5t-61 -109.5t-67 -49q-9 0 -27 8t-43.5 28t-48 48.5t-38.5 76.5t-16 104q0 225 141 225q46 0 69.5 -31.5t23.5 -89.5zM461 254q-11 0 -21.5 -20t-17.5 -60t-7 -90q63 53 63 125
q0 45 -17 45z" />
    <glyph glyph-name="p_p" unicode="pp" horiz-adv-x="545" 
d="M331 238q3 8 4 10h-6q-15 0 -23 -1q-27 5 -27 30q0 21 20.5 37.5t54.5 16.5q84 0 133 -46t49 -131t-43.5 -153.5t-89.5 -88.5l-6 -30q-5 -39 -34.5 -70.5t-58.5 -31.5q-40 0 -40 24v2q30 66 67 432zM59 207q-27 5 -27 29q0 20 21.5 37t55.5 17q156 0 156 -156
q0 -89 -40 -150.5t-88 -61.5q-5 0 -7 1q-19 -107 -44 -107q-20 0 -42 9t-22 21q0 7 5 36t7 48zM474 130q0 35 -24 66t-67 44q33 -66 33 -192q0 -42 -4 -78q54 52 62 151v9zM114 214q-3 0 -9 -0.5t-10 -0.5q50 -28 50 -122q0 -19 -8 -116l-2 -12q24 29 44.5 70.5t23.5 59.5
q1 7 1 21q0 100 -90 100z" />
    <glyph glyph-name="p_i" unicode="pi" horiz-adv-x="562" 
d="M202 -109q-21 0 -38 14q-14 -72 -44 -123q18 5 76 12.5t96 7.5q69 0 119 -18.5t50 -58.5q0 -22 -18 -38.5t-27 -16.5q-18 25 -93 42.5t-147 17.5q-61 0 -78 -13q-5 -36 -38 -61.5t-74 -25.5q-40 0 -40 52q0 24 9 42.5t19 27t28 19.5q30 22 58 129.5t28 222.5q0 18 -2 52
q-1 2 -10 19t-14 30t-5 25q0 3 -0.5 9.5t-0.5 9.5q0 21 19.5 31.5t81.5 10.5q80 0 128.5 -51t48.5 -127q0 -110 -43 -175.5t-89 -65.5zM434 -166q-37 0 -51.5 18.5t-14.5 56.5q0 19 15 139q-10 0 -21 9.5t-11 20.5q0 31 108 31q10 0 21 -10.5t13 -22.5q-2 -20 -5 -36.5
t-10.5 -51.5t-15.5 -77q16 0 49 60t52 131q14 -8 14 -29q0 -61 -49 -150t-94 -89zM150 236q-8 0 -18 -2q46 -43 46 -189q0 -45 -6 -92q86 25 86 148q0 70 -31 102.5t-77 32.5zM383 205q1 28 14.5 46.5t40.5 18.5q26 0 45 -21t19 -47q0 -25 -17.5 -42t-42.5 -17
q-23 0 -39 17.5t-20 44.5z" />
    <glyph glyph-name="T_h" unicode="Th" horiz-adv-x="817" 
d="M484 356q0 82 36 131.5t81 49.5q55 0 85 -29t30 -72q0 -42 -30 -82.5t-86 -65.5q-2 -190 -2 -212q9 60 22.5 103.5t29 64t28 29.5t23.5 9q22 0 37.5 -37.5t29 -144t25.5 -298.5q123 -9 198 -54t75 -130q0 -12 -1.5 -21.5t-10 -25t-24 -26t-47.5 -18.5t-76 -8
q-84 0 -140 50t-77 133q-154 -6 -282 -37t-138 -71q-4 -16 -4 -28q0 -24 9.5 -43.5t28.5 -19.5q14 0 32 13q2 -1 2 -7q0 -18 -11 -28.5t-20 -10.5q-8 0 -18 3.5t-23.5 13t-22.5 31t-9 51.5q0 38 12 81q13 54 145.5 99.5t288.5 53.5q0 80 3.5 201.5t3.5 125.5q0 72 -9 72
q-11 0 -34 -78t-48 -200q-5 -30 -28 -30q-38 0 -56 15.5t-18 36.5q-7 204 -9 316q-10 -1 -30 -1h-56q19 -33 19 -107q0 -272 -67 -272q-17 0 -40 20q-4 46 -10 181t-9 182h-19q-92 0 -139.5 -22.5t-47.5 -88.5q0 -33 21.5 -64t52 -57.5t60.5 -56t51.5 -74t21.5 -97.5
q0 -20 -12.5 -53.5t-29.5 -33.5q-7 0 -11 8q16 16 16 31q0 23 -26.5 52.5t-64 61t-75 66t-64 80t-26.5 91.5q0 70 17.5 117t52 71t75 33.5t97.5 9.5q41 0 126 -7t116 -8v32zM1034 -392q0 81 -231 94q14 -62 52 -103t98 -41q27 0 54 13.5t27 36.5zM623 512q-23 0 -23 -183
q36 13 55 44t19 65q0 31 -14 52.5t-37 21.5z" />
    <glyph glyph-name="T_l" unicode="Tl" horiz-adv-x="546" 
d="M219 -258q-1 36 -10.5 95t-19.5 110.5t-28.5 143t-28.5 145.5q-108 -13 -108 -104q0 -60 46 -94q-14 -2 -20 -2q-46 0 -75.5 46.5t-29.5 106.5q0 55 43.5 96t120.5 41h10q4 52 27 52q28 0 60 -67q64 -12 141 -14q6 164 84 164q66 0 98.5 -17t32.5 -46q0 -32 -30 -71
t-86 -65q1 -28 1.5 -91.5t1 -113t2.5 -101.5t7 -81.5t12 -29.5q19 0 45 98.5t29 168.5q6 0 13.5 -12t7.5 -28q0 -58 -21 -141.5t-53.5 -147t-59.5 -63.5q-85 0 -85 511v1q-40 -5 -77 -5q-21 0 -32 1q39 -133 39 -301q0 -81 -15.5 -133t-41.5 -52zM442 322q0 -1 0.5 -2.5
t1 -4t0.5 -4.5q30 16 52 43.5t22 47.5q0 24 -32 24q-16 0 -30 -29t-14 -75z" />
    <glyph glyph-name=".notdef" horiz-adv-x="215" 
 />
    <glyph glyph-name=".null" horiz-adv-x="0" 
 />
    <glyph glyph-name="nonmarkingreturn" horiz-adv-x="333" 
 />
    <glyph glyph-name="space" unicode=" " horiz-adv-x="215" 
 />
    <glyph glyph-name="exclam" unicode="!" horiz-adv-x="158" 
d="M42 421q0 18 13 27.5t29 9.5q58 0 58 -100q0 -24 -7 -70l-9 -36q-3 -22 -7.5 -47t-7 -42.5t-2.5 -39.5q0 -7 3.5 -22.5t6.5 -28.5t3 -14q0 -8 -10 -14.5t-20 -6.5q-24 0 -36.5 15t-15 31.5t-2.5 44.5q0 22 2 145.5t2 147.5zM99 3q14 0 26 -15.5t12 -31.5q0 -21 -17 -37
t-37 -16q-21 0 -31 15.5t-10 32.5q0 23 17.5 37.5t39.5 14.5z" />
    <glyph glyph-name="quotedbl" unicode="&#x22;" horiz-adv-x="182" 
d="M15 279v75q0 34 5 50t10 18t17 2q15 0 19 -16t4 -51v-75q0 -26 -8.5 -48t-17.5 -22q-29 0 -29 67zM167 357v-75q0 -29 -7.5 -49.5t-20.5 -20.5q-14 0 -21.5 19.5t-7.5 47.5v75q0 32 4.5 48t10 19t16.5 3q18 0 22 -15t4 -52z" />
    <glyph glyph-name="numbersign" unicode="#" horiz-adv-x="367" 
d="M313 203l-2 -4q46 -11 46 -35q0 -32 -23 -32q-11 0 -41 5q-7 -18 -12 -39l-5 -18q40 -14 40 -36q0 -11 -7 -19.5t-19 -8.5q-11 0 -31 2l-34 -137l-13 -4q-25 0 -25 32q0 20 23 114l-74 1l-35 -143l-15 -4q-14 0 -29 8t-15 25q0 26 23 113l-20 -5q-32 0 -32 32q0 19 67 32
l17 55l-10 -2q-15 0 -22.5 9.5t-7.5 21.5q0 20 59 29l2 7q11 34 25 59.5t24 36t16 10.5q18 0 25 -36l-21 -68h74q36 95 44 102q2 2 4 2q19 0 26 -36zM155 99l-4 -12h78l15 53l-78 1q-1 -11 -11 -42z" />
    <glyph glyph-name="dollar" unicode="$" horiz-adv-x="338" 
d="M151 -2q8 -1 23 -1q12 0 21 6.5t9 18.5t-31 34t-59 35q-35 17 -53 35.5t-20.5 29.5t-2.5 29q0 69 120 133q0 17 -1 30t-3 23t-2 14l7 12l18 4l16 -4q9 -19 9 -60q13 5 30 5q31 0 53.5 -13.5t22.5 -32.5q-3 -39 -13 -67t-19.5 -38.5t-17.5 -10.5q-4 0 -4 5q-4 19 -6 38.5
t-2.5 30t-1.5 19t-4 12t-9 3.5q-26 0 -60.5 -24t-34.5 -47q0 -18 27 -36.5t59 -34t59 -45.5t27 -68q0 -73 -113 -88q0 -27 3 -54l-6 -11q-12 -4 -17 -4q-15 0 -19.5 15.5t-4.5 53.5q-43 0 -80 19t-37 45q0 14 9.5 24t22.5 10l9 -2q20 -26 32.5 -33t43.5 -10z" />
    <glyph glyph-name="percent" unicode="%" horiz-adv-x="351" 
d="M141 -144q-78 16 -78 60q0 54 25 123t75.5 168.5t60.5 121.5q10 13 32 13q27 0 27 -27q0 -9 -35.5 -97t-71 -196.5t-35.5 -165.5zM115 305q26 0 26 -68q0 -43 -16 -77.5t-45 -34.5q-32 0 -53 37v-1q-16 32 -16 73q0 55 22 78t52 23q17 0 27 -31h1q1 1 2 1zM291 20
q6 8 22 8q14 0 14 -32q0 -38 -19 -77t-48 -39q-31 0 -50 37v-2q-15 29 -15 69q0 45 24.5 75t56.5 30q39 0 47 -38q-30 0 -55 -19t-25 -52q0 -46 17 -46q14 0 22.5 27t8.5 59zM90 281q-28 0 -28 -51q0 -49 17 -49q21 0 23 96q-5 4 -12 4z" />
    <glyph glyph-name="ampersand" unicode="&#x26;" horiz-adv-x="355" 
d="M282 -144q-36 0 -89 47q-46 -41 -72 -41q-40 0 -68 31.5t-28 83.5q0 47 47 97q-31 72 -31 135q0 82 39.5 132.5t92.5 50.5q45 0 73 -32.5t28 -82.5q0 -67 -59 -121l-53 -58q27 -50 60 -85q19 31 19 56q0 7 -10 45q1 10 10 17t18 7q15 0 24.5 -20.5t9.5 -53.5
q0 -35 -37 -86q16 -14 38.5 -22t31.5 -16.5t9 -33.5q0 -16 -15 -33t-38 -17zM220 246q0 12 -8 22.5t-22 10.5q-22 0 -37.5 -29.5t-15.5 -60.5q0 -23 7 -45q76 69 76 102zM100 19q-18 -26 -18 -47q0 -19 10.5 -30.5t27.5 -11.5q13 0 34 13q-28 31 -54 76z" />
    <glyph glyph-name="quotesingle" unicode="'" horiz-adv-x="114" 
d="M24 406q7 12 33 12q14 0 22.5 -6.5t12 -23.5t4 -30.5t0.5 -41.5q0 -107 -37 -107q-26 0 -35 15.5t-9 58.5q0 113 9 123z" />
    <glyph glyph-name="parenleft" unicode="(" horiz-adv-x="246" 
d="M214 -114q-13 -29 -33 -29q-64 0 -108 80.5t-44 186.5q0 122 51 223.5t120 101.5q21 0 21 -28q-38 -3 -61 -85t-23 -190q0 -100 20 -174.5t57 -85.5z" />
    <glyph glyph-name="parenright" unicode=")" horiz-adv-x="201" 
d="M23 426q0 6 4.5 14.5t12.5 8.5q35 0 70.5 -47t57.5 -118t22 -138q0 -63 -30 -142.5t-66 -131.5t-57 -52q-24 0 -24 29q38 17 55 107t17 196q0 89 -17 175.5t-45 98.5z" />
    <glyph glyph-name="asterisk" unicode="*" horiz-adv-x="243" 
d="M36 213l-2 -1q-16 3 -16 22q0 25 72 59q-60 33 -60 57q0 9 5.5 16t14.5 7q18 -12 20 -14l32 -30q0 40 6.5 54.5t23.5 14.5q22 0 22 -14q0 -6 -4.5 -30t-4.5 -32q43 35 62 35t19 -21q0 -11 -29 -26l-15 -8q-5 -3 -11 -7t-9 -5q4 -5 7 -7l25 -19q28 -22 28 -34
q0 -8 -5.5 -13.5t-12.5 -5.5q-9 0 -31.5 17t-28.5 27q0 -3 -0.5 -7t-0.5 -6q0 -6 2.5 -30.5t2.5 -27.5q0 -15 -16 -15q-21 0 -28 21t-7 62v3l-29 -18z" />
    <glyph glyph-name="plus" unicode="+" horiz-adv-x="330" 
d="M37 54l-14 8l-6 20q0 26 20 38t74 16q2 129 74 129q4 0 10 -1l6 -2l10 -13q-14 -65 -16 -112q67 0 84 -8t17 -30q0 -7 -2 -17t-2 -12l-11 -10q-17 0 -43 1.5t-43 1.5q-1 -27 -1 -55q0 -22 5 -45l-8 -14l-18 -7q-28 0 -42.5 25t-18.5 96q-40 -1 -75 -9z" />
    <glyph glyph-name="comma" unicode="," horiz-adv-x="132" 
d="M53 -68q-18 0 -31.5 14.5t-13.5 35.5q0 30 21 45t46 15q20 0 35.5 -13.5t15.5 -40.5q0 -90 -41 -179t-67 -89q-12 0 -12 19q1 1 8 11.5t10.5 16.5t10 22t9.5 33.5t6 46t3 63.5z" />
    <glyph glyph-name="hyphen" unicode="-" horiz-adv-x="270" 
d="M23 70q0 21 30.5 38.5t93.5 17.5q65 0 82 -5t17 -23q0 -20 -20.5 -39.5t-63.5 -19.5q-47 0 -77.5 -3t-42.5 -3q-8 0 -13 9.5t-5 18.5z" />
    <glyph glyph-name="period" unicode="." horiz-adv-x="227" 
d="M119 65q27 0 45 -15t18 -41q0 -36 -21 -63.5t-49 -27.5q-27 0 -45.5 17t-18.5 46q0 34 19.5 59t51.5 25z" />
    <glyph glyph-name="slash" unicode="/" horiz-adv-x="283" 
d="M226 398q12 0 27.5 -14.5t15.5 -24.5q0 -37 -54 -136t-108 -197t-54 -133q-5 0 -14.5 9.5t-18.5 30t-9 44.5q0 26 50 108.5t104 175t61 137.5z" />
    <glyph glyph-name="zero" unicode="0" horiz-adv-x="218" 
d="M134 353q14 0 26 -12q63 -64 63 -225q0 -101 -17 -192t-51 -91q-31 0 -52.5 5.5t-41.5 22.5t-31.5 47t-18 80t-6.5 122q0 99 27 181.5t74 82.5q7 0 28 -21zM134 -123q22 0 29 58t7 167q0 177 -35 177q-31 0 -31 -185q0 -83 9 -150t21 -67z" />
    <glyph glyph-name="one" unicode="1" horiz-adv-x="229" 
d="M6 172q5 5 19 45t27 83.5t15 47.5q4 11 33 21t50 10q4 0 10 -2t14.5 -12.5t8.5 -27.5q3 -126 3 -326l-1 -119q17 0 26.5 -8.5t9.5 -20.5q0 -16 -9.5 -19.5t-38.5 -3.5h-113q-30 0 -39.5 7t-9.5 30q0 15 28 15h45l-2 378q-3 -3 -9 -29t-18 -60t-29 -54q-6 -4 -8 -4
q-7 0 -14 9t-7 18q0 10 9 22z" />
    <glyph glyph-name="two" unicode="2" horiz-adv-x="220" 
d="M44 150q6 -24 6 -26q0 -10 -6.5 -17t-15.5 -7q-37 0 -37 89q0 85 29.5 133.5t62.5 48.5q49 0 88 -39.5t39 -109.5q0 -39 -29.5 -167t-45.5 -173q2 1 29.5 3.5t29.5 2.5q12 -1 21 -9.5t9 -19.5q0 -32 -84 -32q-132 0 -132 43q0 12 10 23q18 18 51 148.5t33 182.5
q0 37 -12 66.5t-23 29.5q-3 0 -9.5 -14.5t-13 -43t-6.5 -58.5q0 -31 6 -54z" />
    <glyph glyph-name="three" unicode="3" horiz-adv-x="219" 
d="M49 220q0 -15 -16 -15q-12 0 -24 9t-12 21q0 64 31.5 98.5t74.5 34.5q44 0 79.5 -32.5t35.5 -85.5q0 -56 -56 -137q47 -74 47 -123q0 -68 -28 -113t-85 -45q-30 0 -52.5 22t-22.5 49q0 46 31 46q32 0 32 -30q0 -27 16 -27q38 0 38 60q0 46 -28.5 85t-58.5 39t-30 19
q0 13 5 26.5t16 13.5q1 0 5.5 -0.5t6.5 -0.5q32 0 54 38t22 69q0 41 -14 63t-29 22q-16 0 -28.5 -22.5t-12.5 -57.5q0 -12 3 -26z" />
    <glyph glyph-name="four" unicode="4" horiz-adv-x="242" 
d="M138 -98v96q-12 -5 -65 -5q-42 0 -51 17t-9 76q0 156 14 276q1 10 12.5 19t31.5 9q14 0 26 -11t12 -20q-15 -293 -15 -298q1 0 22 0.5t22 0.5v243q1 16 15 25.5t27 9.5q12 0 20.5 -9.5t8.5 -27.5q0 -13 -4 -121.5t-7 -121.5q39 0 39 -30q0 -10 -5.5 -14.5t-15.5 -7
t-14 -5.5q0 -90 -5 -130q0 -31 -29 -31q-30 0 -30 60z" />
    <glyph glyph-name="five" unicode="5" horiz-adv-x="199" 
d="M9 156q0 91 18.5 165.5t59.5 78.5l86 4q45 0 45 -22q0 -42 -63 -42q-21 0 -30.5 -54t-9.5 -120q82 -36 82 -145q0 -81 -55.5 -157t-114.5 -76q-24 0 -35 32q46 10 72 70t26 124q0 77 -49 93q-6 2 -12.5 6.5t-13 16t-6.5 26.5z" />
    <glyph glyph-name="six" unicode="6" horiz-adv-x="230" 
d="M203 331q-46 -85 -68 -155q38 -14 61 -65.5t23 -109.5q0 -57 -21.5 -103t-61.5 -46q-62 0 -91.5 56.5t-29.5 137.5t27.5 172.5t59.5 134.5q26 33 71 33q16 0 28.5 -10.5t12.5 -21.5q0 -4 -11 -23zM139 -94q13 0 20.5 29t7.5 63q0 38 -11 76.5t-31 59.5q-9 -30 -9 -126
q0 -102 23 -102z" />
    <glyph glyph-name="seven" unicode="7" horiz-adv-x="218" 
d="M43 37h43l32 266h-40q-2 -15 -13 -143q1 -5 1 -13q0 -27 -25 -27q-33 5 -33 54l13 189q4 22 23 22q15 0 23.5 -13t18.5 -13q5 0 37 3.5t44 3.5q41 0 41 -46q0 -40 -12.5 -159.5t-12.5 -122.5q0 -1 5.5 -3t11.5 -8t6 -17q0 -22 -31 -22q0 -5 -5 -63t-7 -63q-2 -17 -31 -17
q-24 0 -38.5 11.5t-14.5 21.5q0 27 9 111h-44q-16 0 -30.5 7.5t-14.5 21.5q0 19 44 19z" />
    <glyph glyph-name="eight" unicode="8" horiz-adv-x="245" 
d="M79 79l-9 13q-55 106 -55 179q0 55 49.5 87.5t102.5 32.5q73 0 73 -78q0 -41 -18.5 -90.5t-42.5 -83.5l-14 -16q64 -118 64 -183q0 -41 -28 -68t-87 -27q-31 0 -59 26.5t-28 60.5q0 30 16.5 79.5t35.5 67.5zM64 -66q0 -15 8.5 -26.5t22.5 -11.5q15 0 23 15.5t8 35.5
q0 42 -31 104q-12 -13 -21.5 -57t-9.5 -60zM197 302q0 33 -42 33q-18 0 -29 -20.5t-11 -51.5q0 -51 26 -96q2 4 8.5 16.5t9 17t8.5 15.5t8.5 16.5t6.5 15.5t6 15.5t4.5 13.5t3.5 14t1 11z" />
    <glyph glyph-name="nine" unicode="9" horiz-adv-x="243" 
d="M121 377q44 0 71 -35.5t35.5 -80.5t8.5 -101q0 -144 -30 -230.5t-87 -86.5q-37 0 -66 38.5t-29 103.5q0 33 11.5 52.5t30.5 19.5q22 0 22 -23q0 -12 -1.5 -31t-1.5 -25q0 -65 21 -65q32 0 49 62.5t21 138.5q-19 -33 -53 -33q-55 0 -84 40.5t-29 97.5q0 62 30.5 110
t80.5 48zM173 174q2 -2 3 -2q-3 131 -30 131q-15 0 -23.5 -22t-8.5 -52q0 -31 9.5 -54t25.5 -23q9 0 24 22z" />
    <glyph glyph-name="colon" unicode=":" horiz-adv-x="165" 
d="M87 272q19 0 35.5 -20t16.5 -47q0 -34 -14 -53t-39 -19q-22 0 -37 13.5t-15 35.5q0 30 15.5 60t37.5 30zM93 64q21 0 36.5 -12.5t15.5 -33.5q0 -29 -18 -58t-41 -29q-22 0 -37 13.5t-15 35.5q0 29 17 56.5t42 27.5z" />
    <glyph glyph-name="semicolon" unicode=";" horiz-adv-x="178" 
d="M83 -57q-46 0 -46 63q0 36 14 56t35 20q23 0 41.5 -16t18.5 -49q0 -74 -25 -151t-56 -77q-15 0 -28 21q13 22 28 63t18 70zM48 248q21 34 49 34q21 0 34 -20t13 -45q0 -36 -20 -63t-45 -27q-22 0 -35 19t-13 43q0 31 17 59z" />
    <glyph glyph-name="less" unicode="&#x3c;" horiz-adv-x="318" 
d="M68 37q-53 27 -53 80q0 16 4.5 28t9.5 13q47 11 119 39.5t114 55.5q10 9 14 9q11 0 18 -10t7 -25q0 -18 -54.5 -47t-148.5 -60q36 -15 75 -26.5t60 -17t39.5 -14.5t26 -23t7.5 -39q0 -31 -16 -31q-31 0 -119 29t-103 39z" />
    <glyph glyph-name="equal" unicode="=" horiz-adv-x="334" 
d="M140 44h85q48 0 69.5 -17t21.5 -39q0 -14 -7.5 -25t-17.5 -11l-120 9l-76 -2q-57 -2 -57 50q0 35 102 35zM140 167h49q68 0 94.5 -6.5t26.5 -23.5q0 -12 -5 -29.5t-14 -17.5h-229q-10 0 -17 18.5t-7 30.5q0 28 102 28z" />
    <glyph glyph-name="greater" unicode="&#x3e;" horiz-adv-x="287" 
d="M18 226q0 15 5.5 26t14.5 11q5 0 15 -9q41 -29 101 -59t101 -40q15 -3 15 -50q0 -33 -7 -43q-16 -12 -107 -53t-119 -41q-10 0 -21 16t-11 30q0 17 10 34t27 17q42 0 153 50q-83 32 -130 61.5t-47 49.5z" />
    <glyph glyph-name="question" unicode="?" horiz-adv-x="244" 
d="M61 150q-6 0 -15.5 10t-18 31.5t-8.5 46.5q0 55 38.5 105.5t87.5 50.5q40 0 62.5 -31t22.5 -69q0 -24 -4 -51t-7.5 -44.5t-15 -50.5t-15.5 -43t-20.5 -51t-18.5 -46q-9 0 -18.5 17.5t-9.5 29.5t21 80t21 106q0 19 -7.5 30.5t-20.5 11.5q-19 0 -39.5 -33t-34.5 -100z
M179 -15q7 -20 7 -39q0 -35 -20 -59.5t-37 -24.5q-13 0 -23 13t-10 26q0 79 83 84z" />
    <glyph glyph-name="at" unicode="@" horiz-adv-x="591" 
d="M386 -82q-10 -49 -40.5 -73t-71.5 -24q-118 0 -179 67t-61 166q0 70 27.5 129t72 96.5t99 58t109.5 20.5q95 0 160 -58.5t65 -168.5q0 -60 -39.5 -110.5t-92.5 -50.5q-61 0 -74 100q-9 -36 -29.5 -66t-47.5 -30q-63 0 -63 63q0 45 32 90t70 45q10 0 21 -7t11 -11
q-23 -3 -38 -35.5t-15 -60.5q0 -20 9 -20q16 0 31 31t16 54q0 71 36 71q9 0 16 -5t7 -10v-50q0 -106 39 -106q19 0 34.5 29t15.5 70q0 76 -41 115t-102 39q-79 0 -143.5 -59t-64.5 -155q0 -70 41.5 -119t118.5 -49q39 0 71 24z" />
    <glyph glyph-name="A" unicode="A" 
d="M165 334q-24 -2 -58 -21q-4 -17 -21 -17q-11 0 -19 22.5t-8 36.5q0 31 47 48.5t112 17.5q32 0 60.5 -14.5t29.5 -37.5q1 -17 9.5 -165t13.5 -186l7 -48q6 -27 8 -27l5 1q5 2 9 2q14 0 22 -11t8 -24q0 -15 -12 -23t-24 -8q-29 0 -46.5 29.5t-28.5 98.5h-70
q-20 -65 -44.5 -95.5t-69.5 -30.5q-41 0 -66.5 26.5t-25.5 61.5q0 30 21 58t45 28q8 0 15.5 -9t7.5 -17q0 1 -3 -2.5t-6.5 -9t-7.5 -12t-7 -13.5t-3 -11q0 -8 10 -8q26 0 58 150.5t32 209.5zM269 66l-14 260q-6 9 -9 9q-8 0 -14 -89q-1 -26 -5 -100l-5 -81z" />
    <glyph glyph-name="B" unicode="B" horiz-adv-x="334" 
d="M126 -93q-14 -40 -66 -40q-35 0 -60.5 18t-25.5 53q0 36 30 36q15 0 20.5 -12t5 -24.5t0.5 -12.5q9 1 17 103.5t8 172.5q0 27 -1 37q3 81 81 87q25 0 25 -110q0 -5 -0.5 -17.5t-0.5 -20.5q29 3 46 34t17 70q0 36 -14 60t-40 24q-17 0 -35.5 -5.5t-42 -24.5t-42 -48.5
t-33.5 -83.5t-19 -124q-24 0 -36.5 21.5t-12.5 56.5q0 39 15 84t42.5 85.5t73 67.5t98.5 27q57 0 91 -39.5t34 -92.5q0 -44 -26.5 -79t-76.5 -45q69 -17 101 -65.5t32 -105.5q0 -51 -36 -99.5t-93 -48.5q-37 0 -52.5 11t-15.5 38q6 -1 16 -1q49 0 74 29.5t25 73.5
q0 48 -26 87.5t-67 44.5q-9 -135 -30 -222z" />
    <glyph glyph-name="C" unicode="C" horiz-adv-x="303" 
d="M312 74q-13 -110 -59.5 -174.5t-108.5 -64.5t-105.5 59t-43.5 170q0 150 41 236t122 86q39 0 60.5 -24t21.5 -65q0 -43 -12 -118t-33 -75q-13 0 -23 10.5t-10 24.5q0 9 11 82.5t11 87.5q0 16 -8 16q-1 0 -3 -1t-3 -1q-39 -15 -59.5 -110.5t-20.5 -170.5
q0 -86 17.5 -128.5t46.5 -42.5q38 0 76.5 60t71.5 168q10 -10 10 -25z" />
    <glyph glyph-name="D" unicode="D" horiz-adv-x="350" 
d="M77 246q0 34 13.5 52t32.5 18q24 0 43.5 -23t19.5 -61q0 -9 -9.5 -132.5t-9.5 -145.5q0 -5 9 -13t20 -8q32 0 53.5 71.5t21.5 149.5q0 86 -31.5 143t-95.5 57q-50 0 -78.5 -39.5t-28.5 -116.5h-1q8 -7 8 -21q0 -11 -11 -18.5t-24 -7.5q-18 0 -29.5 16.5t-11.5 33.5
q0 106 53.5 160.5t120.5 54.5q94 0 141 -73t47 -183q0 -65 -14.5 -129.5t-43 -110.5t-64.5 -46q-30 0 -50 23q-7 -9 -30.5 -19t-45.5 -10q-27 0 -57.5 20t-30.5 38q0 16 7 23t16 7q5 0 10.5 -3.5t14 -11t9.5 -7.5v1q0 1 6.5 70.5t13 146t6.5 94.5z" />
    <glyph glyph-name="E" unicode="E" horiz-adv-x="274" 
d="M194 279v14q0 29 -14 47.5t-28 18.5q-21 0 -31.5 -16.5t-10.5 -41.5q0 -41 18 -85t45 -44q24 0 38.5 -13.5t14.5 -30.5q0 -15 -12 -25t-35 -10q-37 0 -57 -27.5t-20 -76.5q0 -50 18.5 -84.5t53.5 -34.5q22 0 28 23l1 8l-1 -1l-1 3q-1 3 -2.5 8.5t-1.5 12.5q0 26 27 26
q19 0 30.5 -17.5t11.5 -36.5q0 -39 -31.5 -63.5t-76.5 -24.5q-78 0 -119.5 51t-41.5 126q0 48 18.5 82t59.5 71q-33 17 -51.5 62t-18.5 84q0 53 37.5 93t101.5 40q56 0 83.5 -35t27.5 -91q0 -76 -55 -76q-15 0 -22.5 9t-7.5 21q0 28 24 34z" />
    <glyph glyph-name="F" unicode="F" horiz-adv-x="242" 
d="M114 349v-139l60 -1q12 0 22 -17.5t10 -41.5h-90q-15 -176 -31.5 -240t-58.5 -64q-16 0 -30 8q16 18 16 56q0 6 -0.5 18.5t-0.5 20.5v409q0 21 9.5 34t28.5 18t33 6.5t37 1.5q41 0 64 -9.5t23 -21.5q0 -26 -5.5 -32t-30.5 -6h-56z" />
    <glyph glyph-name="G" unicode="G" horiz-adv-x="335" 
d="M169 118q0 37 59 37q61 0 61 -29q0 -10 -3.5 -162t-3.5 -162q0 -108 -52 -108q-18 0 -28.5 8.5t-10.5 19.5q0 10 8.5 17t23.5 7q10 0 10 23q0 5 -6 35t-13.5 62.5t-8.5 37.5q-29 -28 -68 -28q-60 0 -90 57.5t-30 146.5q0 81 22 160.5t64.5 135t93.5 55.5q42 0 68.5 -35.5
t26.5 -97.5q0 -47 -17 -73.5t-41 -26.5q-10 0 -17 6.5t-7 18.5q0 20 5.5 69.5t5.5 65.5q0 24 -9 24q-34 0 -56.5 -103.5t-22.5 -209.5q0 -60 10.5 -104t32.5 -44q16 0 16 30q0 16 -11.5 87t-11.5 80z" />
    <glyph glyph-name="H" unicode="H" horiz-adv-x="396" 
d="M264 215l23 219q4 23 36 23q26 0 43.5 -25.5t24 -56.5t6.5 -62q0 -42 -24.5 -86.5t-60.5 -55.5q-2 -29 -9 -104t-12 -132.5t-5 -64.5q3 9 17 9q13 0 25 -9h-1q13 -12 13 -29q0 -23 -16 -38.5t-37 -15.5q-57 0 -57 111l28 256l-64 -2q-1 -95 -19.5 -176.5t-58.5 -81.5
q-60 0 -92.5 27t-32.5 73q0 16 10 28.5t24 12.5q21 0 29 -12t12 -32l-1 1q0 -2 -0.5 -7t-0.5 -8q0 -15 10 -15q3 0 7 26t7 71.5t3 90.5l-29 5q-12 2 -20.5 11.5t-8.5 20.5t7.5 18.5t18.5 7.5h28l3 189q1 13 15 24t40 11q19 0 34 -13t15 -26v-183h70zM328 282l-10 -55
q14 5 24.5 34t12.5 51q0 31 -13 74q-2 -9 -8 -55.5t-6 -48.5z" />
    <glyph glyph-name="I" unicode="I" horiz-adv-x="318" 
d="M38 370q-15 0 -15 24q0 19 24 24t97 5h78q5 0 14.5 -0.5t13.5 -0.5q8 0 21.5 1t18.5 1q6 0 10.5 -6.5t4.5 -14.5q0 -29 -31 -29q-18 0 -52 2q-1 -3 -2.5 -8.5t-2.5 -10t-1 -8.5q-7 -35 -12.5 -143.5t-5.5 -169.5h8q15 0 37.5 0.5t29.5 0.5q13 0 13 -23q0 -32 -29 -32
q-18 0 -56.5 2t-57.5 2q-64 0 -95 -3q-4 0 -10 -2t-10 -4l-4 -2q-15 0 -15 27q0 18 18 26t64 9q-1 4 -1 14q0 66 4 130l9 162l4 37q-43 -2 -69 -10z" />
    <glyph glyph-name="J" unicode="J" horiz-adv-x="342" 
d="M358 62q-13 -127 -125 -191q-11 -135 -53.5 -189.5t-129.5 -54.5q-59 0 -89.5 40t-30.5 79q0 20 9.5 34t30 23.5t40.5 15.5t54.5 15.5t57.5 17.5q7 90 7 218q0 44 -1 136t-1 137q0 10 -7 10t-29.5 -7t-22.5 -10q0 -40 35 -89q3 -3 3 -6q0 -6 -8.5 -10t-16.5 -4
q-29 0 -50 28.5t-21 62.5q0 49 66.5 79.5t129.5 30.5q9 0 15.5 -10t7.5 -22l9 -396q0 -33 -2 -87q75 60 109 168q13 0 13 -19zM50 -329q52 0 69 154q-13 -4 -33 -9.5t-32 -9t-27 -8.5t-24 -9.5t-17.5 -10t-12 -12.5t-3.5 -15q0 -80 80 -80z" />
    <glyph glyph-name="K" unicode="K" horiz-adv-x="439" 
d="M134 405q35 0 56.5 -17.5t32.5 -58t14.5 -85.5t3.5 -121h13q9 2 32.5 56t45.5 135.5t22 141.5q22 -8 32 -28t10 -62q0 -65 -14 -107t-63 -142q4 -46 39 -134t85 -163.5t87 -75.5q7 0 21 8.5t31 21t21 15.5q5 -18 5 -30q0 -40 -28 -68.5t-57 -28.5q-33 0 -65.5 22.5
t-60 63t-50 81.5t-43 94t-31.5 83.5t-22 65.5h-10q0 -40 -1 -63.5t-6 -54.5t-15 -48t-29 -29t-47 -12q-43 0 -75.5 24t-32.5 65q0 32 18 59.5t37 27.5q10 0 15.5 -8t5.5 -19q0 -21 -16 -25h1q-13 -7 -13 -24q0 -36 27 -36q14 0 18.5 15t6.5 50q7 118 7 196q0 83 -8.5 114.5
t-26.5 31.5q-10 0 -17.5 -8.5t-7.5 -20.5q0 -1 19.5 -12.5t19.5 -28.5q0 -30 -8.5 -44.5t-19.5 -14.5q-22 0 -45.5 38t-23.5 72t34 61t76 27z" />
    <glyph glyph-name="L" unicode="L" horiz-adv-x="214" 
d="M-3 -10q0 49 26.5 214.5t26.5 209.5q0 15 22 25.5t42 10.5q36 0 36 -38t-16 -203t-16 -219q0 -34 25 -34q17 0 41 14q4 2 6 2q9 -1 16.5 -13.5t7.5 -24.5q0 -25 -35.5 -37t-70.5 -12q-52 0 -81.5 28.5t-29.5 76.5z" />
    <glyph glyph-name="M" unicode="M" horiz-adv-x="489" 
d="M388 322q-13 0 -35.5 -68t-40.5 -168.5t-18 -177.5q-4 -21 -26 -21q-16 0 -39 5.5t-23 14.5q-3 42 -3 84q0 26 1 65.5t1 53.5q0 56 -10 56q-7 0 -19 -42t-21.5 -113.5t-9.5 -139.5q-39 0 -63 9.5t-29.5 17.5t-10.5 22l-29 340q0 12 19.5 26.5t41.5 14.5q23 0 32.5 -67.5
t10.5 -134.5t2 -67q3 0 7 38q18 155 65 155q45 0 67 -147q37 157 76.5 231t75.5 74q63 0 63 -80q0 -47 -21 -203.5t-21 -240.5q0 -132 40.5 -201t102.5 -69q20 0 42 14t22 40q0 29 -20 44q-2 1 -6.5 3t-7.5 3.5t-3 3.5t9 2q22 0 34.5 -21.5t12.5 -38.5q0 -42 -52 -76.5
t-115 -34.5q-85 0 -127.5 73t-42.5 196q0 64 40.5 270.5t40.5 232.5q0 22 -13 22z" />
    <glyph glyph-name="N" unicode="N" horiz-adv-x="431" 
d="M125 -130q-32 0 -32 84q0 70 17 231q4 44 4 88q0 128 -39 128q-21 0 -35.5 -30.5t-14.5 -88.5q0 -57 36 -57q18 0 33 17q0 -30 -23.5 -46t-56.5 -16q-84 0 -84 83q0 85 47.5 132.5t103.5 47.5q94 0 94 -274q33 121 68.5 190.5t82.5 69.5q38 0 60.5 -28.5t22.5 -82.5
q0 -11 -31.5 -220t-31.5 -336q0 -58 5 -101.5t16.5 -80.5t34.5 -56.5t56 -19.5q39 0 67.5 23.5t28.5 58.5q0 51 -28 89q88 -33 88 -108q0 -79 -53 -128t-125 -49q-203 0 -203 322q0 105 21.5 241t42.5 238.5t21 126.5q0 41 -18 41q-27 0 -81 -194.5t-54 -263.5
q0 -31 -40 -31z" />
    <glyph glyph-name="O" unicode="O" horiz-adv-x="308" 
d="M213 48q9 76 9 117q0 147 -69 147q-46 0 -101 -62q-10 -8 -21 -8q-33 0 -33 28q0 43 41 76t97 33q32 0 56 -8t48 -28.5t37 -64.5t13 -108q0 -139 -49.5 -237t-110.5 -98q-60 0 -95.5 53.5t-35.5 127.5q0 103 51 181.5t95 78.5q15 0 23 -8t8 -16q0 -10 -4 -14
q-18 -32 -35.5 -114.5t-17.5 -118.5q0 -77 31 -77q19 0 36.5 30.5t26.5 89.5z" />
    <glyph glyph-name="P" unicode="P" horiz-adv-x="331" 
d="M128 -119q-4 -28 -16.5 -39.5t-24.5 -11.5q-10 0 -39 12t-29 21q0 8 14.5 109t19.5 127q1 4 15 64.5t18 84.5q6 40 58 40q33 0 33 -24q0 -36 -13 -156q39 12 64 47t25 85q0 48 -27.5 79.5t-82.5 31.5q-40 0 -78 -33.5t-38 -74.5q0 -30 13 -63q-54 6 -54 89
q0 65 57.5 102.5t110.5 37.5q73 0 114.5 -43.5t41.5 -106.5q0 -93 -45.5 -150t-105.5 -57h-2q-12 -99 -29 -171z" />
    <glyph glyph-name="Q" unicode="Q" horiz-adv-x="338" 
d="M360 -234q-2 -22 -21.5 -38t-46.5 -16q-6 0 -9 1q-48 6 -100 142q-21 -12 -44 -12q-57 0 -91.5 61t-34.5 152q0 96 31 159t76 87q10 52 32.5 80t52.5 28q47 0 78 -56.5t31 -148.5q0 -78 -24 -169t-66 -144q60 -119 136 -126zM147 233q0 -136 47 -268q19 70 31 178
q6 61 6 109q0 129 -37 132q-30 0 -41 -71q3 1 8 1q26 0 43 -20.5t17 -57.5q0 -39 -15 -64q-11 43 -21 56.5t-26 15.5q-5 0 -12 -5v-6zM137 -126q15 0 31 25q-48 147 -54 287q-22 -61 -22 -159q0 -64 13 -108.5t32 -44.5z" />
    <glyph glyph-name="R" unicode="R" horiz-adv-x="432" 
d="M166 211q0 32 14 54t33 22q33 0 33 -61q0 -42 -18 -178q58 22 98 78.5t40 113.5q0 46 -32.5 74.5t-99.5 28.5q-60 0 -102 -33.5t-42 -95.5q0 -37 25 -69q9 -19 9 -32t-7 -20t-15 -7q-46 0 -68 26t-22 69q0 111 67 177t155 66q84 0 128 -54.5t44 -135.5q0 -79 -39 -144
t-108 -90q24 -69 110.5 -155t152.5 -86q89 0 89 67q0 5 -2 23q6 3 10 3q18 0 18 -25q0 -17 -2.5 -32.5t-11 -35.5t-23.5 -34.5t-42 -24.5t-63 -10q-46 0 -93 28.5t-83 72t-62.5 89t-40.5 84.5l-3 -23q-13 -83 -40.5 -123t-55.5 -40q-19 0 -31.5 16t-12.5 41q0 26 13 53
q80 124 80 323z" />
    <glyph glyph-name="S" unicode="S" horiz-adv-x="318" 
d="M90 -34q-4 -5 -4 -16q0 -23 14 -41.5t38 -18.5q19 0 34 23t15 51q0 44 -16 81.5t-39 63.5t-46 50t-39 52t-16 58q0 63 44.5 97.5t94.5 34.5q58 0 96.5 -51t38.5 -136q0 -15 -8 -29t-24 -14t-25 10t-9 21q0 6 3 17t3 16q0 119 -57 119q-23 0 -42.5 -18t-19.5 -46
q0 -32 18 -66t44 -64l52 -60t44 -64t18 -65q0 -49 -41 -100t-99 -51q-27 0 -49 7q-110 35 -110 144q0 55 23 85t60 30q46 0 46 -34q0 -27 -42 -86z" />
    <glyph glyph-name="T" unicode="T" horiz-adv-x="378" 
d="M204 -190q-30 0 -51 11t-21 30q0 11 9 16.5t9 16.5q20 98 20 182q0 142 -45 257q-30 12 -53 15q28 -11 28 -41q0 -14 -8.5 -28t-24.5 -14q-26 0 -47 26t-21 52q0 32 18 49.5t45 17.5q31 0 105.5 -17t95.5 -17q40 0 40 12q0 2 -3 9t-3 13t5.5 14t15.5 8q17 0 34.5 -24
t17.5 -40q0 -47 -100 -47q-5 0 -14.5 0.5t-12.5 0.5q35 -102 35 -251q0 -49 -4 -122.5t-4 -91.5q0 -14 -17 -25.5t-49 -11.5z" />
    <glyph glyph-name="U" unicode="U" horiz-adv-x="437" 
d="M82 210q-35 0 -56 25t-21 55q0 44 32 70.5t75 26.5q47 0 80.5 -33.5t33.5 -97.5q0 -22 -1 -34q-2 -21 -15.5 -92t-18.5 -104q0 -30 11 -30q9 0 24.5 40t30 105t17.5 125q0 9 1 24q1 33 2.5 46t9 23t23.5 10q36 -8 36 -63q0 -53 -12 -181t-12 -167q0 -52 14 -52
q20 0 47.5 49.5t54.5 146.5q13 -8 13 -29q0 -61 -49 -150t-94 -89q-31 0 -31 106q0 34 3.5 118t3.5 125q-2 -35 -9.5 -76.5t-20 -83t-32.5 -69t-44 -27.5q-80 0 -80 104v16q0 9 18 88.5t18 130.5q0 42 -9.5 65t-22.5 23t-22 -22.5t-9 -61.5q0 -30 11 -60z" />
    <glyph glyph-name="V" unicode="V" horiz-adv-x="461" 
d="M297 183l-14 -248q19 34 51.5 163.5t32.5 179.5q0 30 -6 56t-13.5 45t-8.5 27q0 20 16 20q28 0 53 -39.5t25 -101.5q0 -55 -45 -190t-72 -183l-20 -35q-13 -55 -36 -55h-4q-82 21 -82 107q0 18 13 120t13 148q0 185 -51 185q-27 0 -59 -62.5t-32 -146.5q-17 0 -31.5 14.5
t-14.5 37.5q0 82 40 133.5t101 51.5q69 0 106.5 -63t37.5 -164z" />
    <glyph glyph-name="W" unicode="W" horiz-adv-x="498" 
d="M282 315q1 16 1.5 23t6 15t16.5 8t20 -9.5t11 -22.5q0 -6 -0.5 -38t-1.5 -59q0 -1 -1.5 -18.5t-2.5 -45t-1 -52.5q0 -51 7.5 -80.5t19.5 -29.5q13 0 25 33.5t21 114t9 192.5q0 12 -0.5 31.5t-0.5 25.5q0 14 7 23t17 9q21 0 27.5 -22.5t6.5 -63.5q0 -78 -9 -168.5
t-33 -170t-57 -79.5q-22 0 -47 24.5t-35 77.5q-13 -61 -46 -116.5t-58 -55.5q-86 0 -86 231q0 32 2 79.5t2 58.5q0 76 -16 76q-3 0 -9 -18.5t-11.5 -46t-5.5 -48.5q0 -29 9 -35q-2 -40 -23 -40q-31 0 -31 65q0 70 33.5 142.5t80.5 72.5q78 0 78 -136q0 -38 -6.5 -113
t-6.5 -103q0 -88 18 -88q11 0 24 39.5t25.5 123t20.5 194.5z" />
    <glyph glyph-name="X" unicode="X" horiz-adv-x="424" 
d="M297 -166q-32 0 -77 46.5t-90 121.5q-36 -75 -36 -133q-36 0 -51.5 10.5t-15.5 33.5q0 46 67 154q-80 160 -80 272q0 19 22.5 43t56.5 24q0 -55 72 -229q79 121 106 180q11 0 20 -13t9 -26q0 -12 -5.5 -28t-18 -39t-23 -40t-31 -49t-30.5 -49q40 -90 76 -148.5t57 -58.5
q20 0 47.5 50t53.5 146q14 -8 14 -29q0 -61 -49 -150t-94 -89z" />
    <glyph glyph-name="Y" unicode="Y" horiz-adv-x="316" 
d="M-8 343q-23 9 -23 29q0 24 15.5 43.5t41.5 19.5q46 0 76.5 -40.5t30.5 -116.5q0 -39 -10.5 -125t-10.5 -123q0 -30 9 -31q34 0 65.5 61t41.5 132q0 4 26 158q0 2 0.5 7t1 6.5t2 5.5t3.5 5t6 2.5t9 1.5q28 0 31 -35q-6 -53 -15 -141t-15.5 -151.5t-8.5 -76.5
q-43 -285 -142 -285q-38 0 -66.5 26.5t-28.5 69.5q1 5 3.5 12t9 14.5t15.5 7.5q15 0 24 -9t11.5 -20t8 -20.5t14.5 -10.5q25 0 57 111t45 207q-64 -147 -115 -147q-66 0 -66 136q0 39 5.5 107t5.5 87q0 42 -18.5 62.5t-38.5 20.5z" />
    <glyph glyph-name="Z" unicode="Z" horiz-adv-x="318" 
d="M216 -94q20 0 47.5 49.5t54.5 146.5q13 -8 13 -29q0 -61 -49 -150t-94 -89q-14 0 -43.5 24.5t-35.5 27.5q-31 -37 -64 -37q-40 0 -58 16t-18 36q0 8 62 44q38 55 78.5 179t40.5 186q-11 1 -34.5 5t-31.5 4q-12 0 -12 -4q0 -3 11 -46.5t11 -48.5q0 -18 -17 -18
q-16 0 -41.5 54.5t-25.5 74.5q0 23 18 36t45 13q14 0 37.5 -5t31.5 -5q23 0 35 16q2 6 28 9t40 3q16 0 32.5 -14.5t16.5 -29.5q0 -17 -19 -24q-4 -47 -40.5 -142.5t-71.5 -170t-35 -71.5q1 -10 36.5 -25t51.5 -15z" />
    <glyph glyph-name="bracketleft" unicode="[" horiz-adv-x="178" 
d="M72 434q94 0 94 -34q0 -10 -5.5 -18t-14.5 -8q-8 0 -25 6h-11q0 -18 -3 -64t-3 -75v-194q0 -74 7 -117h10q9 0 14 2.5t11 2.5q9 0 14.5 -7.5t5.5 -17.5q0 -14 -12.5 -21.5t-28.5 -9t-45 -1.5q-28 0 -37 21q-14 31 -14 218v41v40q0 4 -0.5 35.5t-0.5 34.5q0 166 44 166z
" />
    <glyph glyph-name="backslash" unicode="\" horiz-adv-x="296" 
d="M280 -60q0 -13 -14.5 -21.5t-24.5 -8.5q-6 0 -13.5 2t-11.5 4l-5 3q-80 196 -108 255q-2 4 -12.5 24t-24.5 46.5t-27.5 52t-23 42.5t-9.5 16q9 39 34 39q21 0 79.5 -98.5t111.5 -216.5q49 -111 49 -139z" />
    <glyph glyph-name="bracketright" unicode="]" horiz-adv-x="178" 
d="M106 434q44 0 44 -166q0 -3 -1 -34.5t-1 -35.5v-40q0 -177 -6 -228.5t-31 -51.5q-28 0 -39.5 0.5t-29 3t-24 9.5t-6.5 19q0 10 5.5 17.5t14.5 7.5q6 0 11 -2.5t13 -2.5h10q8 42 8 117v194q0 31 -3.5 81t-3.5 58h-11q-21 -6 -24 -6q-20 0 -20 26q0 34 94 34z" />
    <glyph glyph-name="asciicircum" unicode="^" horiz-adv-x="223" 
d="M106 422q17 0 22 -7q16 -11 49 -55.5t33 -53.5q0 -23 -22 -23q-7 0 -32 24t-40 43q-15 -21 -42 -49t-36 -28q-29 0 -29 29q0 17 31 57.5t50 55.5q9 7 16 7z" />
    <glyph glyph-name="underscore" unicode="_" horiz-adv-x="402" 
d="M26 -91q0 21 27 27t94 7q114 2 170 2q32 0 53.5 -14t21.5 -31q0 -24 -87 -24q-61 0 -141.5 -3.5t-96.5 -3.5q-19 0 -30 12.5t-11 27.5z" />
    <glyph glyph-name="grave" unicode="`" horiz-adv-x="128" 
d="M32 416q21 0 54.5 -59.5t33.5 -80.5q0 -10 -6.5 -18t-14.5 -8q-20 0 -66 50.5t-46 75.5q0 11 14 25.5t31 14.5z" />
    <glyph glyph-name="a" unicode="a" horiz-adv-x="381" 
d="M395 57q-26 -173 -99 -173q-53 0 -88 77t-42 173q-20 -66 -48.5 -113t-58.5 -47q-39 0 -58 31t-19 81q0 78 41 147t103 69q40 0 53 -36q20 48 64 48q7 0 23.5 -7t16.5 -17l-1 1q-1 0 -5 -32t-8.5 -85.5t-4.5 -98.5q0 -57 12 -96t31 -39q15 0 38 51t36 123q7 0 10.5 -21
t3.5 -36zM134 238q-4 2 -8 2q-20 0 -36.5 -55.5t-16.5 -106.5q0 -47 17 -47q10 0 21.5 25.5t29 83t25.5 79.5q-12 15 -32 19z" />
    <glyph glyph-name="b" unicode="b" horiz-adv-x="332" 
d="M215 -94q62 0 117 196q14 -8 14 -29q0 -63 -54.5 -151.5t-117.5 -95.5q-28 -2 -40 -2q-55 0 -83.5 17.5t-28.5 42.5q0 19 19.5 37.5t52.5 18.5q23 0 44 -9q1 -1 4 -1q17 0 32.5 52.5t15.5 105.5q0 85 -41 85q-20 0 -74 -120t-61 -120q-10 0 -17 10.5t-7 24.5
q0 124 4 204.5t4 125.5q0 61 7.5 102t18.5 57.5t25 16.5q22 0 39.5 -39t17.5 -92q0 -36 -11 -86.5t-29.5 -119t-27.5 -111.5q32 100 73.5 154.5t77.5 54.5q44 0 64.5 -36t20.5 -93q0 -60 -18.5 -120.5t-40.5 -79.5z" />
    <glyph glyph-name="c" unicode="c" horiz-adv-x="343" 
d="M358 70q-11 -57 -29 -104.5t-44.5 -87.5t-64.5 -62.5t-83 -22.5h1q-45 4 -77 41.5t-46 89.5t-14 112q0 110 44 197t116 87q51 0 83 -46.5t32 -102.5q0 -39 -18 -65t-53 -26q-8 0 -8 5q1 20 1 53q0 100 -25 100q-20 0 -36 -69.5t-16 -149.5q0 -74 16 -125t49 -51
q84 0 158 251q14 -14 14 -24z" />
    <glyph glyph-name="d" unicode="d" horiz-adv-x="474" 
d="M490 59q0 -37 -25 -94t-68 -104t-85 -47q-54 0 -96 78t-49 199q-61 -169 -95 -169q-40 0 -61 34t-21 85q0 69 44 139.5t101 70.5q22 0 33 -29q11 181 59 274.5t115 93.5q51 0 76 -45t25 -119q0 -122 -53 -257t-116 -163q22 -129 56 -129q41 0 85.5 72t58.5 143
q16 -2 16 -33zM266 150q0 -67 2 -94q56 39 98.5 151.5t42.5 214.5q0 127 -52 127q-41 0 -66 -106t-25 -293zM162 174q-18 12 -27 12q-21 0 -40.5 -43t-19.5 -78q0 -29 7 -50t17 -21q7 0 28.5 60.5t39.5 123.5z" />
    <glyph glyph-name="e" unicode="e" horiz-adv-x="293" 
d="M311 71q-20 -119 -69.5 -177.5t-109.5 -58.5q-58 0 -100 68t-42 177q0 82 40 144t108 62q33 0 54.5 -24t21.5 -73q0 -57 -30 -106t-70 -49q-20 0 -28 7q1 -70 22 -106.5t53 -36.5q39 0 77.5 53.5t55.5 143.5q5 -1 11 -8.5t6 -15.5zM150 210q-23 0 -43 -48t-21 -102
q31 3 59 41.5t28 72.5q0 36 -23 36z" />
    <glyph glyph-name="f" unicode="f" horiz-adv-x="264" 
d="M-13 136q0 126 43.5 232.5t87.5 106.5q63 0 63 -101q0 -64 -27.5 -122t-67.5 -92q-12 -143 -12 -268q0 -139 21 -139q18 0 18 57q0 55 -15 120q-12 34 -12 99q0 43 31 43q19 0 27 -40.5t13 -80.5t16 -40q5 0 19.5 24.5t35 73t35.5 101.5q14 -8 14 -31q0 -29 -13 -76.5
t-38.5 -89t-52.5 -41.5q-6 0 -14 2q1 -12 1 -37q0 -59 -17.5 -102t-55.5 -43q-24 0 -40.5 18t-31 64.5t-21.5 136.5t-7 225zM126 431q-17 0 -37 -229q53 89 53 182q0 47 -16 47z" />
    <glyph glyph-name="g" unicode="g" horiz-adv-x="392" 
d="M406 62q-13 -127 -125 -191q-11 -135 -53.5 -189.5t-129.5 -54.5q-59 0 -89.5 40t-30.5 79q0 26 19.5 43.5t44.5 25t71.5 20.5t77.5 25q7 116 7 372q-1 -38 -7.5 -77.5t-19.5 -84t-38 -72.5t-59 -28q-40 0 -59.5 27t-19.5 70q0 76 45.5 160t101.5 84q22 0 38 -18
q9 -6 13 -16q-3 17 -3 32q0 46 52 46q69 0 69 -27q0 -12 -16.5 -45.5t-16.5 -52.5q0 -25 4 -115t4 -115q0 -33 -2 -87q75 60 109 168q13 0 13 -19zM98 -329q25 0 36.5 3t24.5 17.5t19.5 48t10.5 92.5q-20 -7 -51 -15.5t-48.5 -14t-36 -13t-27 -17t-8.5 -21.5q0 -80 80 -80z
M112 44q22 0 39 59.5t24 131.5q-34 -1 -62 -55t-28 -95t27 -41z" />
    <glyph glyph-name="h" unicode="h" horiz-adv-x="394" 
d="M318 482q0 -45 -76.5 -127.5t-146.5 -128.5q-1 -19 -1 -57q0 -12 3 -78q18 70 59.5 119t65.5 49q43 0 61 -50t18 -119q0 -50 -9.5 -113t-9.5 -67q22 2 61.5 75t50.5 122q16 0 16 -36q0 -58 -59.5 -145.5t-103.5 -87.5q-51 0 -51 140q0 50 4.5 111.5t9 98.5t5.5 38
q-11 0 -34 -29t-43.5 -75.5t-20.5 -86.5q0 -8 5 -26l6 -18q0 -4 -14.5 -8t-24.5 -4q-33 0 -55.5 28t-31 74.5t-11.5 80t-3 69.5q0 164 48.5 255t130.5 91q75 0 113 -30.5t38 -64.5zM185 546q-27 0 -53.5 -84.5t-34.5 -205.5q61 53 122.5 125.5t61.5 94.5t-24.5 46t-71.5 24z
" />
    <glyph glyph-name="i" unicode="i" horiz-adv-x="226" 
d="M90 425q63 -77 63 -108q0 -39 -33.5 -62t-68.5 -23q-32 0 -48.5 17.5t-16.5 41.5q0 41 37 87.5t67 46.5zM12 -134q0 20 -5 96t-5 91q-28 14 -28 37q0 25 25 48.5t48 23.5q27 0 45 -14t18 -42q0 -6 -2 -119t-2 -120q0 -13 4 -13q33 0 75 112t42 152q9 0 16 -7.5t7 -20.5
q0 -24 -12.5 -71t-33 -98t-53 -89t-67.5 -38q-72 0 -72 72z" />
    <glyph glyph-name="j" unicode="j" horiz-adv-x="186" 
d="M-169 -197q108 0 210 -3l-3 212q-1 71 -12 71h-17q-19 0 -19 10q0 22 38.5 63.5t66.5 41.5q48 0 48 -39v-363q307 -15 552 -48.5t245 -67.5q0 -11 -18 -20l-21 3q0 34 -227.5 63t-529.5 42l2 -142q1 -60 -53 -88t-145 -28q-95 0 -233.5 28t-253.5 80.5t-115 109.5
q0 38 133 56.5t352 18.5zM43 -274l-1 46q-111 3 -211 3q-430 0 -430 -43q0 -42 92 -87.5t201.5 -72t175.5 -26.5q173 0 173 180zM162 340q0 -44 -21.5 -67t-42.5 -23q-47 0 -71.5 20t-24.5 45q0 34 34 68t65 34q25 0 43 -18.5t18 -58.5z" />
    <glyph glyph-name="k" unicode="k" horiz-adv-x="290" 
d="M242 506q-6 -41 -55 -117.5t-99 -124.5q-2 -56 -2 -85q26 55 62.5 95t67.5 40q62 0 62 -55q0 -33 -27.5 -85.5t-65.5 -79.5q7 -51 29 -108.5t55.5 -111t82.5 -88t103 -34.5q23 0 46 12t28 26q4 0 4 -13q0 -5 -1 -13.5t-1 -9.5q0 -22 -25.5 -57t-71.5 -35q-58 0 -134.5 73
t-129 169.5t-52.5 161.5q0 30 19 38q17 20 35 61.5t18 57.5q0 20 -8 20q-16 0 -47.5 -36t-48.5 -88q0 -38 0.5 -88t0.5 -52q0 -10 -19 -17t-45 -7q-17 0 -27.5 79.5t-10.5 147.5q0 172 36.5 288.5t99.5 116.5q121 0 121 -81zM135 558q-14 0 -26.5 -73.5t-18.5 -183.5
q103 126 103 192q0 65 -58 65z" />
    <glyph glyph-name="l" unicode="l" horiz-adv-x="284" 
d="M309 90q0 -35 -25 -97t-71 -116.5t-93 -54.5q-49 0 -88.5 109.5t-39.5 261.5q0 363 133 363q72 0 107 -42t35 -101q0 -79 -58 -205.5t-108 -166.5q10 -155 34 -155q40 0 75.5 58.5t82.5 178.5q5 -1 10.5 -10t5.5 -23zM97 173q0 -35 2 -93q53 50 93 155.5t40 174.5
q0 41 -19 72t-55 31q-12 0 -21 -6t-15.5 -17t-11 -26.5t-7 -34.5t-4 -41.5t-2 -48t-0.5 -52.5v-56v-58z" />
    <glyph glyph-name="m" unicode="m" horiz-adv-x="623" 
d="M638 60q-16 -119 -50.5 -198t-69.5 -79q-132 0 -132 137q0 38 32 133t32 114q0 14 -9 14q-16 0 -61 -67.5t-71 -140.5q-30 0 -54 22.5t-24 44.5q0 7 17.5 117t17.5 128q-2 14 -8 14q-26 0 -61 -113.5t-47 -212.5q-35 0 -67 18t-32 33q44 248 46 268q0 43 -16 43
q-12 0 -20 -37q-23 -157 -56 -294q-26 0 -26 22q30 193 60 312q8 36 26 55.5t39 19.5q27 0 47.5 -30.5t20.5 -81.5q0 -68 -13 -153q19 105 60 193.5t79 88.5q80 0 80 -84q0 -29 -8 -70t-24 -105.5t-24 -102.5q36 76 87.5 138.5t88.5 62.5q56 0 56 -76q0 -43 -22.5 -145.5
t-22.5 -137.5q0 -45 28 -45q17 0 85 237q5 -2 10.5 -17.5t5.5 -24.5z" />
    <glyph glyph-name="n" unicode="n" horiz-adv-x="326" 
d="M357 -485q-111 0 -151 89t-40 290q0 84 19 211t19 159q0 54 -11 54q-12 0 -23 -50t-19.5 -111.5t-31 -115t-54.5 -59.5q-32 0 -49 17t-20.5 35.5t-3.5 47.5q0 11 0.5 43.5t0.5 44.5q0 47 -8 62q1 11 16.5 26.5t35.5 15.5q24 0 31 -49t8 -98t10 -49q8 2 17.5 50.5
t18.5 105.5t34 104t61 47q33 0 43 -42t10 -121q0 -37 -2 -163t-2 -234q0 -124 34 -197.5t107 -73.5q33 0 52 19.5t19 43.5q27 0 27 -26q0 -8 -9 -20t-25.5 -25t-47 -22t-66.5 -9z" />
    <glyph glyph-name="o" unicode="o" horiz-adv-x="282" 
d="M-14 23q0 26 8 68.5t21 70.5q-1 8 -1 23q0 54 21 80t53 26q59 0 90.5 -56.5t31.5 -127.5q0 -50 -18 -96.5t-50 -74.5q19 -29 36 -29q24 0 51.5 55.5t52.5 147.5q7 0 12.5 -5t5.5 -11q-8 -83 -42 -157.5t-71 -74.5q-33 0 -73 56q-24 -11 -48 -11q-35 0 -57.5 34t-22.5 82z
M80 157q-5 -3 -12 -16q11 -55 33 -118q9 37 9 83q0 50 -9 90t-26 40q-13 0 -13 -44q22 -5 22 -24q0 -6 -4 -11zM80 -27q-25 50 -38 89q-3 -16 -3 -28q0 -73 20 -73q11 0 21 12z" />
    <glyph glyph-name="p" unicode="p" horiz-adv-x="368" 
d="M108 -38q0 16 9 26t21 10q13 0 24 -14t14 -42q17 14 27 60t12.5 82t2.5 67q0 37 -16 37q-20 0 -74 -97.5t-54 -140.5q0 -57 14.5 -105.5t29 -80t14.5 -46.5q0 -36 -18 -58.5t-47 -22.5q-77 0 -77 53q0 21 12 87.5t12 104.5q0 52 -14 181t-14 143q0 23 12.5 34t31.5 11
t35.5 -63.5t16.5 -117.5q22 81 69.5 140.5t92.5 59.5q37 0 55.5 -29t18.5 -74q0 -76 -36 -167t-88 -94h-4q12 -20 24 -20q83 6 151 200q7 0 12 -6.5t5 -13.5q-19 -92 -64 -158t-104 -66q-41 0 -73.5 42t-32.5 78z" />
    <glyph glyph-name="q" unicode="q" horiz-adv-x="354" 
d="M359 99q13 -1 13 -21q0 -30 -58 -166.5t-58 -193.5q0 -6 -14.5 -16.5t-22.5 -10.5q-17 0 -32.5 109t-23.5 254q-19 -54 -43 -92t-45 -38q-41 0 -63 31.5t-22 78.5q0 97 38.5 145t76.5 48q32 0 52 -38v48q0 13 9 21t24 8q22 0 44 -19t22 -44q0 -2 -5 -54t-6 -76
q-3 -192 -3 -241q27 93 117 267zM160 106l-2 59q-3 1 -8 1q-29 0 -48.5 -42t-19.5 -78q0 -48 12 -48q10 0 29 30.5t37 77.5z" />
    <glyph glyph-name="r" unicode="r" horiz-adv-x="266" 
d="M62 -96q0 22 24 104t24 103q0 51 -57 87q-5 -14 -16.5 -62.5t-22 -82t-18.5 -33.5q-17 0 -19 14q11 26 29 102.5t20 84.5q-20 35 -20 74q0 41 15 70.5t34 29.5q23 0 39 -28.5t16 -65.5q0 -58 -20 -84q57 -34 75 -53.5t18 -54.5q0 -23 -13.5 -96.5t-13.5 -89.5
q0 -17 9 -17q20 0 47.5 50t53.5 146q14 -8 14 -29q0 -61 -49 -150t-94 -89q-38 0 -56.5 19.5t-18.5 50.5z" />
    <glyph glyph-name="s" unicode="s" horiz-adv-x="332" 
d="M213 -136q0 34 -23 61t-56 45.5t-66.5 37t-56.5 46t-23 62.5q0 70 51.5 111t113.5 41q58 0 101.5 -34t43.5 -90q0 -66 -83 -66q-36 0 -36 8q18 23 18 70q0 33 -12.5 50.5t-30.5 17.5q-21 0 -43.5 -23t-22.5 -55q0 -35 24.5 -62.5t59 -47.5t69 -41.5t59 -56t24.5 -78.5
q0 -81 -58 -127.5t-134 -46.5q-69 0 -111.5 49.5t-42.5 112.5q0 50 29.5 84t86.5 34q26 0 48.5 -16t22.5 -52q0 -10 -7.5 -22.5t-22.5 -12.5q-1 22 -12 34t-25 12q-35 0 -57 -26.5t-22 -60.5q0 -36 26 -62t77 -26q32 0 61.5 33.5t29.5 96.5z" />
    <glyph glyph-name="t" unicode="t" horiz-adv-x="253" 
d="M254 102q7 -10 7 -28q0 -41 -29.5 -111.5t-71.5 -126.5t-73 -56q-43 0 -66 79t-23 197q0 70 8 125q-48 7 -48 33q0 10 5 19.5t16 9.5q20 0 39 -1q35 159 109 159q34 0 54.5 -18.5t20.5 -48.5q0 -38 -19 -95q49 -1 66 -4.5t17 -14.5q0 -9 -99 -26q-36 -95 -70 -124
q0 -51 3.5 -98t8.5 -74.5t9 -27.5q12 0 58 81.5t78 150.5zM138 377q-32 0 -38 -137q7 0 20 -0.5t18 -0.5q23 69 23 96q0 14 -8.5 28t-14.5 14zM97 184v-50q1 2 9.5 22t12.5 31z" />
    <glyph glyph-name="u" unicode="u" horiz-adv-x="397" 
d="M55 230q47 0 47 -46q0 -16 -7.5 -111t-7.5 -145q0 -54 25 -54q12 0 26 19t29 57.5t31.5 106t30.5 155.5q13 0 27.5 -2.5t29 -11t14.5 -22.5l-6 -283q-2 -49 12 -49q5 0 12 15t16.5 44.5t18.5 59t22 72.5t22 71q10 -3 10 -36q0 -69 -38.5 -173.5t-82.5 -104.5
q-38 0 -59.5 44t-21.5 122q-11 -52 -45.5 -96t-64.5 -44q-42 0 -72.5 35.5t-33.5 95.5q-3 66 -3 114q0 85 14.5 126t54.5 41z" />
    <glyph glyph-name="v" unicode="v" horiz-adv-x="357" 
d="M122 -73q21 21 42 82q-40 79 -40 219q0 57 29.5 93.5t66.5 36.5q28 0 46.5 -25t18.5 -72q0 -49 -20.5 -120.5t-51.5 -136.5q16 -18 33 -18q24 0 59 24.5t55 67.5q8 -12 8 -28q0 -37 -37.5 -68.5t-88.5 -31.5q-26 0 -47 19q-55 -103 -90 -103q-27 0 -49 33t-34 81.5
t-18.5 95.5t-6.5 83q0 25 16.5 48t36.5 23q13 0 23.5 -7.5t18 -23t13 -32t9 -41.5t5.5 -43t2.5 -46.5t0.5 -42.5v-39v-28zM166 232q0 -92 17 -157q24 101 24 189q0 34 -12 34q-10 0 -19.5 -20.5t-9.5 -45.5z" />
    <glyph glyph-name="w" unicode="w" horiz-adv-x="506" 
d="M299 -110q13 0 24 63q-34 102 -34 214q0 40 20.5 62t48.5 22q26 0 45 -20t19 -57q0 -34 -16.5 -106.5t-39.5 -133.5q14 -40 34 -40q21 0 40.5 37.5t67.5 158.5q7 0 11.5 -8.5t4.5 -15.5q-27 -113 -55.5 -159.5t-74.5 -46.5q-24 0 -45 33q-31 -67 -58 -67q-25 0 -53 46.5
t-43 130.5q-7 -56 -18 -84t-23.5 -34.5t-35.5 -6.5q-50 0 -84.5 69t-34.5 223q0 52 21.5 80t49.5 28q24 0 40.5 -19t16.5 -53q0 -36 -13 -56q-5 -44 -5 -94q0 -18 2.5 -49t5.5 -54.5t4 -23.5q13 0 23 56t10 128q0 39 25 68t51 29q30 0 30 -43q0 -25 -16 -75q0 -58 9 -106
t21.5 -72t24.5 -24z" />
    <glyph glyph-name="x" unicode="x" horiz-adv-x="435" 
d="M267 246q9 0 20 -9.5t11 -16.5q0 -27 -9 -52t-32.5 -55t-40.5 -49t-55 -58q33 -67 68.5 -105.5t61.5 -38.5q25 0 57 52.5t92 175.5q15 -6 15 -20q0 -1 -0.5 -3t-0.5 -3q-10 -44 -32 -102t-59 -110.5t-72 -52.5q-46 0 -100.5 35.5t-100.5 95.5q-67 -76 -107 -144
q-22 9 -22 25q0 38 99 165q-63 104 -63 222q0 96 66 96q27 0 43 -19t16 -55q0 -29 -16 -66q9 -34 28 -86q103 127 133 178z" />
    <glyph glyph-name="y" unicode="y" horiz-adv-x="355" 
d="M90 106q-10 -47 -10 -72q0 -30 13 -30q12 0 32.5 28t39.5 86.5t19 123.5q0 36 15 64t43 28q20 0 34 -13t14 -38q0 -44 11 -120t31 -186t24 -137q102 7 188 7q133 0 247 -20.5t184.5 -59.5t70.5 -89q0 -49 -28 -69q-22 0 -22 11q0 61 -80.5 107t-190 66.5t-221.5 20.5
q-79 0 -143 -8q4 -42 4 -61q0 -102 -56.5 -159.5t-194.5 -57.5q-78 0 -133 39t-55 110q0 44 85 85t233 64q-25 249 -33 292q-24 -76 -65 -120.5t-80 -44.5q-34 0 -56 36t-22 105q0 74 21 111t53 37q22 0 39.5 -17t17.5 -43q0 -37 -29 -76zM249 -255q0 14 -2 44
q-117 -21 -199 -51.5t-82 -53.5q0 -45 41.5 -84t92.5 -39q149 0 149 184z" />
    <glyph glyph-name="z" unicode="z" horiz-adv-x="337" 
d="M83 262q35 -13 84 -13q22 0 49.5 3t30.5 3q50 0 50 -28q0 -59 -54 -129.5t-99 -100.5q90 -16 145.5 -48.5t71.5 -93.5q121 -14 201 -58.5t80 -122.5q0 -29 -23 -60.5t-38 -31.5q-10 0 -10 7q0 5 0.5 13t0.5 12q0 85 -56.5 135t-148.5 69v-10q0 -85 -86.5 -156t-198.5 -71
q-99 0 -182 41t-83 96q0 34 62.5 66t155.5 51.5t190 24.5q-23 41 -66 64.5t-79 23.5q-16 0 -26 8.5t-10 19.5q0 27 46 27q15 0 64 81.5t49 106.5q-23 0 -70 7t-71 15q-6 -14 -20.5 -65t-27.5 -90t-20 -39q-4 0 -10.5 3.5t-7.5 7.5q5 14 27 96.5t23 94.5q-8 6 -14.5 21.5
t-6.5 30.5q0 43 24.5 97.5t55.5 54.5q25 0 25 -55q0 -39 -27 -108zM243 -210q0 18 -5 38q-125 -5 -239.5 -33t-114.5 -57q0 -54 66 -97t141 -43q67 0 109.5 59t42.5 133z" />
    <glyph glyph-name="braceleft" unicode="{" horiz-adv-x="250" 
d="M95 256q-1 10 -2 19t-1 14l-1 5q0 131 107 131q24 0 35 -12.5t11 -25.5q0 -16 -29 -24q-12 0 -18.5 -4t-11 -14t-5.5 -11h1q-9 -15 -9 -96q0 -15 -13.5 -47t-27.5 -40q7 -6 18 -13.5t13.5 -9.5t7 -9t5 -15.5t0.5 -24.5q0 -23 -1.5 -65t-1.5 -49q0 -24 8 -33t35 -9
q9 -2 17 -10t8 -19q0 -18 -27 -23q-32 0 -54 9.5t-34.5 24t-19.5 39.5t-9 49.5t-2 60.5q0 2 0.5 12t0.5 18t-1.5 13t-3 8.5t-7.5 5.5l-10.5 3.5t-17.5 4t-22 4.5q-7 7 -7 19t5.5 21t13.5 9q50 11 50 84z" />
    <glyph glyph-name="bar" unicode="|" horiz-adv-x="188" 
d="M138 -129l-9 -13l-37 -6q-16 0 -25 10t-14 47t-6 88t-1 153v43q0 4 -0.5 37.5t-0.5 36.5q0 100 7.5 136t32.5 36q19 0 30.5 -3.5t14.5 -7t3 -6.5q0 -19 -5 -80.5t-5 -103.5v-206q0 -87 15 -161z" />
    <glyph glyph-name="braceright" unicode="}" horiz-adv-x="205" 
d="M152 32q3 -34 3 -39q0 -57 -18.5 -97t-62.5 -40q-10 0 -22.5 2t-25.5 10t-13 21q0 17 29 24q8 0 13 0.5t8 2.5t4.5 3.5t3.5 5.5l3 6v-1q10 19 10 84q0 5 -1 20.5t-1 21.5q0 13 13.5 27.5t30.5 23.5q-44 31 -44 125q0 17 0.5 37.5t1 31t-0.5 23t-3 17.5t-7 10.5t-12.5 7
t-19.5 1.5q-8 0 -16.5 9t-8.5 19q0 18 15 31t31 13q59 0 81.5 -40.5t22.5 -125.5q0 -5 -4 -34.5t-4 -50.5q0 -41 35 -49q9 -7 9 -19q0 -11 -6 -20t-15 -9q-34 -8 -34 -28q0 -6 2.5 -14t2.5 -10z" />
    <glyph glyph-name="asciitilde" unicode="~" horiz-adv-x="272" 
d="M184 305q13 0 19.5 10t6.5 22.5t5.5 22.5t17.5 10q22 0 22 -20q0 -45 -15.5 -70.5t-58.5 -25.5q-41 0 -59 43q-7 24 -23 24q-18 0 -18 -27q0 -17 -5 -26t-11 -11t-16 -2q-13 0 -24.5 8t-11.5 23q0 40 19.5 64.5t53.5 24.5q56 0 74 -45q11 -25 24 -25z" />
    <glyph glyph-name="exclamdown" unicode="&#xa1;" horiz-adv-x="188" 
d="M105 455q27 -4 50 -27t23 -42q0 -28 -23 -46t-44 -18q-34 0 -34 46q0 39 28 87zM88 285q23 -2 36.5 -23.5t13.5 -49.5q0 -2 -0.5 -6t-0.5 -5q-8 -81 -21 -285q-5 -34 -41 -34q-25 0 -36.5 21.5t-11.5 44.5q0 52 30.5 192.5t30.5 144.5z" />
    <glyph glyph-name="cent" unicode="&#xa2;" horiz-adv-x="342" 
d="M174 -62q-57 0 -86.5 36t-29.5 89q0 60 34 108t89 48q0 79 -4 109l6 14q12 4 16 4q22 0 22 -33q0 -4 -1 -48t-1 -46q60 -17 60 -57q0 -39 -23 -39q-6 0 -11 7t-8.5 16t-13 16t-23.5 7q-17 0 -26.5 -26t-9.5 -63q0 -41 11 -71.5t31 -30.5q4 0 8.5 2t8.5 6t8.5 9t8 11
t7.5 12t7 11.5t5.5 11t4.5 9.5l3 6l1 3l6 3q17 -7 17 -27q0 -28 -29 -63.5t-49 -35.5q0 -101 4 -118l-6 -8q-5 -2 -13 -2q-24 0 -24 130z" />
    <glyph glyph-name="sterling" unicode="&#xa3;" horiz-adv-x="386" 
d="M251 149q49 0 66 -9t17 -32q0 -15 -9 -27.5t-22 -12.5q-3 0 -33 8t-38 8q-9 0 -42 -5q-8 -42 -29 -99q7 3 13 7t9.5 5.5t11.5 1.5q14 0 36 -5q48 -13 60 -13q6 0 13 2t12 5t6 3l16 -6q4 -3 9 -14.5t5 -18.5q0 -43 -53 -43q-22 0 -40 6q-48 12 -69 12q-9 0 -60.5 -10.5
t-56.5 -10.5q-10 0 -22.5 12.5t-12.5 22.5q0 5 12 40l28 92q-7 -1 -23.5 -7.5t-18.5 -7.5q-9 2 -15.5 12t-6.5 21q0 18 16.5 28t60.5 18q18 97 31 133.5t39 65.5q16 18 49.5 28t63.5 10q35 0 60 -16t25 -42q0 -15 -8 -27t-21 -12l-10 8q-10 8 -24 16t-24 8q-27 0 -37.5 -25
t-25.5 -110q-3 -17 -5 -26q26 6 47 6z" />
    <glyph glyph-name="currency" unicode="&#xa4;" horiz-adv-x="339" 
d="M234 107q0 25 -15 45t-38 20q-28 0 -44 -23t-16 -51q0 -31 14 -50t35 -19q24 0 44 24.5t20 53.5zM290 244q20 0 20 -22q-1 -10 -31 -38l-18 -17q19 -25 19 -62q0 -41 -15 -67q42 -42 42 -54q0 -19 -22 -20q-5 0 -37 24l-15 17q-25 -21 -63 -21q-36 0 -60 18
q-50 -38 -56 -38q-21 0 -21 23q0 8 27 34l7 4q-14 11 -22 35.5t-8 45.5q0 54 31 75q-3 1 -3 3l-5 4q-26 26 -26 36q0 20 25 20q2 0 4.5 -1t6.5 -5t8 -7.5t12.5 -12t16.5 -15.5q18 13 63 13q35 0 60 -17q43 45 60 45z" />
    <glyph glyph-name="yen" unicode="&#xa5;" horiz-adv-x="355" 
d="M118 38l-8 42q-4 0 -13.5 -1t-14.5 -1q-56 0 -56 43q0 29 24 29q4 0 18.5 -3.5t17.5 -3.5h6q-46 148 -62 176q0 16 17.5 31t42.5 15q10 0 19 -3.5t17 -12t14 -17.5t12.5 -24.5t11 -27.5t10 -33t9 -34.5t9.5 -37.5t10 -38l54 152q27 61 50 61q13 0 25.5 -11t12.5 -25
q0 -7 -7.5 -21t-20 -36t-19.5 -38l-28 -69h34q27 0 27 -22q0 -27 -6 -36.5t-22 -9.5q-2 0 -12 0.5t-14 0.5l-32 -1l-14 -41l48 2q12 1 21 -5.5t9 -19.5q0 -20 -8 -35l-10 -6h-16q-5 0 -23 -1.5t-23 -1.5l-1 -52q0 -9 9 -43q-11 -31 -40 -31q-35 0 -57.5 19.5t-22.5 49.5
q0 19 2 55l-24 -1h-5q-43 0 -43 42q0 30 19 30q1 0 7 -1t14.5 -2.5t15.5 -1.5h16z" />
    <glyph glyph-name="brokenbar" unicode="&#xa6;" horiz-adv-x="153" 
d="M35 190q0 138 7 182t36 44q45 0 45 -12q0 -25 -3.5 -96t-3.5 -106q0 -43 -51 -43q-19 0 -24.5 8t-5.5 23zM118 88l-2 -63q0 -93 15 -154l-10 -12l-36 -6q-16 0 -24.5 7t-14 34.5t-7 70t-1.5 125.5q0 8 7.5 16.5t21.5 8.5q15 0 28 -6.5t18 -13.5z" />
    <glyph glyph-name="section" unicode="&#xa7;" horiz-adv-x="278" 
d="M196 -51l-14 19q-14 20 -37 55.5t-38 65.5q-5 -11 -8 -36q0 -51 73 -124q10 3 17 9t7 11zM177 337q35 0 61.5 -33t26.5 -64q0 -23 -6.5 -57t-21.5 -34q-17 0 -24 25t-11 50t-14 25q-8 0 -16.5 -3t-17.5 -14.5t-9 -29.5q0 -36 29.5 -78t58.5 -77.5t29 -56.5
q0 -29 -18 -62.5t-39 -41.5q15 -22 15 -40q0 -36 -36 -64.5t-74 -28.5q-31 0 -56 14.5t-25 37.5q0 9 11 23t19 14q4 -5 8.5 -16t10 -16t17.5 -5t21 9.5t9 18.5l-11 12q-12 12 -28.5 32t-33 45.5t-28 58t-11.5 63.5q0 48 69 117q-15 25 -15 56q0 47 30.5 83.5t79.5 36.5z" />
    <glyph glyph-name="dieresis" unicode="&#xa8;" horiz-adv-x="244" 
d="M104 353q0 -20 -10 -35t-32 -15q-17 0 -29 12.5t-12 29.5t12 33.5t27 16.5q18 0 31 -11.5t13 -30.5zM220 351q0 -17 -12 -32t-32 -15q-17 0 -29 17t-12 37q0 16 11.5 28t26.5 12q23 0 35 -13t12 -34z" />
    <glyph glyph-name="copyright" unicode="&#xa9;" horiz-adv-x="652" 
d="M423 6q5 0 12 -5.5t7 -10.5q0 -40 -31.5 -64.5t-72.5 -24.5q-52 0 -78.5 37.5t-26.5 94.5q0 71 37 130t95 59q39 0 66.5 -34.5t27.5 -71.5q0 -46 -44 -46q-12 0 -22 5q7 12 7 31t-6.5 33.5t-17.5 14.5q-22 0 -34.5 -36.5t-12.5 -83.5q0 -39 8.5 -66.5t23.5 -27.5
q27 0 62 66zM402 331q-71 0 -126.5 -50.5t-82.5 -122.5t-27 -148q0 -84 36 -139t105 -55q85 0 159 86.5t74 212.5q0 64 -36.5 110t-100.5 46q-26 0 -46 -5q-7 4 -7 8q0 10 27 20t52 10q78 0 115 -44.5t37 -118.5q0 -86 -27 -161.5t-70.5 -125t-96.5 -78t-106 -28.5
q-95 0 -149 87.5t-54 210.5q0 90 28.5 169.5t91 133.5t148.5 54q28 0 59 -20t34 -57q-30 5 -37 5z" />
    <glyph glyph-name="ordfeminine" unicode="&#xaa;" horiz-adv-x="278" 
d="M225 361q0 -37 -3 -88q0 -13 8 -51q0 -11 -10 -21.5t-19 -10.5q-16 0 -16 48v21q-10 -29 -28.5 -45.5t-36.5 -16.5q-33 0 -57.5 17t-24.5 53q0 48 31.5 85.5t79.5 37.5q49 0 76 -29zM116 267q0 -16 15 -16q20 0 33.5 18.5t13.5 41.5v15q-21 0 -41.5 -19t-20.5 -40z" />
    <glyph glyph-name="guillemotleft" unicode="&#xab;" horiz-adv-x="438" 
d="M340 -48q0 18 -52.5 79t-87.5 89q0 6 26.5 35.5t62 73t51.5 78.5q34 0 48.5 -14.5t14.5 -34.5q0 -19 -40 -72t-64 -65q71 -49 92 -75q20 -26 20 -51q0 -15 -24 -29t-47 -14zM239 -14q0 -16 -13 -26t-36 -10q-33 0 -33 16l4 10v6q0 8 -10 21t-28.5 30.5t-34.5 31.5t-38 32
t-28 23q0 5 34 32.5t67 63t32 59.5l-3 5q-3 5 -3 14q0 8 16.5 14.5t30.5 6.5q61 0 61 -49q0 -18 -55 -75t-81 -70q118 -79 118 -135z" />
    <glyph glyph-name="logicalnot" unicode="&#xac;" horiz-adv-x="350" 
d="M44 45l-13 7l-5 36q0 28 37.5 35.5t145.5 7.5q58 0 84 -6.5t31 -16.5t5 -34v-12q0 -25 -0.5 -36.5t-3 -26.5t-9.5 -21t-19 -6q-17 0 -30 14.5t-13 48.5q0 12 1 17q-29 6 -74 6q-72 0 -137 -13z" />
    <glyph glyph-name="registered" unicode="&#xae;" horiz-adv-x="451" 
d="M335 307q3 0 7 0.5t6 0.5q24 0 41.5 -19t25.5 -48.5t11.5 -56t3.5 -52.5q0 -110 -60.5 -181.5t-144.5 -71.5q-109 0 -162.5 67.5t-53.5 177.5q0 69 22.5 133t75.5 110.5t127 46.5q25 0 55 -27.5t33 -62.5q-20 5 -34 5q-85 0 -139.5 -52.5t-54.5 -162.5q0 -79 33.5 -129
t96.5 -50q70 0 117 53t47 155q0 90 -53 164zM152 45v67q0 36 -7 70q2 9 20 15.5t30 6.5q14 0 22 -25t8 -51v-11q24 6 42 44t18 58q0 28 -40 28q-28 0 -62 -12t-51 -27q3 27 44 54.5t90 31.5q22 0 41.5 -22.5t19.5 -56.5t-20 -76t-51 -49l11 -10q3 -3 25.5 -27.5t40.5 -36.5
q0 -1 1 -4v-2q0 -13 -9 -23.5t-19 -10.5q-16 0 -30.5 14.5t-32 45t-18.5 32.5v-3q0 -27 7 -71q-3 -20 -23 -20q-19 0 -38 18t-19 53z" />
    <glyph glyph-name="macron" unicode="&#xaf;" horiz-adv-x="214" 
d="M170 336q18 -3 28 -13.5t10 -23.5q0 -10 -6 -17.5t-18 -6.5l-101 5l-40 -4q-13 0 -20.5 7t-7.5 17q0 36 63 36h92z" />
    <glyph glyph-name="degree" unicode="&#xb0;" horiz-adv-x="150" 
d="M57 334q0 -12 14 -12q10 0 16 6t6 14q0 14 -17 14q-8 0 -13.5 -7.5t-5.5 -14.5zM77 394q6 0 10.5 -1.5t10.5 -4.5l10 -5l8 -5q22 -11 22 -36q0 -24 -18.5 -40t-45.5 -16q-28 0 -44 15t-16 35q0 25 19 41.5t44 16.5z" />
    <glyph glyph-name="plusminus" unicode="&#xb1;" horiz-adv-x="304" 
d="M11 105v9q-1 25 12.5 32.5t76.5 10.5q1 113 68 113q20 0 29 -17q-10 -45 -12 -96q63 0 79.5 -7.5t16.5 -34.5q0 -16 -15 -21q-21 0 -46.5 -0.5t-36.5 -0.5q0 -25 1 -39t1.5 -19.5t3.5 -16t5 -20.5q-6 -14 -31 -14q-33 0 -47.5 21t-15.5 89q-9 0 -34.5 -5.5t-33.5 -5.5
q-9 0 -15 6.5t-6 15.5zM124 -34h41q56 0 80.5 -10t24.5 -34q0 -31 -18 -31q-3 0 -7.5 1.5t-6.5 1.5v-1q-38 11 -87 11h-22q-4 0 -70 -11q-11 0 -17.5 9.5t-6.5 21.5q0 22 22 32h-2q20 10 69 10z" />
    <glyph glyph-name="twosuperior" unicode="&#xb2;" horiz-adv-x="197" 
d="M126 202q31 0 42.5 -6t11.5 -20q0 -20 -15 -20q-4 0 -24.5 1t-23.5 1q-21 0 -36 -3q-43 -7 -49 -7q-8 0 -19.5 5.5t-11.5 11.5t37 48.5t46 51.5q30 42 30 50q0 3 -4 3q-12 -5 -21 -11.5t-17.5 -14.5t-12.5 -11q-25 0 -25 21q0 20 39 44t62 24q19 0 30.5 -10t11.5 -27
q0 -23 -26.5 -62t-56.5 -71q8 2 32 2z" />
    <glyph glyph-name="threesuperior" unicode="&#xb3;" horiz-adv-x="195" 
d="M164 220q0 -28 -22.5 -45.5t-56.5 -17.5q-30 0 -52.5 12t-22.5 30q0 7 7 12t16 5t17.5 -12t16.5 -12q16 0 28.5 7t12.5 20q0 14 -24 14q-1 0 -4 -1.5t-8 -2.5t-10 -1q-16 5 -16 24q0 7 4 13q59 24 64 53l-1 3l-7 2q-11 0 -25 -8.5t-23 -16.5l-8 -8q-9 0 -16.5 7.5
t-7.5 16.5q0 18 38 38t62 20q19 0 34 -12.5t15 -30.5q0 -17 -12 -37t-25 -29q26 -13 26 -43z" />
    <glyph glyph-name="acute" unicode="&#xb4;" horiz-adv-x="128" 
d="M89 416q17 0 31 -14.5t14 -25.5q0 -25 -46 -75.5t-66 -50.5q-8 0 -14.5 8t-6.5 18q0 21 33.5 80.5t54.5 59.5z" />
    <glyph glyph-name="mu" unicode="&#xb5;" horiz-adv-x="266" 
d="M18 114q0 47 -2.5 118.5t-2.5 78.5q0 39 84 39q26 0 26 -74q0 -11 -1.5 -79t-1.5 -111q0 -93 32 -93q15 0 24.5 10t13.5 29.5t5 35.5t1 39q0 227 30 227q21 0 21 -52q0 -9 -2 -111t-2 -116q-2 -53 -24.5 -89t-50.5 -36q-24 0 -50 30q3 -64 14 -107l-9 -13l-41 -5
q-20 0 -33 20t-22 84t-9 175z" />
    <glyph glyph-name="paragraph" unicode="&#xb6;" horiz-adv-x="422" 
d="M4 212q0 46 24.5 76t70 43.5t88.5 18t103 4.5q75 0 97 -10.5t22 -36.5q0 -3 -1.5 -8.5t-1.5 -6.5l-11 -9q-30 7 -57 12v-70q0 -5 0.5 -36t0.5 -34q0 -267 -34 -267q-3 0 -8.5 1.5t-6.5 1.5l-9 11q0 28 2.5 137t2.5 143v116h-24q-14 0 -28 -1v-72q0 -5 0.5 -36t0.5 -34
q0 -272 -57 -272q-3 0 -15 6t-13 6l-10 11q0 28 3 137.5t3 142.5v110q-53 -11 -53 -70q0 -20 22 -34.5t22 -30.5q0 -17 -14 -33.5t-39 -16.5q-31 0 -55.5 30t-24.5 71z" />
    <glyph glyph-name="periodcentered" unicode="&#xb7;" horiz-adv-x="205" 
d="M108 177q29 0 50 -19.5t21 -51.5q0 -40 -24 -71.5t-56 -31.5q-30 0 -50.5 18.5t-20.5 52.5q0 44 22 73.5t58 29.5z" />
    <glyph glyph-name="cedilla" unicode="&#xb8;" horiz-adv-x="177" 
d="M127 17l-45 -43q31 0 51.5 -18.5t20.5 -44.5q0 -37 -24.5 -62t-59.5 -25q-59 0 -59 34q0 12 6 17.5t12 5.5q8 0 22.5 -2.5t18.5 -2.5q12 0 23 7t11 23q0 15 -11 23.5t-24.5 10t-24.5 6t-11 12.5q0 20 27 51t39 31q8 0 18 -8t10 -15z" />
    <glyph glyph-name="onesuperior" unicode="&#xb9;" horiz-adv-x="112" 
d="M20 343l1 3q30 24 51 24q8 0 17 -7t9 -15q0 -19 -6 -75t-6 -76q0 -9 5 -27q-6 -14 -21 -14q-41 0 -41 43q0 7 9 124l-10 5q-6 4 -8 15z" />
    <glyph glyph-name="ordmasculine" unicode="&#xba;" horiz-adv-x="285" 
d="M255 321q0 -44 -24 -78t-63 -34q-63 0 -97.5 27t-34.5 76q0 79 38.5 118.5t75.5 39.5q51 0 51 -32q0 -3 -4 -25q29 -9 43.5 -34.5t14.5 -57.5zM154 371q-12 -28 -12 -59q0 -20 6 -38v1q9 -19 24 -19q36 0 36 51q0 48 -29 93q-6 -5 -14 -16.5t-11 -12.5z" />
    <glyph glyph-name="guillemotright" unicode="&#xbb;" horiz-adv-x="451" 
d="M99 297q0 -19 56 -80.5t92 -89.5q0 -6 -28 -36t-65.5 -74t-54.5 -79q-36 0 -51.5 14.5t-15.5 35.5q0 19 42 72.5t68 65.5q-30 20 -41.5 28t-34.5 27t-32.5 36.5t-9.5 36.5q0 15 25.5 29t49.5 14zM206 263q0 15 14 25.5t37 10.5q35 0 35 -16l-4 -10v-6q0 -8 10.5 -21.5
t30.5 -31.5t36.5 -31.5t40 -32t29.5 -23.5q0 -6 -35.5 -33.5t-70.5 -63t-35 -60.5l4 -5q3 -5 3 -14q0 -8 -17.5 -14.5t-32.5 -6.5q-64 0 -64 50q0 18 57.5 75.5t85.5 70.5q-124 79 -124 137z" />
    <glyph glyph-name="onequarter" unicode="&#xbc;" horiz-adv-x="395" 
d="M287 44l13 51q-30 -28 -44 -55q12 4 31 4zM212 -16l-13 28q0 19 59 91.5t79 72.5q4 0 12.5 -9.5t9.5 -14.5l-11 -53q-5 -15 -12 -49h15q32 0 32 -24q0 -14 -8 -18.5t-32 -4.5h-14q-1 -16 -1 -30q0 -7 2 -15t2 -12q0 -8 -6 -15t-17 -7q-29 0 -29 42q0 11 2 31
q-39 0 -70 -13zM20 321l1 4q29 28 50 28q8 0 17 -8.5t9 -17.5q0 -22 -6 -86.5t-6 -88.5q0 -12 5 -32q-7 -18 -21 -18q-40 0 -40 51q0 9 9 144l-10 7q-6 4 -8 17zM64 -62q0 42 90 224t106 182q10 0 23 -8.5t14 -19.5q-119 -228 -186 -402l-11 -1q-12 0 -24 6.5t-12 18.5z" />
    <glyph glyph-name="onehalf" unicode="&#xbd;" horiz-adv-x="426" 
d="M20 305l1 3q31 27 54 27q8 0 17.5 -8t9.5 -17q0 -21 -6.5 -83t-6.5 -85q0 -12 6 -31q-9 -16 -22 -16q-43 0 -43 49q0 7 9 137l-10 7q-7 5 -9 17zM68 -63q0 40 97 214.5t114 174.5q11 0 24.5 -8.5t14.5 -18.5q-131 -223 -200 -385l-12 -1q-14 0 -26 6.5t-12 17.5zM338 -18
q34 0 46.5 -6t12.5 -23q0 -22 -17 -22q-4 0 -25.5 1.5t-23.5 1.5q-21 0 -38 -5q-49 -7 -53 -7q-8 0 -20.5 6t-12.5 13q0 5 44 58t44 54q32 41 32 56q0 3 -4 3q-12 -6 -22 -13.5t-19 -16t-14 -11.5q-11 0 -18.5 6.5t-7.5 17.5q0 22 41 49t65 27q20 0 32.5 -12t12.5 -31
q0 -25 -28 -68t-60 -79q5 0 16 0.5t17 0.5z" />
    <glyph glyph-name="threequarters" unicode="&#xbe;" horiz-adv-x="434" 
d="M89 -122q0 51 100 259.5t116 208.5q11 0 24 -10t14 -23q-26 -57 -62 -136t-56 -123t-41.5 -91.5t-32.5 -74t-14 -38.5l-11 -1q-13 0 -25 8t-12 21zM151 161q0 -37 -23 -62t-57 -25q-30 0 -52 17t-22 43q0 10 6.5 16t14.5 6q10 0 19 -16.5t17 -16.5q16 0 28.5 9.5
t12.5 27.5q0 20 -24 20q-1 0 -4.5 -1.5t-9 -3.5t-10.5 -2q-15 6 -15 33q0 12 2 19q10 5 26 12.5t22 11t12 11t7 17.5l-2 4q-3 3 -7 3q-10 0 -24 -11t-23 -22l-9 -11q-10 0 -17 9.5t-7 20.5q0 26 38 54t62 28q20 0 36 -17t16 -43q0 -34 -39 -68q26 -23 26 -63zM246 -66
l-14 34q0 22 61 107.5t82 85.5q9 0 23 -27l-13 -63l-11 -59h14q34 0 34 -28q0 -17 -7.5 -22.5t-32.5 -5.5h-16q-1 -19 -1 -36q0 -8 2.5 -18t2.5 -14q0 -9 -6 -18t-18 -9q-30 0 -30 50q0 14 2 38q-39 0 -72 -15zM323 5l13 61q-30 -35 -45 -65q18 4 32 4z" />
    <glyph glyph-name="questiondown" unicode="&#xbf;" horiz-adv-x="236" 
d="M81 284q-6 24 -6 44q0 38 17.5 57.5t34.5 19.5q28 0 41.5 -15.5t13.5 -39.5q0 -29 -18.5 -53t-46.5 -24q-18 0 -36 11zM82 238q9 0 28.5 -15.5t19.5 -28.5q0 -19 -22 -97t-22 -100q0 -29 18 -29q8 0 20 15.5t22 47t10 68.5q0 7 1 8.5t7 1.5q17 0 27 -22t10 -56
q0 -65 -30 -121.5t-82 -56.5q-25 0 -44 24.5t-19 76.5q0 54 28 154.5t28 129.5z" />
    <glyph glyph-name="Agrave" unicode="&#xc0;" 
d="M165 334q-24 -2 -58 -21q-4 -17 -21 -17q-11 0 -19 22.5t-8 36.5q0 31 47 48.5t112 17.5q32 0 60.5 -14.5t29.5 -37.5q1 -17 9.5 -165t13.5 -186l7 -48q6 -27 8 -27l5 1q5 2 9 2q14 0 22 -11t8 -24q0 -15 -12 -23t-24 -8q-29 0 -46.5 29.5t-28.5 98.5h-70
q-20 -65 -44.5 -95.5t-69.5 -30.5q-41 0 -66.5 26.5t-25.5 61.5q0 30 21 58t45 28q8 0 15.5 -9t7.5 -17q0 1 -3 -2.5t-6.5 -9t-7.5 -12t-7 -13.5t-3 -11q0 -8 10 -8q26 0 58 150.5t32 209.5zM269 66l-14 260q-6 9 -9 9q-8 0 -14 -89q-1 -26 -5 -100l-5 -81zM158 627
q21 0 54.5 -59.5t33.5 -80.5q0 -10 -6.5 -18t-14.5 -8q-20 0 -66 50.5t-46 75.5q0 11 14 25.5t31 14.5z" />
    <glyph glyph-name="Aacute" unicode="&#xc1;" 
d="M165 334q-24 -2 -58 -21q-4 -17 -21 -17q-11 0 -19 22.5t-8 36.5q0 31 47 48.5t112 17.5q32 0 60.5 -14.5t29.5 -37.5q1 -17 9.5 -165t13.5 -186l7 -48q6 -27 8 -27l5 1q5 2 9 2q14 0 22 -11t8 -24q0 -15 -12 -23t-24 -8q-29 0 -46.5 29.5t-28.5 98.5h-70
q-20 -65 -44.5 -95.5t-69.5 -30.5q-41 0 -66.5 26.5t-25.5 61.5q0 30 21 58t45 28q8 0 15.5 -9t7.5 -17q0 1 -3 -2.5t-6.5 -9t-7.5 -12t-7 -13.5t-3 -11q0 -8 10 -8q26 0 58 150.5t32 209.5zM269 66l-14 260q-6 9 -9 9q-8 0 -14 -89q-1 -26 -5 -100l-5 -81zM279 624
q17 0 31 -14.5t14 -25.5q0 -25 -46 -75.5t-66 -50.5q-8 0 -14.5 8t-6.5 18q0 21 33.5 80.5t54.5 59.5z" />
    <glyph glyph-name="Acircumflex" unicode="&#xc2;" 
d="M165 334q-24 -2 -58 -21q-4 -17 -21 -17q-11 0 -19 22.5t-8 36.5q0 31 47 48.5t112 17.5q32 0 60.5 -14.5t29.5 -37.5q1 -17 9.5 -165t13.5 -186l7 -48q6 -27 8 -27l5 1q5 2 9 2q14 0 22 -11t8 -24q0 -15 -12 -23t-24 -8q-29 0 -46.5 29.5t-28.5 98.5h-70
q-20 -65 -44.5 -95.5t-69.5 -30.5q-41 0 -66.5 26.5t-25.5 61.5q0 30 21 58t45 28q8 0 15.5 -9t7.5 -17q0 1 -3 -2.5t-6.5 -9t-7.5 -12t-7 -13.5t-3 -11q0 -8 10 -8q26 0 58 150.5t32 209.5zM269 66l-14 260q-6 9 -9 9q-8 0 -14 -89q-1 -26 -5 -100l-5 -81zM231 603
q29 0 55 -55.5t26 -76.5q0 -12 -9.5 -19t-21.5 -7q-4 0 -13 13t-21 34.5t-18 29.5q-6 -7 -19.5 -29.5t-24 -36t-16.5 -13.5q-29 0 -29 30q0 24 35 77t56 53z" />
    <glyph glyph-name="Atilde" unicode="&#xc3;" 
d="M165 334q-24 -2 -58 -21q-4 -17 -21 -17q-11 0 -19 22.5t-8 36.5q0 31 47 48.5t112 17.5q32 0 60.5 -14.5t29.5 -37.5q1 -17 9.5 -165t13.5 -186l7 -48q6 -27 8 -27l5 1q5 2 9 2q14 0 22 -11t8 -24q0 -15 -12 -23t-24 -8q-29 0 -46.5 29.5t-28.5 98.5h-70
q-20 -65 -44.5 -95.5t-69.5 -30.5q-41 0 -66.5 26.5t-25.5 61.5q0 30 21 58t45 28q8 0 15.5 -9t7.5 -17q0 1 -3 -2.5t-6.5 -9t-7.5 -12t-7 -13.5t-3 -11q0 -8 10 -8q26 0 58 150.5t32 209.5zM269 66l-14 260q-6 9 -9 9q-8 0 -14 -89q-1 -26 -5 -100l-5 -81zM264 443
q-31 0 -53.5 18t-36.5 18q-9 0 -19.5 -14t-23.5 -14q-10 0 -20 11.5t-10 25.5q0 28 20.5 45t41.5 17q22 0 37.5 -8.5t22.5 -18.5t17.5 -18.5t22.5 -8.5q8 0 18.5 20.5t21.5 20.5t17.5 -12.5t6.5 -21.5q0 -27 -21 -43.5t-42 -16.5z" />
    <glyph glyph-name="Adieresis" unicode="&#xc4;" 
d="M165 334q-24 -2 -58 -21q-4 -17 -21 -17q-11 0 -19 22.5t-8 36.5q0 31 47 48.5t112 17.5q32 0 60.5 -14.5t29.5 -37.5q1 -17 9.5 -165t13.5 -186l7 -48q6 -27 8 -27l5 1q5 2 9 2q14 0 22 -11t8 -24q0 -15 -12 -23t-24 -8q-29 0 -46.5 29.5t-28.5 98.5h-70
q-20 -65 -44.5 -95.5t-69.5 -30.5q-41 0 -66.5 26.5t-25.5 61.5q0 30 21 58t45 28q8 0 15.5 -9t7.5 -17q0 1 -3 -2.5t-6.5 -9t-7.5 -12t-7 -13.5t-3 -11q0 -8 10 -8q26 0 58 150.5t32 209.5zM269 66l-14 260q-6 9 -9 9q-8 0 -14 -89q-1 -26 -5 -100l-5 -81zM189 494
q0 -20 -10 -35t-32 -15q-17 0 -29 12.5t-12 29.5t12 33.5t27 16.5q18 0 31 -11.5t13 -30.5zM305 492q0 -17 -12 -32t-32 -15q-17 0 -29 17t-12 37q0 16 11.5 28t26.5 12q23 0 35 -13t12 -34z" />
    <glyph glyph-name="Aring" unicode="&#xc5;" 
d="M165 334q-24 -2 -58 -21q-4 -17 -21 -17q-11 0 -19 22.5t-8 36.5q0 31 47 48.5t112 17.5q32 0 60.5 -14.5t29.5 -37.5q1 -17 9.5 -165t13.5 -186l7 -48q6 -27 8 -27l5 1q5 2 9 2q14 0 22 -11t8 -24q0 -15 -12 -23t-24 -8q-29 0 -46.5 29.5t-28.5 98.5h-70
q-20 -65 -44.5 -95.5t-69.5 -30.5q-41 0 -66.5 26.5t-25.5 61.5q0 30 21 58t45 28q8 0 15.5 -9t7.5 -17q0 1 -3 -2.5t-6.5 -9t-7.5 -12t-7 -13.5t-3 -11q0 -8 10 -8q26 0 58 150.5t32 209.5zM269 66l-14 260q-6 9 -9 9q-8 0 -14 -89q-1 -26 -5 -100l-5 -81zM166 517
q0 25 19.5 48t45.5 23q23 0 43.5 -18t20.5 -44q0 -28 -19 -49t-46 -21q-26 0 -45 18.5t-19 42.5zM215 524q0 -7 5 -14t11 -7q7 0 12.5 6t5.5 14q0 7 -5.5 12.5t-12.5 5.5t-11.5 -5t-4.5 -12z" />
    <glyph glyph-name="Ccedilla" unicode="&#xc7;" horiz-adv-x="303" 
d="M312 74q-13 -110 -59.5 -174.5t-108.5 -64.5t-105.5 59t-43.5 170q0 150 41 236t122 86q39 0 60.5 -24t21.5 -65q0 -43 -12 -118t-33 -75q-13 0 -23 10.5t-10 24.5q0 9 11 82.5t11 87.5q0 16 -8 16q-1 0 -3 -1t-3 -1q-39 -15 -59.5 -110.5t-20.5 -170.5
q0 -86 17.5 -128.5t46.5 -42.5q38 0 76.5 60t71.5 168q10 -10 10 -25zM159 -154l-45 -43q31 0 51.5 -18.5t20.5 -44.5q0 -37 -24.5 -62t-59.5 -25q-59 0 -59 34q0 12 6 17.5t12 5.5q8 0 22.5 -2.5t18.5 -2.5q12 0 23 7t11 23q0 15 -11 23.5t-24.5 10t-24.5 6t-11 12.5
q0 20 27 51t39 31q8 0 18 -8t10 -15z" />
    <glyph glyph-name="Egrave" unicode="&#xc8;" horiz-adv-x="274" 
d="M194 279v14q0 29 -14 47.5t-28 18.5q-21 0 -31.5 -16.5t-10.5 -41.5q0 -41 18 -85t45 -44q24 0 38.5 -13.5t14.5 -30.5q0 -15 -12 -25t-35 -10q-37 0 -57 -27.5t-20 -76.5q0 -50 18.5 -84.5t53.5 -34.5q22 0 28 23l1 8l-1 -1l-1 3q-1 3 -2.5 8.5t-1.5 12.5q0 26 27 26
q19 0 30.5 -17.5t11.5 -36.5q0 -39 -31.5 -63.5t-76.5 -24.5q-78 0 -119.5 51t-41.5 126q0 48 18.5 82t59.5 71q-33 17 -51.5 62t-18.5 84q0 53 37.5 93t101.5 40q56 0 83.5 -35t27.5 -91q0 -76 -55 -76q-15 0 -22.5 9t-7.5 21q0 28 24 34zM88 600q21 0 54.5 -59.5
t33.5 -80.5q0 -10 -6.5 -18t-14.5 -8q-20 0 -66 50.5t-46 75.5q0 11 14 25.5t31 14.5z" />
    <glyph glyph-name="Eacute" unicode="&#xc9;" horiz-adv-x="274" 
d="M194 279v14q0 29 -14 47.5t-28 18.5q-21 0 -31.5 -16.5t-10.5 -41.5q0 -41 18 -85t45 -44q24 0 38.5 -13.5t14.5 -30.5q0 -15 -12 -25t-35 -10q-37 0 -57 -27.5t-20 -76.5q0 -50 18.5 -84.5t53.5 -34.5q22 0 28 23l1 8l-1 -1l-1 3q-1 3 -2.5 8.5t-1.5 12.5q0 26 27 26
q19 0 30.5 -17.5t11.5 -36.5q0 -39 -31.5 -63.5t-76.5 -24.5q-78 0 -119.5 51t-41.5 126q0 48 18.5 82t59.5 71q-33 17 -51.5 62t-18.5 84q0 53 37.5 93t101.5 40q56 0 83.5 -35t27.5 -91q0 -76 -55 -76q-15 0 -22.5 9t-7.5 21q0 28 24 34zM179 598q17 0 31 -14.5t14 -25.5
q0 -25 -46 -75.5t-66 -50.5q-8 0 -14.5 8t-6.5 18q0 21 33.5 80.5t54.5 59.5z" />
    <glyph glyph-name="Ecircumflex" unicode="&#xca;" horiz-adv-x="274" 
d="M194 279v14q0 29 -14 47.5t-28 18.5q-21 0 -31.5 -16.5t-10.5 -41.5q0 -41 18 -85t45 -44q24 0 38.5 -13.5t14.5 -30.5q0 -15 -12 -25t-35 -10q-37 0 -57 -27.5t-20 -76.5q0 -50 18.5 -84.5t53.5 -34.5q22 0 28 23l1 8l-1 -1l-1 3q-1 3 -2.5 8.5t-1.5 12.5q0 26 27 26
q19 0 30.5 -17.5t11.5 -36.5q0 -39 -31.5 -63.5t-76.5 -24.5q-78 0 -119.5 51t-41.5 126q0 48 18.5 82t59.5 71q-33 17 -51.5 62t-18.5 84q0 53 37.5 93t101.5 40q56 0 83.5 -35t27.5 -91q0 -76 -55 -76q-15 0 -22.5 9t-7.5 21q0 28 24 34zM143 586q29 0 55 -55.5t26 -76.5
q0 -12 -9.5 -19t-21.5 -7q-4 0 -13 13t-21 34.5t-18 29.5q-6 -7 -19.5 -29.5t-24 -36t-16.5 -13.5q-29 0 -29 30q0 24 35 77t56 53z" />
    <glyph glyph-name="Edieresis" unicode="&#xcb;" horiz-adv-x="274" 
d="M194 279v14q0 29 -14 47.5t-28 18.5q-21 0 -31.5 -16.5t-10.5 -41.5q0 -41 18 -85t45 -44q24 0 38.5 -13.5t14.5 -30.5q0 -15 -12 -25t-35 -10q-37 0 -57 -27.5t-20 -76.5q0 -50 18.5 -84.5t53.5 -34.5q22 0 28 23l1 8l-1 -1l-1 3q-1 3 -2.5 8.5t-1.5 12.5q0 26 27 26
q19 0 30.5 -17.5t11.5 -36.5q0 -39 -31.5 -63.5t-76.5 -24.5q-78 0 -119.5 51t-41.5 126q0 48 18.5 82t59.5 71q-33 17 -51.5 62t-18.5 84q0 53 37.5 93t101.5 40q56 0 83.5 -35t27.5 -91q0 -76 -55 -76q-15 0 -22.5 9t-7.5 21q0 28 24 34zM125 486q0 -20 -10 -35t-32 -15
q-17 0 -29 12.5t-12 29.5t12 33.5t27 16.5q18 0 31 -11.5t13 -30.5zM241 484q0 -17 -12 -32t-32 -15q-17 0 -29 17t-12 37q0 16 11.5 28t26.5 12q23 0 35 -13t12 -34z" />
    <glyph glyph-name="Igrave" unicode="&#xcc;" horiz-adv-x="318" 
d="M38 370q-15 0 -15 24q0 19 24 24t97 5h78q5 0 14.5 -0.5t13.5 -0.5q8 0 21.5 1t18.5 1q6 0 10.5 -6.5t4.5 -14.5q0 -29 -31 -29q-18 0 -52 2q-1 -3 -2.5 -8.5t-2.5 -10t-1 -8.5q-7 -35 -12.5 -143.5t-5.5 -169.5h8q15 0 37.5 0.5t29.5 0.5q13 0 13 -23q0 -32 -29 -32
q-18 0 -56.5 2t-57.5 2q-64 0 -95 -3q-4 0 -10 -2t-10 -4l-4 -2q-15 0 -15 27q0 18 18 26t64 9q-1 4 -1 14q0 66 4 130l9 162l4 37q-43 -2 -69 -10zM117 604q21 0 54.5 -59.5t33.5 -80.5q0 -10 -6.5 -18t-14.5 -8q-20 0 -66 50.5t-46 75.5q0 11 14 25.5t31 14.5z" />
    <glyph glyph-name="Iacute" unicode="&#xcd;" horiz-adv-x="318" 
d="M38 370q-15 0 -15 24q0 19 24 24t97 5h78q5 0 14.5 -0.5t13.5 -0.5q8 0 21.5 1t18.5 1q6 0 10.5 -6.5t4.5 -14.5q0 -29 -31 -29q-18 0 -52 2q-1 -3 -2.5 -8.5t-2.5 -10t-1 -8.5q-7 -35 -12.5 -143.5t-5.5 -169.5h8q15 0 37.5 0.5t29.5 0.5q13 0 13 -23q0 -32 -29 -32
q-18 0 -56.5 2t-57.5 2q-64 0 -95 -3q-4 0 -10 -2t-10 -4l-4 -2q-15 0 -15 27q0 18 18 26t64 9q-1 4 -1 14q0 66 4 130l9 162l4 37q-43 -2 -69 -10zM220 601q17 0 31 -14.5t14 -25.5q0 -25 -46 -75.5t-66 -50.5q-8 0 -14.5 8t-6.5 18q0 21 33.5 80.5t54.5 59.5z" />
    <glyph glyph-name="Icircumflex" unicode="&#xce;" horiz-adv-x="318" 
d="M38 370q-15 0 -15 24q0 19 24 24t97 5h78q5 0 14.5 -0.5t13.5 -0.5q8 0 21.5 1t18.5 1q6 0 10.5 -6.5t4.5 -14.5q0 -29 -31 -29q-18 0 -52 2q-1 -3 -2.5 -8.5t-2.5 -10t-1 -8.5q-7 -35 -12.5 -143.5t-5.5 -169.5h8q15 0 37.5 0.5t29.5 0.5q13 0 13 -23q0 -32 -29 -32
q-18 0 -56.5 2t-57.5 2q-64 0 -95 -3q-4 0 -10 -2t-10 -4l-4 -2q-15 0 -15 27q0 18 18 26t64 9q-1 4 -1 14q0 66 4 130l9 162l4 37q-43 -2 -69 -10zM175 613q29 0 55 -55.5t26 -76.5q0 -12 -9.5 -19t-21.5 -7q-4 0 -13 13t-21 34.5t-18 29.5q-6 -7 -19.5 -29.5t-24 -36
t-16.5 -13.5q-29 0 -29 30q0 24 35 77t56 53z" />
    <glyph glyph-name="Idieresis" unicode="&#xcf;" horiz-adv-x="318" 
d="M38 370q-15 0 -15 24q0 19 24 24t97 5h78q5 0 14.5 -0.5t13.5 -0.5q8 0 21.5 1t18.5 1q6 0 10.5 -6.5t4.5 -14.5q0 -29 -31 -29q-18 0 -52 2q-1 -3 -2.5 -8.5t-2.5 -10t-1 -8.5q-7 -35 -12.5 -143.5t-5.5 -169.5h8q15 0 37.5 0.5t29.5 0.5q13 0 13 -23q0 -32 -29 -32
q-18 0 -56.5 2t-57.5 2q-64 0 -95 -3q-4 0 -10 -2t-10 -4l-4 -2q-15 0 -15 27q0 18 18 26t64 9q-1 4 -1 14q0 66 4 130l9 162l4 37q-43 -2 -69 -10zM153 492q0 -20 -10 -35t-32 -15q-17 0 -29 12.5t-12 29.5t12 33.5t27 16.5q18 0 31 -11.5t13 -30.5zM269 490q0 -17 -12 -32
t-32 -15q-17 0 -29 17t-12 37q0 16 11.5 28t26.5 12q23 0 35 -13t12 -34z" />
    <glyph glyph-name="Eth" unicode="&#xd0;" horiz-adv-x="379" 
d="M120 95h33q44 0 65.5 -15.5t21.5 -38.5q0 -26 -14 -26l-103 10q-2 0 -24 -4t-34 -4q-19 0 -19 27q0 21 18.5 36t55.5 15zM106 246q0 34 13.5 52t32.5 18q24 0 43.5 -23t19.5 -61q0 -9 -9.5 -132.5t-9.5 -145.5q0 -5 9 -13t20 -8q32 0 53.5 71.5t21.5 149.5
q0 86 -31.5 143t-95.5 57q-50 0 -78.5 -39.5t-28.5 -116.5h-1q8 -7 8 -21q0 -11 -11 -18.5t-24 -7.5q-18 0 -29.5 16.5t-11.5 33.5q0 106 53.5 160.5t120.5 54.5q94 0 141 -73t47 -183q0 -65 -14.5 -129.5t-43 -110.5t-64.5 -46q-30 0 -50 23q-7 -9 -30.5 -19t-45.5 -10
q-27 0 -57.5 20t-30.5 38q0 16 7.5 23t15.5 7q5 0 10.5 -3.5t14 -11t9.5 -7.5v1q0 1 6.5 70.5t13 146t6.5 94.5z" />
    <glyph glyph-name="Ntilde" unicode="&#xd1;" horiz-adv-x="431" 
d="M125 -130q-32 0 -32 84q0 70 17 231q4 44 4 88q0 128 -39 128q-21 0 -35.5 -30.5t-14.5 -88.5q0 -57 36 -57q18 0 33 17q0 -30 -23.5 -46t-56.5 -16q-84 0 -84 83q0 85 47.5 132.5t103.5 47.5q94 0 94 -274q33 121 68.5 190.5t82.5 69.5q38 0 60.5 -28.5t22.5 -82.5
q0 -11 -31.5 -220t-31.5 -336q0 -58 5 -101.5t16.5 -80.5t34.5 -56.5t56 -19.5q39 0 67.5 23.5t28.5 58.5q0 51 -28 89q88 -33 88 -108q0 -79 -53 -128t-125 -49q-203 0 -203 322q0 105 21.5 241t42.5 238.5t21 126.5q0 41 -18 41q-27 0 -81 -194.5t-54 -263.5
q0 -31 -40 -31zM289 435q-31 0 -53.5 18t-36.5 18q-9 0 -19.5 -14t-23.5 -14q-10 0 -20 11.5t-10 25.5q0 28 20.5 45t41.5 17q22 0 37.5 -8.5t22.5 -18.5t17.5 -18.5t22.5 -8.5q8 0 18.5 20.5t21.5 20.5t17.5 -12.5t6.5 -21.5q0 -27 -21 -43.5t-42 -16.5z" />
    <glyph glyph-name="Ograve" unicode="&#xd2;" horiz-adv-x="308" 
d="M213 48q9 76 9 117q0 147 -69 147q-46 0 -101 -62q-10 -8 -21 -8q-33 0 -33 28q0 43 41 76t97 33q32 0 56 -8t48 -28.5t37 -64.5t13 -108q0 -139 -49.5 -237t-110.5 -98q-60 0 -95.5 53.5t-35.5 127.5q0 103 51 181.5t95 78.5q15 0 23 -8t8 -16q0 -10 -4 -14
q-18 -32 -35.5 -114.5t-17.5 -118.5q0 -77 31 -77q19 0 36.5 30.5t26.5 89.5zM117 564q21 0 54.5 -59.5t33.5 -80.5q0 -10 -6.5 -18t-14.5 -8q-20 0 -66 50.5t-46 75.5q0 11 14 25.5t31 14.5z" />
    <glyph glyph-name="Oacute" unicode="&#xd3;" horiz-adv-x="308" 
d="M213 48q9 76 9 117q0 147 -69 147q-46 0 -101 -62q-10 -8 -21 -8q-33 0 -33 28q0 43 41 76t97 33q32 0 56 -8t48 -28.5t37 -64.5t13 -108q0 -139 -49.5 -237t-110.5 -98q-60 0 -95.5 53.5t-35.5 127.5q0 103 51 181.5t95 78.5q15 0 23 -8t8 -16q0 -10 -4 -14
q-18 -32 -35.5 -114.5t-17.5 -118.5q0 -77 31 -77q19 0 36.5 30.5t26.5 89.5zM202 570q17 0 31 -14.5t14 -25.5q0 -25 -46 -75.5t-66 -50.5q-8 0 -14.5 8t-6.5 18q0 21 33.5 80.5t54.5 59.5z" />
    <glyph glyph-name="Ocircumflex" unicode="&#xd4;" horiz-adv-x="308" 
d="M213 48q9 76 9 117q0 147 -69 147q-46 0 -101 -62q-10 -8 -21 -8q-33 0 -33 28q0 43 41 76t97 33q32 0 56 -8t48 -28.5t37 -64.5t13 -108q0 -139 -49.5 -237t-110.5 -98q-60 0 -95.5 53.5t-35.5 127.5q0 103 51 181.5t95 78.5q15 0 23 -8t8 -16q0 -10 -4 -14
q-18 -32 -35.5 -114.5t-17.5 -118.5q0 -77 31 -77q19 0 36.5 30.5t26.5 89.5zM164 558q29 0 55 -55.5t26 -76.5q0 -12 -9.5 -19t-21.5 -7q-4 0 -13 13t-21 34.5t-18 29.5q-6 -7 -19.5 -29.5t-24 -36t-16.5 -13.5q-29 0 -29 30q0 24 35 77t56 53z" />
    <glyph glyph-name="Otilde" unicode="&#xd5;" horiz-adv-x="308" 
d="M213 48q9 76 9 117q0 147 -69 147q-46 0 -101 -62q-10 -8 -21 -8q-33 0 -33 28q0 43 41 76t97 33q32 0 56 -8t48 -28.5t37 -64.5t13 -108q0 -139 -49.5 -237t-110.5 -98q-60 0 -95.5 53.5t-35.5 127.5q0 103 51 181.5t95 78.5q15 0 23 -8t8 -16q0 -10 -4 -14
q-18 -32 -35.5 -114.5t-17.5 -118.5q0 -77 31 -77q19 0 36.5 30.5t26.5 89.5zM212 387q-31 0 -53.5 18t-36.5 18q-9 0 -19.5 -14t-23.5 -14q-10 0 -20 11.5t-10 25.5q0 28 20.5 45t41.5 17q22 0 37.5 -8.5t22.5 -18.5t17.5 -18.5t22.5 -8.5q8 0 18.5 20.5t21.5 20.5
t17.5 -12.5t6.5 -21.5q0 -27 -21 -43.5t-42 -16.5z" />
    <glyph glyph-name="Odieresis" unicode="&#xd6;" horiz-adv-x="308" 
d="M213 48q9 76 9 117q0 147 -69 147q-46 0 -101 -62q-10 -8 -21 -8q-33 0 -33 28q0 43 41 76t97 33q32 0 56 -8t48 -28.5t37 -64.5t13 -108q0 -139 -49.5 -237t-110.5 -98q-60 0 -95.5 53.5t-35.5 127.5q0 103 51 181.5t95 78.5q15 0 23 -8t8 -16q0 -10 -4 -14
q-18 -32 -35.5 -114.5t-17.5 -118.5q0 -77 31 -77q19 0 36.5 30.5t26.5 89.5zM138 439q0 -20 -10 -35t-32 -15q-17 0 -29 12.5t-12 29.5t12 33.5t27 16.5q18 0 31 -11.5t13 -30.5zM254 437q0 -17 -12 -32t-32 -15q-17 0 -29 17t-12 37q0 16 11.5 28t26.5 12q23 0 35 -13
t12 -34z" />
    <glyph glyph-name="multiply" unicode="&#xd7;" horiz-adv-x="304" 
d="M33 196q0 19 13 28.5t23 9.5q17 0 45 -30q2 -2 34 -38q67 75 98 75q13 0 29 -16t16 -29q0 -9 -12.5 -24t-38.5 -39.5t-35 -34.5q60 -69 60 -103q0 -35 -20 -35q-14 0 -26 11t-31 38.5t-28 37.5q-19 -21 -37.5 -50t-30 -42.5t-24.5 -13.5q-12 0 -27 13.5t-15 24.5
q0 41 73 130q-12 14 -26.5 28t-21.5 21t-12.5 16.5t-5.5 21.5z" />
    <glyph glyph-name="Oslash" unicode="&#xd8;" horiz-adv-x="308" 
d="M42 -127q0 32 111 262t127 230q18 0 22 -27q-4 -5 -43 -82.5t-95 -195.5t-95 -209q-7 0 -17 6.5t-10 15.5zM213 48q9 76 9 117q0 147 -69 147q-46 0 -101 -62q-10 -8 -21 -8q-33 0 -33 28q0 43 41 76t97 33q32 0 56 -8t48 -28.5t37 -64.5t13 -108q0 -139 -49.5 -237
t-110.5 -98q-60 0 -95.5 53.5t-35.5 127.5q0 103 51 181.5t95 78.5q15 0 23 -8t8 -16q0 -10 -4 -14q-18 -32 -35.5 -114.5t-17.5 -118.5q0 -77 31 -77q19 0 36.5 30.5t26.5 89.5z" />
    <glyph glyph-name="Ugrave" unicode="&#xd9;" horiz-adv-x="437" 
d="M82 210q-35 0 -56 25t-21 55q0 44 32 70.5t75 26.5q47 0 80.5 -33.5t33.5 -97.5q0 -22 -1 -34q-2 -21 -15.5 -92t-18.5 -104q0 -30 11 -30q9 0 24.5 40t30 105t17.5 125q0 9 1 24q1 33 2.5 46t9 23t23.5 10q36 -8 36 -63q0 -53 -12 -181t-12 -167q0 -52 14 -52
q20 0 47.5 49.5t54.5 146.5q13 -8 13 -29q0 -61 -49 -150t-94 -89q-31 0 -31 106q0 34 3.5 118t3.5 125q-2 -35 -9.5 -76.5t-20 -83t-32.5 -69t-44 -27.5q-80 0 -80 104v16q0 9 18 88.5t18 130.5q0 42 -9.5 65t-22.5 23t-22 -22.5t-9 -61.5q0 -30 11 -60zM179 554
q21 0 54.5 -59.5t33.5 -80.5q0 -10 -6.5 -18t-14.5 -8q-20 0 -66 50.5t-46 75.5q0 11 14 25.5t31 14.5z" />
    <glyph glyph-name="Uacute" unicode="&#xda;" horiz-adv-x="437" 
d="M82 210q-35 0 -56 25t-21 55q0 44 32 70.5t75 26.5q47 0 80.5 -33.5t33.5 -97.5q0 -22 -1 -34q-2 -21 -15.5 -92t-18.5 -104q0 -30 11 -30q9 0 24.5 40t30 105t17.5 125q0 9 1 24q1 33 2.5 46t9 23t23.5 10q36 -8 36 -63q0 -53 -12 -181t-12 -167q0 -52 14 -52
q20 0 47.5 49.5t54.5 146.5q13 -8 13 -29q0 -61 -49 -150t-94 -89q-31 0 -31 106q0 34 3.5 118t3.5 125q-2 -35 -9.5 -76.5t-20 -83t-32.5 -69t-44 -27.5q-80 0 -80 104v16q0 9 18 88.5t18 130.5q0 42 -9.5 65t-22.5 23t-22 -22.5t-9 -61.5q0 -30 11 -60zM290 544
q17 0 31 -14.5t14 -25.5q0 -25 -46 -75.5t-66 -50.5q-8 0 -14.5 8t-6.5 18q0 21 33.5 80.5t54.5 59.5z" />
    <glyph glyph-name="Ucircumflex" unicode="&#xdb;" horiz-adv-x="437" 
d="M82 210q-35 0 -56 25t-21 55q0 44 32 70.5t75 26.5q47 0 80.5 -33.5t33.5 -97.5q0 -22 -1 -34q-2 -21 -15.5 -92t-18.5 -104q0 -30 11 -30q9 0 24.5 40t30 105t17.5 125q0 9 1 24q1 33 2.5 46t9 23t23.5 10q36 -8 36 -63q0 -53 -12 -181t-12 -167q0 -52 14 -52
q20 0 47.5 49.5t54.5 146.5q13 -8 13 -29q0 -61 -49 -150t-94 -89q-31 0 -31 106q0 34 3.5 118t3.5 125q-2 -35 -9.5 -76.5t-20 -83t-32.5 -69t-44 -27.5q-80 0 -80 104v16q0 9 18 88.5t18 130.5q0 42 -9.5 65t-22.5 23t-22 -22.5t-9 -61.5q0 -30 11 -60zM241 556
q29 0 55 -55.5t26 -76.5q0 -12 -9.5 -19t-21.5 -7q-4 0 -13 13t-21 34.5t-18 29.5q-6 -7 -19.5 -29.5t-24 -36t-16.5 -13.5q-29 0 -29 30q0 24 35 77t56 53z" />
    <glyph glyph-name="Udieresis" unicode="&#xdc;" horiz-adv-x="437" 
d="M82 210q-35 0 -56 25t-21 55q0 44 32 70.5t75 26.5q47 0 80.5 -33.5t33.5 -97.5q0 -22 -1 -34q-2 -21 -15.5 -92t-18.5 -104q0 -30 11 -30q9 0 24.5 40t30 105t17.5 125q0 9 1 24q1 33 2.5 46t9 23t23.5 10q36 -8 36 -63q0 -53 -12 -181t-12 -167q0 -52 14 -52
q20 0 47.5 49.5t54.5 146.5q13 -8 13 -29q0 -61 -49 -150t-94 -89q-31 0 -31 106q0 34 3.5 118t3.5 125q-2 -35 -9.5 -76.5t-20 -83t-32.5 -69t-44 -27.5q-80 0 -80 104v16q0 9 18 88.5t18 130.5q0 42 -9.5 65t-22.5 23t-22 -22.5t-9 -61.5q0 -30 11 -60zM205 451
q0 -20 -10 -35t-32 -15q-17 0 -29 12.5t-12 29.5t12 33.5t27 16.5q18 0 31 -11.5t13 -30.5zM321 449q0 -17 -12 -32t-32 -15q-17 0 -29 17t-12 37q0 16 11.5 28t26.5 12q23 0 35 -13t12 -34z" />
    <glyph glyph-name="Yacute" unicode="&#xdd;" horiz-adv-x="316" 
d="M-8 343q-23 9 -23 29q0 24 15.5 43.5t41.5 19.5q46 0 76.5 -40.5t30.5 -116.5q0 -39 -10.5 -125t-10.5 -123q0 -30 9 -31q34 0 65.5 61t41.5 132q0 4 26 158q0 2 0.5 7t1 6.5t2 5.5t3.5 5t6 2.5t9 1.5q28 0 31 -35q-6 -53 -15 -141t-15.5 -151.5t-8.5 -76.5
q-43 -285 -142 -285q-38 0 -66.5 26.5t-28.5 69.5q1 5 3.5 12t9 14.5t15.5 7.5q15 0 24 -9t11.5 -20t8 -20.5t14.5 -10.5q25 0 57 111t45 207q-64 -147 -115 -147q-66 0 -66 136q0 39 5.5 107t5.5 87q0 42 -18.5 62.5t-38.5 20.5zM239 564q17 0 31 -14.5t14 -25.5
q0 -25 -46 -75.5t-66 -50.5q-8 0 -14.5 8t-6.5 18q0 21 33.5 80.5t54.5 59.5z" />
    <glyph glyph-name="Thorn" unicode="&#xde;" horiz-adv-x="273" 
d="M26 6q0 9 -1.5 139.5t-1.5 155.5q0 34 21 55t52 21q10 0 20 -16t10 -27q0 -3 -1 -16.5t-2 -24.5q14 2 19 2q56 0 87.5 -42.5t31.5 -127.5q0 -60 -44.5 -105.5t-80.5 -45.5q-2 0 -5.5 -0.5t-4.5 -0.5v-11q0 -31 -12 -47t-24 -16q-25 0 -46 10t-21 19q0 2 1.5 29t1.5 49z
M205 125q0 21 -2 36.5t-9.5 35t-25.5 32t-46 16.5q0 -8 3 -227q80 37 80 107z" />
    <glyph glyph-name="germandbls" unicode="&#xdf;" horiz-adv-x="298" 
d="M104 -146q-26 3 -41 27t-23.5 88.5t-8.5 178.5v40q0 4 -0.5 32.5t-0.5 35.5q0 78 38 114t93 36q47 0 70 -33.5t23 -76.5q0 -20 -20 -63.5t-20 -50.5q0 -6 16 -23.5t32.5 -45t16.5 -57.5t-2.5 -49t-9.5 -38.5t-24 -29t-43 -9.5q-53 0 -53 54q0 43 31 43q12 0 16.5 -6.5
t3 -13.5t0.5 -13.5t10 -6.5q4 0 7.5 1t5.5 4t4 5.5t2.5 7t1.5 7.5t1 9v8.5v8.5v8q0 32 -32 76t-32 59q0 13 14 47t14 63q0 41 -27 41q-24 0 -31 -11.5t-7 -43.5v-240q0 -90 13 -151q4 -33 -22 -33q-3 0 -7.5 0.5t-6.5 0.5h-2z" />
    <glyph glyph-name="agrave" unicode="&#xe0;" horiz-adv-x="381" 
d="M395 57q-26 -173 -99 -173q-53 0 -88 77t-42 173q-20 -66 -48.5 -113t-58.5 -47q-39 0 -58 31t-19 81q0 78 41 147t103 69q40 0 53 -36q20 48 64 48q7 0 23.5 -7t16.5 -17l-1 1q-1 0 -5 -32t-8.5 -85.5t-4.5 -98.5q0 -57 12 -96t31 -39q15 0 38 51t36 123q7 0 10.5 -21
t3.5 -36zM134 238q-4 2 -8 2q-20 0 -36.5 -55.5t-16.5 -106.5q0 -47 17 -47q10 0 21.5 25.5t29 83t25.5 79.5q-12 15 -32 19zM115 499q21 0 54.5 -59.5t33.5 -80.5q0 -10 -6.5 -18t-14.5 -8q-20 0 -66 50.5t-46 75.5q0 11 14 25.5t31 14.5z" />
    <glyph glyph-name="aacute" unicode="&#xe1;" horiz-adv-x="381" 
d="M395 57q-26 -173 -99 -173q-53 0 -88 77t-42 173q-20 -66 -48.5 -113t-58.5 -47q-39 0 -58 31t-19 81q0 78 41 147t103 69q40 0 53 -36q20 48 64 48q7 0 23.5 -7t16.5 -17l-1 1q-1 0 -5 -32t-8.5 -85.5t-4.5 -98.5q0 -57 12 -96t31 -39q15 0 38 51t36 123q7 0 10.5 -21
t3.5 -36zM134 238q-4 2 -8 2q-20 0 -36.5 -55.5t-16.5 -106.5q0 -47 17 -47q10 0 21.5 25.5t29 83t25.5 79.5q-12 15 -32 19zM223 494q17 0 31 -14.5t14 -25.5q0 -25 -46 -75.5t-66 -50.5q-8 0 -14.5 8t-6.5 18q0 21 33.5 80.5t54.5 59.5z" />
    <glyph glyph-name="acircumflex" unicode="&#xe2;" horiz-adv-x="381" 
d="M395 57q-26 -173 -99 -173q-53 0 -88 77t-42 173q-20 -66 -48.5 -113t-58.5 -47q-39 0 -58 31t-19 81q0 78 41 147t103 69q40 0 53 -36q20 48 64 48q7 0 23.5 -7t16.5 -17l-1 1q-1 0 -5 -32t-8.5 -85.5t-4.5 -98.5q0 -57 12 -96t31 -39q15 0 38 51t36 123q7 0 10.5 -21
t3.5 -36zM134 238q-4 2 -8 2q-20 0 -36.5 -55.5t-16.5 -106.5q0 -47 17 -47q10 0 21.5 25.5t29 83t25.5 79.5q-12 15 -32 19zM167 487q29 0 55 -55.5t26 -76.5q0 -12 -9.5 -19t-21.5 -7q-4 0 -13 13t-21 34.5t-18 29.5q-6 -7 -19.5 -29.5t-24 -36t-16.5 -13.5q-29 0 -29 30
q0 24 35 77t56 53z" />
    <glyph glyph-name="atilde" unicode="&#xe3;" horiz-adv-x="381" 
d="M395 57q-26 -173 -99 -173q-53 0 -88 77t-42 173q-20 -66 -48.5 -113t-58.5 -47q-39 0 -58 31t-19 81q0 78 41 147t103 69q40 0 53 -36q20 48 64 48q7 0 23.5 -7t16.5 -17l-1 1q-1 0 -5 -32t-8.5 -85.5t-4.5 -98.5q0 -57 12 -96t31 -39q15 0 38 51t36 123q7 0 10.5 -21
t3.5 -36zM134 238q-4 2 -8 2q-20 0 -36.5 -55.5t-16.5 -106.5q0 -47 17 -47q10 0 21.5 25.5t29 83t25.5 79.5q-12 15 -32 19zM213 327q-31 0 -53.5 18t-36.5 18q-9 0 -19.5 -14t-23.5 -14q-10 0 -20 11.5t-10 25.5q0 28 20.5 45t41.5 17q22 0 37.5 -8.5t22.5 -18.5
t17.5 -18.5t22.5 -8.5q8 0 18.5 20.5t21.5 20.5t17.5 -12.5t6.5 -21.5q0 -27 -21 -43.5t-42 -16.5z" />
    <glyph glyph-name="adieresis" unicode="&#xe4;" horiz-adv-x="381" 
d="M395 57q-26 -173 -99 -173q-53 0 -88 77t-42 173q-20 -66 -48.5 -113t-58.5 -47q-39 0 -58 31t-19 81q0 78 41 147t103 69q40 0 53 -36q20 48 64 48q7 0 23.5 -7t16.5 -17l-1 1q-1 0 -5 -32t-8.5 -85.5t-4.5 -98.5q0 -57 12 -96t31 -39q15 0 38 51t36 123q7 0 10.5 -21
t3.5 -36zM134 238q-4 2 -8 2q-20 0 -36.5 -55.5t-16.5 -106.5q0 -47 17 -47q10 0 21.5 25.5t29 83t25.5 79.5q-12 15 -32 19zM143 380q0 -20 -10 -35t-32 -15q-17 0 -29 12.5t-12 29.5t12 33.5t27 16.5q18 0 31 -11.5t13 -30.5zM259 378q0 -17 -12 -32t-32 -15q-17 0 -29 17
t-12 37q0 16 11.5 28t26.5 12q23 0 35 -13t12 -34z" />
    <glyph glyph-name="aring" unicode="&#xe5;" horiz-adv-x="381" 
d="M395 57q-26 -173 -99 -173q-53 0 -88 77t-42 173q-20 -66 -48.5 -113t-58.5 -47q-39 0 -58 31t-19 81q0 78 41 147t103 69q40 0 53 -36q20 48 64 48q7 0 23.5 -7t16.5 -17l-1 1q-1 0 -5 -32t-8.5 -85.5t-4.5 -98.5q0 -57 12 -96t31 -39q15 0 38 51t36 123q7 0 10.5 -21
t3.5 -36zM134 238q-4 2 -8 2q-20 0 -36.5 -55.5t-16.5 -106.5q0 -47 17 -47q10 0 21.5 25.5t29 83t25.5 79.5q-12 15 -32 19zM94 392q0 25 19.5 48t45.5 23q23 0 43.5 -18t20.5 -44q0 -28 -19 -49t-46 -21q-26 0 -45 18.5t-19 42.5zM143 399q0 -7 5 -14t11 -7q7 0 12.5 6
t5.5 14q0 7 -5.5 12.5t-12.5 5.5t-11.5 -5t-4.5 -12z" />
    <glyph glyph-name="ccedilla" unicode="&#xe7;" horiz-adv-x="343" 
d="M358 70q-11 -57 -29 -104.5t-44.5 -87.5t-64.5 -62.5t-83 -22.5h1q-45 4 -77 41.5t-46 89.5t-14 112q0 110 44 197t116 87q51 0 83 -46.5t32 -102.5q0 -39 -18 -65t-53 -26q-8 0 -8 5q1 20 1 53q0 100 -25 100q-20 0 -36 -69.5t-16 -149.5q0 -74 16 -125t49 -51
q84 0 158 251q14 -14 14 -24zM197 -185l-45 -43q31 0 51.5 -18.5t20.5 -44.5q0 -37 -24.5 -62t-59.5 -25q-59 0 -59 34q0 12 6 17.5t12 5.5q8 0 22.5 -2.5t18.5 -2.5q12 0 23 7t11 23q0 15 -11 23.5t-24.5 10t-24.5 6t-11 12.5q0 20 27 51t39 31q8 0 18 -8t10 -15z" />
    <glyph glyph-name="egrave" unicode="&#xe8;" horiz-adv-x="293" 
d="M311 71q-20 -119 -69.5 -177.5t-109.5 -58.5q-58 0 -100 68t-42 177q0 82 40 144t108 62q33 0 54.5 -24t21.5 -73q0 -57 -30 -106t-70 -49q-20 0 -28 7q1 -70 22 -106.5t53 -36.5q39 0 77.5 53.5t55.5 143.5q5 -1 11 -8.5t6 -15.5zM150 210q-23 0 -43 -48t-21 -102
q31 3 59 41.5t28 72.5q0 36 -23 36zM104 353q0 -20 -10 -35t-32 -15q-17 0 -29 12.5t-12 29.5t12 33.5t27 16.5q18 0 31 -11.5t13 -30.5zM220 351q0 -17 -12 -32t-32 -15q-17 0 -29 17t-12 37q0 16 11.5 28t26.5 12q23 0 35 -13t12 -34z" />
    <glyph glyph-name="eacute" unicode="&#xe9;" horiz-adv-x="293" 
d="M311 71q-20 -119 -69.5 -177.5t-109.5 -58.5q-58 0 -100 68t-42 177q0 82 40 144t108 62q33 0 54.5 -24t21.5 -73q0 -57 -30 -106t-70 -49q-20 0 -28 7q1 -70 22 -106.5t53 -36.5q39 0 77.5 53.5t55.5 143.5q5 -1 11 -8.5t6 -15.5zM150 210q-23 0 -43 -48t-21 -102
q31 3 59 41.5t28 72.5q0 36 -23 36zM203 466q17 0 31 -14.5t14 -25.5q0 -25 -46 -75.5t-66 -50.5q-8 0 -14.5 8t-6.5 18q0 21 33.5 80.5t54.5 59.5z" />
    <glyph glyph-name="ecircumflex" unicode="&#xea;" horiz-adv-x="293" 
d="M311 71q-20 -119 -69.5 -177.5t-109.5 -58.5q-58 0 -100 68t-42 177q0 82 40 144t108 62q33 0 54.5 -24t21.5 -73q0 -57 -30 -106t-70 -49q-20 0 -28 7q1 -70 22 -106.5t53 -36.5q39 0 77.5 53.5t55.5 143.5q5 -1 11 -8.5t6 -15.5zM150 210q-23 0 -43 -48t-21 -102
q31 3 59 41.5t28 72.5q0 36 -23 36zM136 468q29 0 55 -55.5t26 -76.5q0 -12 -9.5 -19t-21.5 -7q-4 0 -13 13t-21 34.5t-18 29.5q-6 -7 -19.5 -29.5t-24 -36t-16.5 -13.5q-29 0 -29 30q0 24 35 77t56 53z" />
    <glyph glyph-name="edieresis" unicode="&#xeb;" horiz-adv-x="293" 
d="M311 71q-20 -119 -69.5 -177.5t-109.5 -58.5q-58 0 -100 68t-42 177q0 82 40 144t108 62q33 0 54.5 -24t21.5 -73q0 -57 -30 -106t-70 -49q-20 0 -28 7q1 -70 22 -106.5t53 -36.5q39 0 77.5 53.5t55.5 143.5q5 -1 11 -8.5t6 -15.5zM150 210q-23 0 -43 -48t-21 -102
q31 3 59 41.5t28 72.5q0 36 -23 36zM104 353q0 -20 -10 -35t-32 -15q-17 0 -29 12.5t-12 29.5t12 33.5t27 16.5q18 0 31 -11.5t13 -30.5zM220 351q0 -17 -12 -32t-32 -15q-17 0 -29 17t-12 37q0 16 11.5 28t26.5 12q23 0 35 -13t12 -34z" />
    <glyph glyph-name="igrave" unicode="&#xec;" horiz-adv-x="226" 
d="M12 -134q0 20 -5 96t-5 91q-28 14 -28 37q0 25 25 48.5t48 23.5q27 0 45 -14t18 -42q0 -6 -2 -119t-2 -120q0 -13 4 -13q33 0 75 112t42 152q9 0 16 -7.5t7 -20.5q0 -24 -12.5 -71t-33 -98t-53 -89t-67.5 -38q-72 0 -72 72zM15 358q21 0 54.5 -59.5t33.5 -80.5
q0 -10 -6.5 -18t-14.5 -8q-20 0 -66 50.5t-46 75.5q0 11 14 25.5t31 14.5z" />
    <glyph glyph-name="iacute" unicode="&#xed;" horiz-adv-x="226" 
d="M12 -134q0 20 -5 96t-5 91q-28 14 -28 37q0 25 25 48.5t48 23.5q27 0 45 -14t18 -42q0 -6 -2 -119t-2 -120q0 -13 4 -13q33 0 75 112t42 152q9 0 16 -7.5t7 -20.5q0 -24 -12.5 -71t-33 -98t-53 -89t-67.5 -38q-72 0 -72 72zM69 356q17 0 31 -14.5t14 -25.5
q0 -25 -46 -75.5t-66 -50.5q-8 0 -14.5 8t-6.5 18q0 21 33.5 80.5t54.5 59.5z" />
    <glyph glyph-name="icircumflex" unicode="&#xee;" horiz-adv-x="226" 
d="M12 -134q0 20 -5 96t-5 91q-28 14 -28 37q0 25 25 48.5t48 23.5q27 0 45 -14t18 -42q0 -6 -2 -119t-2 -120q0 -13 4 -13q33 0 75 112t42 152q9 0 16 -7.5t7 -20.5q0 -24 -12.5 -71t-33 -98t-53 -89t-67.5 -38q-72 0 -72 72zM51 346q29 0 55 -55.5t26 -76.5
q0 -12 -9.5 -19t-21.5 -7q-4 0 -13 13t-21 34.5t-18 29.5q-6 -7 -19.5 -29.5t-24 -36t-16.5 -13.5q-29 0 -29 30q0 24 35 77t56 53z" />
    <glyph glyph-name="idieresis" unicode="&#xef;" horiz-adv-x="226" 
d="M12 -134q0 20 -5 96t-5 91q-28 14 -28 37q0 25 25 48.5t48 23.5q27 0 45 -14t18 -42q0 -6 -2 -119t-2 -120q0 -13 4 -13q33 0 75 112t42 152q9 0 16 -7.5t7 -20.5q0 -24 -12.5 -71t-33 -98t-53 -89t-67.5 -38q-72 0 -72 72zM19 290q0 -28 -12 -49.5t-38 -21.5
q-20 0 -34 17.5t-14 42.5q0 24 14.5 47.5t31.5 23.5q21 0 36.5 -16t15.5 -44zM156 287q0 -24 -14 -45.5t-38 -21.5q-21 0 -35 24.5t-14 53.5q0 23 13.5 40t31.5 17q27 0 41.5 -19t14.5 -49z" />
    <glyph glyph-name="eth" unicode="&#xf0;" horiz-adv-x="270" 
d="M183 245q-43 -26 -46 -26q-8 0 -14 7.5t-6 14.5q0 15 45 44q-6 6 -12 6q-42 0 -42 28q0 21 35 21q31 0 59 -34q28 17 41 17q6 0 11.5 -5.5t5.5 -12.5q0 -14 -38 -36q35 -78 35 -192q0 -83 -25.5 -133.5t-72.5 -50.5q-72 0 -106.5 46.5t-34.5 117.5t35 103.5t86 32.5
q32 0 61 -27q-6 46 -17 79zM165 153q-35 0 -35 -112q0 -22 10.5 -52.5t26.5 -30.5q39 0 39 122q0 28 -3 54q-19 19 -38 19z" />
    <glyph glyph-name="ntilde" unicode="&#xf1;" horiz-adv-x="326" 
d="M357 -485q-111 0 -151 89t-40 290q0 84 19 211t19 159q0 54 -11 54q-12 0 -23 -50t-19.5 -111.5t-31 -115t-54.5 -59.5q-32 0 -49 17t-20.5 35.5t-3.5 47.5q0 11 0.5 43.5t0.5 44.5q0 47 -8 62q1 11 16.5 26.5t35.5 15.5q24 0 31 -49t8 -98t10 -49q8 2 17.5 50.5
t18.5 105.5t34 104t61 47q33 0 43 -42t10 -121q0 -37 -2 -163t-2 -234q0 -124 34 -197.5t107 -73.5q33 0 52 19.5t19 43.5q27 0 27 -26q0 -8 -9 -20t-25.5 -25t-47 -22t-66.5 -9zM201 405q-31 0 -53.5 18t-36.5 18q-9 0 -19.5 -14t-23.5 -14q-10 0 -20 11.5t-10 25.5
q0 28 20.5 45t41.5 17q22 0 37.5 -8.5t22.5 -18.5t17.5 -18.5t22.5 -8.5q8 0 18.5 20.5t21.5 20.5t17.5 -12.5t6.5 -21.5q0 -27 -21 -43.5t-42 -16.5z" />
    <glyph glyph-name="ograve" unicode="&#xf2;" horiz-adv-x="282" 
d="M-14 23q0 26 8 68.5t21 70.5q-1 8 -1 23q0 54 21 80t53 26q59 0 90.5 -56.5t31.5 -127.5q0 -50 -18 -96.5t-50 -74.5q19 -29 36 -29q24 0 51.5 55.5t52.5 147.5q7 0 12.5 -5t5.5 -11q-8 -83 -42 -157.5t-71 -74.5q-33 0 -73 56q-24 -11 -48 -11q-35 0 -57.5 34t-22.5 82z
M80 157q-5 -3 -12 -16q11 -55 33 -118q9 37 9 83q0 50 -9 90t-26 40q-13 0 -13 -44q22 -5 22 -24q0 -6 -4 -11zM80 -27q-25 50 -38 89q-3 -16 -3 -28q0 -73 20 -73q11 0 21 12zM70 478q21 0 54.5 -59.5t33.5 -80.5q0 -10 -6.5 -18t-14.5 -8q-20 0 -66 50.5t-46 75.5
q0 11 14 25.5t31 14.5z" />
    <glyph glyph-name="oacute" unicode="&#xf3;" horiz-adv-x="282" 
d="M-14 23q0 26 8 68.5t21 70.5q-1 8 -1 23q0 54 21 80t53 26q59 0 90.5 -56.5t31.5 -127.5q0 -50 -18 -96.5t-50 -74.5q19 -29 36 -29q24 0 51.5 55.5t52.5 147.5q7 0 12.5 -5t5.5 -11q-8 -83 -42 -157.5t-71 -74.5q-33 0 -73 56q-24 -11 -48 -11q-35 0 -57.5 34t-22.5 82z
M80 157q-5 -3 -12 -16q11 -55 33 -118q9 37 9 83q0 50 -9 90t-26 40q-13 0 -13 -44q22 -5 22 -24q0 -6 -4 -11zM80 -27q-25 50 -38 89q-3 -16 -3 -28q0 -73 20 -73q11 0 21 12zM156 473q17 0 31 -14.5t14 -25.5q0 -25 -46 -75.5t-66 -50.5q-8 0 -14.5 8t-6.5 18
q0 21 33.5 80.5t54.5 59.5z" />
    <glyph glyph-name="ocircumflex" unicode="&#xf4;" horiz-adv-x="282" 
d="M-14 23q0 26 8 68.5t21 70.5q-1 8 -1 23q0 54 21 80t53 26q59 0 90.5 -56.5t31.5 -127.5q0 -50 -18 -96.5t-50 -74.5q19 -29 36 -29q24 0 51.5 55.5t52.5 147.5q7 0 12.5 -5t5.5 -11q-8 -83 -42 -157.5t-71 -74.5q-33 0 -73 56q-24 -11 -48 -11q-35 0 -57.5 34t-22.5 82z
M80 157q-5 -3 -12 -16q11 -55 33 -118q9 37 9 83q0 50 -9 90t-26 40q-13 0 -13 -44q22 -5 22 -24q0 -6 -4 -11zM80 -27q-25 50 -38 89q-3 -16 -3 -28q0 -73 20 -73q11 0 21 12zM96 463q29 0 55 -55.5t26 -76.5q0 -12 -9.5 -19t-21.5 -7q-4 0 -13 13t-21 34.5t-18 29.5
q-6 -7 -19.5 -29.5t-24 -36t-16.5 -13.5q-29 0 -29 30q0 24 35 77t56 53z" />
    <glyph glyph-name="otilde" unicode="&#xf5;" horiz-adv-x="282" 
d="M-14 23q0 26 8 68.5t21 70.5q-1 8 -1 23q0 54 21 80t53 26q59 0 90.5 -56.5t31.5 -127.5q0 -50 -18 -96.5t-50 -74.5q19 -29 36 -29q24 0 51.5 55.5t52.5 147.5q7 0 12.5 -5t5.5 -11q-8 -83 -42 -157.5t-71 -74.5q-33 0 -73 56q-24 -11 -48 -11q-35 0 -57.5 34t-22.5 82z
M80 157q-5 -3 -12 -16q11 -55 33 -118q9 37 9 83q0 50 -9 90t-26 40q-13 0 -13 -44q22 -5 22 -24q0 -6 -4 -11zM80 -27q-25 50 -38 89q-3 -16 -3 -28q0 -73 20 -73q11 0 21 12zM141 304q-31 0 -53.5 18t-36.5 18q-9 0 -19.5 -14t-23.5 -14q-10 0 -20 11.5t-10 25.5
q0 28 20.5 45t41.5 17q22 0 37.5 -8.5t22.5 -18.5t17.5 -18.5t22.5 -8.5q8 0 18.5 20.5t21.5 20.5t17.5 -12.5t6.5 -21.5q0 -27 -21 -43.5t-42 -16.5z" />
    <glyph glyph-name="odieresis" unicode="&#xf6;" horiz-adv-x="282" 
d="M-14 23q0 26 8 68.5t21 70.5q-1 8 -1 23q0 54 21 80t53 26q59 0 90.5 -56.5t31.5 -127.5q0 -50 -18 -96.5t-50 -74.5q19 -29 36 -29q24 0 51.5 55.5t52.5 147.5q7 0 12.5 -5t5.5 -11q-8 -83 -42 -157.5t-71 -74.5q-33 0 -73 56q-24 -11 -48 -11q-35 0 -57.5 34t-22.5 82z
M80 157q-5 -3 -12 -16q11 -55 33 -118q9 37 9 83q0 50 -9 90t-26 40q-13 0 -13 -44q22 -5 22 -24q0 -6 -4 -11zM80 -27q-25 50 -38 89q-3 -16 -3 -28q0 -73 20 -73q11 0 21 12zM71 353q0 -20 -10 -35t-32 -15q-17 0 -29 12.5t-12 29.5t12 33.5t27 16.5q18 0 31 -11.5
t13 -30.5zM187 351q0 -17 -12 -32t-32 -15q-17 0 -29 17t-12 37q0 16 11.5 28t26.5 12q23 0 35 -13t12 -34z" />
    <glyph glyph-name="divide" unicode="&#xf7;" horiz-adv-x="237" 
d="M74 -58v11l8 14l5 3l1 5l21 10l4 -3l8 2l17 -3q14 -3 20 -18.5t6 -23.5q0 -20 -22 -37l-14 -5q-1 0 -3 -1t-4 -1q-22 0 -34.5 13.5t-12.5 33.5zM70 169l1 11l7 14l6 4l1 4l21 10l3 -2l8 1l17 -3q14 -3 21 -18.5t7 -23.5q0 -18 -24 -37l-13 -5q-2 0 -4 -0.5t-3 -0.5
q-23 0 -35.5 13t-12.5 33zM95 88h33q99 0 99 -39q0 -32 -14 -32q-8 0 -12 2l1 -1q-33 9 -86 9h-18q-2 0 -14 -2.5t-28.5 -5t-28.5 -2.5q-9 0 -14 11t-5 23q0 17 18 25h-1q21 12 70 12z" />
    <glyph glyph-name="oslash" unicode="&#xf8;" horiz-adv-x="259" 
d="M218 438l-70 -192q43 -63 43 -153q0 -63 -19 -115q27 3 47.5 25t39.5 80q6 0 11.5 -5.5t5.5 -11.5q0 -55 -40.5 -91.5t-82.5 -36.5h-1q-39 -65 -97 -65q-12 0 -24 6l-74 -207l-12 -3q-17 0 -17 37q13 35 37.5 110.5t32.5 93.5q-25 39 -25 99q0 30 8 75.5t22 75.5
q-1 8 -1 25q0 54 20.5 80t52.5 26q22 0 43 -14q7 20 16.5 51.5t16 51t13.5 39.5t12.5 29.5t9.5 9.5q9 0 20.5 -6.5t11.5 -13.5zM67 157q-5 -2 -11 -15q9 -47 31 -92q3 26 3 48q0 41 -7 89.5t-20 48.5t-13 -44q21 -5 21 -24q0 -6 -4 -11zM76 -15q-26 31 -45 76q-4 -20 -4 -40
q0 -86 21 -86q14 0 28 50z" />
    <glyph glyph-name="ugrave" unicode="&#xf9;" horiz-adv-x="409" 
d="M55 230q47 0 47 -46q0 -16 -7.5 -111t-7.5 -145q0 -54 25 -54q12 0 26 19t29 57.5t31.5 106t30.5 155.5q13 0 27.5 -2.5t29 -11t14.5 -22.5l-6 -283q-2 -49 12 -49q5 0 12 15t16.5 44.5t18.5 59t22 72.5t22 71q10 -3 10 -36q0 -69 -38.5 -173.5t-82.5 -104.5
q-38 0 -59.5 44t-21.5 122q-11 -52 -45.5 -96t-64.5 -44q-42 0 -72.5 35.5t-33.5 95.5q-3 66 -3 114q0 85 14.5 126t54.5 41zM85 401q21 0 54.5 -59.5t33.5 -80.5q0 -10 -6.5 -18t-14.5 -8q-20 0 -66 50.5t-46 75.5q0 11 14 25.5t31 14.5z" />
    <glyph glyph-name="uacute" unicode="&#xfa;" horiz-adv-x="409" 
d="M55 230q47 0 47 -46q0 -16 -7.5 -111t-7.5 -145q0 -54 25 -54q12 0 26 19t29 57.5t31.5 106t30.5 155.5q13 0 27.5 -2.5t29 -11t14.5 -22.5l-6 -283q-2 -49 12 -49q5 0 12 15t16.5 44.5t18.5 59t22 72.5t22 71q10 -3 10 -36q0 -69 -38.5 -173.5t-82.5 -104.5
q-38 0 -59.5 44t-21.5 122q-11 -52 -45.5 -96t-64.5 -44q-42 0 -72.5 35.5t-33.5 95.5q-3 66 -3 114q0 85 14.5 126t54.5 41zM218 403q17 0 31 -14.5t14 -25.5q0 -25 -46 -75.5t-66 -50.5q-8 0 -14.5 8t-6.5 18q0 21 33.5 80.5t54.5 59.5z" />
    <glyph glyph-name="ucircumflex" unicode="&#xfb;" horiz-adv-x="409" 
d="M55 230q47 0 47 -46q0 -16 -7.5 -111t-7.5 -145q0 -54 25 -54q12 0 26 19t29 57.5t31.5 106t30.5 155.5q13 0 27.5 -2.5t29 -11t14.5 -22.5l-6 -283q-2 -49 12 -49q5 0 12 15t16.5 44.5t18.5 59t22 72.5t22 71q10 -3 10 -36q0 -69 -38.5 -173.5t-82.5 -104.5
q-38 0 -59.5 44t-21.5 122q-11 -52 -45.5 -96t-64.5 -44q-42 0 -72.5 35.5t-33.5 95.5q-3 66 -3 114q0 85 14.5 126t54.5 41zM171 403q29 0 55 -55.5t26 -76.5q0 -12 -9.5 -19t-21.5 -7q-4 0 -13 13t-21 34.5t-18 29.5q-6 -7 -19.5 -29.5t-24 -36t-16.5 -13.5q-29 0 -29 30
q0 24 35 77t56 53z" />
    <glyph glyph-name="udieresis" unicode="&#xfc;" horiz-adv-x="409" 
d="M55 230q47 0 47 -46q0 -16 -7.5 -111t-7.5 -145q0 -54 25 -54q12 0 26 19t29 57.5t31.5 106t30.5 155.5q13 0 27.5 -2.5t29 -11t14.5 -22.5l-6 -283q-2 -49 12 -49q5 0 12 15t16.5 44.5t18.5 59t22 72.5t22 71q10 -3 10 -36q0 -69 -38.5 -173.5t-82.5 -104.5
q-38 0 -59.5 44t-21.5 122q-11 -52 -45.5 -96t-64.5 -44q-42 0 -72.5 35.5t-33.5 95.5q-3 66 -3 114q0 85 14.5 126t54.5 41zM157 300q0 -20 -10 -35t-32 -15q-17 0 -29 12.5t-12 29.5t12 33.5t27 16.5q18 0 31 -11.5t13 -30.5zM273 298q0 -17 -12 -32t-32 -15q-17 0 -29 17
t-12 37q0 16 11.5 28t26.5 12q23 0 35 -13t12 -34z" />
    <glyph glyph-name="yacute" unicode="&#xfd;" horiz-adv-x="355" 
d="M90 106q-10 -47 -10 -72q0 -30 13 -30q12 0 32.5 28t39.5 86.5t19 123.5q0 36 15 64t43 28q20 0 34 -13t14 -38q0 -44 11 -120t31 -186t24 -137q102 7 188 7q133 0 247 -20.5t184.5 -59.5t70.5 -89q0 -49 -28 -69q-22 0 -22 11q0 61 -80.5 107t-190 66.5t-221.5 20.5
q-79 0 -143 -8q4 -42 4 -61q0 -102 -56.5 -159.5t-194.5 -57.5q-78 0 -133 39t-55 110q0 44 85 85t233 64q-25 249 -33 292q-24 -76 -65 -120.5t-80 -44.5q-34 0 -56 36t-22 105q0 74 21 111t53 37q22 0 39.5 -17t17.5 -43q0 -37 -29 -76zM249 -255q0 14 -2 44
q-117 -21 -199 -51.5t-82 -53.5q0 -45 41.5 -84t92.5 -39q149 0 149 184zM175 452q17 0 31 -14.5t14 -25.5q0 -25 -46 -75.5t-66 -50.5q-8 0 -14.5 8t-6.5 18q0 21 33.5 80.5t54.5 59.5z" />
    <glyph glyph-name="thorn" unicode="&#xfe;" horiz-adv-x="294" 
d="M197 299q25 0 48.5 -32.5t23.5 -87.5q0 -86 -65 -181q-9 -4 -18 -4q-12 0 -19.5 9.5t-7.5 24.5q0 13 4 22q22 13 39 53.5t17 78.5q0 50 -30 63q-36 -86 -36 -324q0 -20 -9 -31.5t-22 -11.5q-67 0 -75 27v-1q-2 9 -2.5 81t-4.5 176.5t-16 182.5q7 17 7 19q0 9 20.5 14.5
t34.5 5.5q10 0 22 -6t14 -16q0 2 -2 2q5 -5 9 -58t4 -106q0 -23 -2 -49q22 147 66 149z" />
    <glyph glyph-name="ydieresis" unicode="&#xff;" horiz-adv-x="355" 
d="M90 106q-10 -47 -10 -72q0 -30 13 -30q12 0 32.5 28t39.5 86.5t19 123.5q0 36 15 64t43 28q20 0 34 -13t14 -38q0 -44 11 -120t31 -186t24 -137q102 7 188 7q133 0 247 -20.5t184.5 -59.5t70.5 -89q0 -49 -28 -69q-22 0 -22 11q0 61 -80.5 107t-190 66.5t-221.5 20.5
q-79 0 -143 -8q4 -42 4 -61q0 -102 -56.5 -159.5t-194.5 -57.5q-78 0 -133 39t-55 110q0 44 85 85t233 64q-25 249 -33 292q-24 -76 -65 -120.5t-80 -44.5q-34 0 -56 36t-22 105q0 74 21 111t53 37q22 0 39.5 -17t17.5 -43q0 -37 -29 -76zM249 -255q0 14 -2 44
q-117 -21 -199 -51.5t-82 -53.5q0 -45 41.5 -84t92.5 -39q149 0 149 184zM92 341q0 -20 -8.5 -35.5t-27.5 -15.5q-14 0 -24 13t-10 30q0 18 10.5 34.5t22.5 16.5q15 0 26 -11.5t11 -31.5zM190 339q0 -17 -10 -32.5t-27 -15.5q-15 0 -25 17.5t-10 38.5q0 16 9.5 28t22.5 12
q19 0 29.5 -13t10.5 -35z" />
    <glyph glyph-name="Amacron" unicode="&#x100;" 
d="M265 527q18 -3 28 -13.5t10 -23.5q0 -10 -6 -17.5t-18 -6.5l-101 5l-40 -4q-13 0 -20.5 7t-7.5 17q0 36 63 36h92zM165 334q-24 -2 -58 -21q-4 -17 -21 -17q-11 0 -19 22.5t-8 36.5q0 31 47 48.5t112 17.5q32 0 60.5 -14.5t29.5 -37.5q1 -17 9.5 -165t13.5 -186l7 -48
q6 -27 8 -27l5 1q5 2 9 2q14 0 22 -11t8 -24q0 -15 -12 -23t-24 -8q-29 0 -46.5 29.5t-28.5 98.5h-70q-20 -65 -44.5 -95.5t-69.5 -30.5q-41 0 -66.5 26.5t-25.5 61.5q0 30 21 58t45 28q8 0 15.5 -9t7.5 -17q0 1 -3 -2.5t-6.5 -9t-7.5 -12t-7 -13.5t-3 -11q0 -8 10 -8
q26 0 58 150.5t32 209.5zM269 66l-14 260q-6 9 -9 9q-8 0 -14 -89q-1 -26 -5 -100l-5 -81z" />
    <glyph glyph-name="amacron" unicode="&#x101;" horiz-adv-x="381" 
d="M395 57q-26 -173 -99 -173q-53 0 -88 77t-42 173q-20 -66 -48.5 -113t-58.5 -47q-39 0 -58 31t-19 81q0 78 41 147t103 69q40 0 53 -36q20 48 64 48q7 0 23.5 -7t16.5 -17l-1 1q-1 0 -5 -32t-8.5 -85.5t-4.5 -98.5q0 -57 12 -96t31 -39q15 0 38 51t36 123q7 0 10.5 -21
t3.5 -36zM134 238q-4 2 -8 2q-20 0 -36.5 -55.5t-16.5 -106.5q0 -47 17 -47q10 0 21.5 25.5t29 83t25.5 79.5q-12 15 -32 19zM216 406q18 -3 28 -13.5t10 -23.5q0 -10 -6 -17.5t-18 -6.5l-101 5l-40 -4q-13 0 -20.5 7t-7.5 17q0 36 63 36h92z" />
    <glyph glyph-name="Abreve" unicode="&#x102;" 
d="M165 334q-24 -2 -58 -21q-4 -17 -21 -17q-11 0 -19 22.5t-8 36.5q0 31 47 48.5t112 17.5q32 0 60.5 -14.5t29.5 -37.5q1 -17 9.5 -165t13.5 -186l7 -48q6 -27 8 -27l5 1q5 2 9 2q14 0 22 -11t8 -24q0 -15 -12 -23t-24 -8q-29 0 -46.5 29.5t-28.5 98.5h-70
q-20 -65 -44.5 -95.5t-69.5 -30.5q-41 0 -66.5 26.5t-25.5 61.5q0 30 21 58t45 28q8 0 15.5 -9t7.5 -17q0 1 -3 -2.5t-6.5 -9t-7.5 -12t-7 -13.5t-3 -11q0 -8 10 -8q26 0 58 150.5t32 209.5zM269 66l-14 260q-6 9 -9 9q-8 0 -14 -89q-1 -26 -5 -100l-5 -81zM153 568
q18 0 25.5 -9.5t8 -20.5t8.5 -20.5t26 -9.5q15 0 22 9.5t8 20.5t7.5 20.5t19.5 9.5t20 -9t7 -19q0 -6 -3.5 -18.5t-11.5 -29t-26 -28.5t-42 -12q-49 0 -72.5 23.5t-23.5 60.5q0 14 8 23t19 9z" />
    <glyph glyph-name="Aogonek" unicode="&#x104;" 
d="M165 334q-24 -2 -58 -21q-4 -17 -21 -17q-11 0 -19 22.5t-8 36.5q0 31 47 48.5t112 17.5q32 0 60.5 -14.5t29.5 -37.5q1 -17 9.5 -165t13.5 -186l7 -48q6 -27 8 -27l5 1q5 2 9 2q14 0 22 -11t8 -24q0 -15 -12 -23t-24 -8q-29 0 -46.5 29.5t-28.5 98.5h-70
q-20 -65 -44.5 -95.5t-69.5 -30.5q-41 0 -66.5 26.5t-25.5 61.5q0 30 21 58t45 28q8 0 15.5 -9t7.5 -17q0 1 -3 -2.5t-6.5 -9t-7.5 -12t-7 -13.5t-3 -11q0 -8 10 -8q26 0 58 150.5t32 209.5zM269 66l-14 260q-6 9 -9 9q-8 0 -14 -89q-1 -26 -5 -100l-5 -81zM321 -79
q25 0 25 -15q0 -2 -0.5 -6.5t-0.5 -5.5q0 -3 -34.5 -38t-34.5 -48q0 -5 4 -11.5t12 -6.5q13 0 19 6.5t6.5 15t7 15t20.5 6.5q25 0 25 -26q0 -6 -8 -21t-28 -31t-45 -16q-40 0 -60 18t-20 47q0 39 42.5 78t69.5 39z" />
    <glyph glyph-name="Dcroat" unicode="&#x110;" horiz-adv-x="350" 
d="M97 124h33q44 0 65.5 -15.5t21.5 -38.5q0 -26 -14 -26l-103 10q-2 0 -24 -4t-34 -4q-19 0 -19 27q0 21 18.5 36t55.5 15zM77 246q0 34 13.5 52t32.5 18q24 0 43.5 -23t19.5 -61q0 -9 -9.5 -132.5t-9.5 -145.5q0 -5 9 -13t20 -8q32 0 53.5 71.5t21.5 149.5q0 86 -31.5 143
t-95.5 57q-50 0 -78.5 -39.5t-28.5 -116.5h-1q8 -7 8 -21q0 -11 -11 -18.5t-24 -7.5q-18 0 -29.5 16.5t-11.5 33.5q0 106 53.5 160.5t120.5 54.5q94 0 141 -73t47 -183q0 -65 -14.5 -129.5t-43 -110.5t-64.5 -46q-30 0 -50 23q-7 -9 -30.5 -19t-45.5 -10q-27 0 -57.5 20
t-30.5 38q0 16 7 23t16 7q5 0 10.5 -3.5t14 -11t9.5 -7.5v1q0 1 6.5 70.5t13 146t6.5 94.5z" />
    <glyph glyph-name="dcroat" unicode="&#x111;" horiz-adv-x="474" 
d="M490 59q0 -37 -25 -94t-68 -104t-85 -47q-54 0 -96 78t-49 199q-61 -169 -95 -169q-40 0 -61 34t-21 85q0 69 44 139.5t101 70.5q22 0 33 -29q11 181 59 274.5t115 93.5q51 0 76 -45t25 -119q0 -122 -53 -257t-116 -163q22 -129 56 -129q41 0 85.5 72t58.5 143
q16 -2 16 -33zM266 150q0 -67 2 -94q56 39 98.5 151.5t42.5 214.5q0 127 -52 127q-41 0 -66 -106t-25 -293zM162 174q-18 12 -27 12q-21 0 -40.5 -43t-19.5 -78q0 -29 7 -50t17 -21q7 0 28.5 60.5t39.5 123.5zM204 404h38q51 0 76 -16.5t25 -40.5q0 -28 -17 -28l-119 11
q-2 0 -28 -4.5t-39 -4.5q-10 0 -16 8.5t-6 20.5q0 22 21.5 38t64.5 16z" />
    <glyph glyph-name="dotlessi" unicode="&#x131;" horiz-adv-x="226" 
d="M12 -134q0 20 -5 96t-5 91q-28 14 -28 37q0 25 25 48.5t48 23.5q27 0 45 -14t18 -42q0 -6 -2 -119t-2 -120q0 -13 4 -13q33 0 75 112t42 152q9 0 16 -7.5t7 -20.5q0 -24 -12.5 -71t-33 -98t-53 -89t-67.5 -38q-72 0 -72 72z" />
    <glyph glyph-name="Lslash" unicode="&#x141;" horiz-adv-x="214" 
d="M-3 -10q0 49 26.5 214.5t26.5 209.5q0 15 22 25.5t42 10.5q36 0 36 -38t-16 -203t-16 -219q0 -34 25 -34q17 0 41 14q4 2 6 2q9 -1 16.5 -13.5t7.5 -24.5q0 -25 -35.5 -37t-70.5 -12q-52 0 -81.5 28.5t-29.5 76.5zM62 195h33q44 0 65.5 -15.5t21.5 -38.5q0 -26 -14 -26
l-103 10q-2 0 -24 -4t-34 -4q-19 0 -19 27q0 21 18.5 36t55.5 15z" />
    <glyph glyph-name="lslash" unicode="&#x142;" horiz-adv-x="284" 
d="M309 90q0 -35 -25 -97t-71 -116.5t-93 -54.5q-49 0 -88.5 109.5t-39.5 261.5q0 363 133 363q72 0 107 -42t35 -101q0 -79 -58 -205.5t-108 -166.5q10 -155 34 -155q40 0 75.5 58.5t82.5 178.5q5 -1 10.5 -10t5.5 -23zM97 173q0 -35 2 -93q53 50 93 155.5t40 174.5
q0 41 -19 72t-55 31q-12 0 -21 -6t-15.5 -17t-11 -26.5t-7 -34.5t-4 -41.5t-2 -48t-0.5 -52.5v-56v-58zM43 36h33q44 0 65.5 -15.5t21.5 -38.5q0 -26 -14 -26l-103 10q-2 0 -24 -4t-34 -4q-19 0 -19 27q0 21 18.5 36t55.5 15z" />
    <glyph glyph-name="Scaron" unicode="&#x160;" horiz-adv-x="318" 
d="M90 -34q-4 -5 -4 -16q0 -23 14 -41.5t38 -18.5q19 0 34 23t15 51q0 44 -16 81.5t-39 63.5t-46 50t-39 52t-16 58q0 63 44.5 97.5t94.5 34.5q58 0 96.5 -51t38.5 -136q0 -15 -8 -29t-24 -14t-25 10t-9 21q0 6 3 17t3 16q0 119 -57 119q-23 0 -42.5 -18t-19.5 -46
q0 -32 18 -66t44 -64l52 -60t44 -64t18 -65q0 -49 -41 -100t-99 -51q-27 0 -49 7q-110 35 -110 144q0 55 23 85t60 30q46 0 46 -34q0 -27 -42 -86zM161 428q-9 0 -42.5 35.5t-33.5 51.5q0 28 29 28q18 0 59 -52q35 50 51 50q23 0 23 -22q0 -10 -23.5 -41t-39.5 -43
q-14 -7 -23 -7z" />
    <glyph glyph-name="scaron" unicode="&#x161;" horiz-adv-x="332" 
d="M213 -136q0 34 -23 61t-56 45.5t-66.5 37t-56.5 46t-23 62.5q0 70 51.5 111t113.5 41q58 0 101.5 -34t43.5 -90q0 -66 -83 -66q-36 0 -36 8q18 23 18 70q0 33 -12.5 50.5t-30.5 17.5q-21 0 -43.5 -23t-22.5 -55q0 -35 24.5 -62.5t59 -47.5t69 -41.5t59 -56t24.5 -78.5
q0 -81 -58 -127.5t-134 -46.5q-69 0 -111.5 49.5t-42.5 112.5q0 50 29.5 84t86.5 34q26 0 48.5 -16t22.5 -52q0 -10 -7.5 -22.5t-22.5 -12.5q-1 22 -12 34t-25 12q-35 0 -57 -26.5t-22 -60.5q0 -36 26 -62t77 -26q32 0 61.5 33.5t29.5 96.5zM147 322q-9 0 -42.5 35.5
t-33.5 51.5q0 28 29 28q18 0 59 -52q35 50 51 50q23 0 23 -22q0 -10 -23.5 -41t-39.5 -43q-14 -7 -23 -7z" />
    <glyph glyph-name="Ydieresis" unicode="&#x178;" horiz-adv-x="316" 
d="M-8 343q-23 9 -23 29q0 24 15.5 43.5t41.5 19.5q46 0 76.5 -40.5t30.5 -116.5q0 -39 -10.5 -125t-10.5 -123q0 -30 9 -31q34 0 65.5 61t41.5 132q0 4 26 158q0 2 0.5 7t1 6.5t2 5.5t3.5 5t6 2.5t9 1.5q28 0 31 -35q-6 -53 -15 -141t-15.5 -151.5t-8.5 -76.5
q-43 -285 -142 -285q-38 0 -66.5 26.5t-28.5 69.5q1 5 3.5 12t9 14.5t15.5 7.5q15 0 24 -9t11.5 -20t8 -20.5t14.5 -10.5q25 0 57 111t45 207q-64 -147 -115 -147q-66 0 -66 136q0 39 5.5 107t5.5 87q0 42 -18.5 62.5t-38.5 20.5zM174 468q0 -20 -10 -35t-32 -15
q-17 0 -29 12.5t-12 29.5t12 33.5t27 16.5q18 0 31 -11.5t13 -30.5zM290 466q0 -17 -12 -32t-32 -15q-17 0 -29 17t-12 37q0 16 11.5 28t26.5 12q23 0 35 -13t12 -34z" />
    <glyph glyph-name="Zcaron" unicode="&#x17d;" horiz-adv-x="318" 
d="M216 -94q20 0 47.5 49.5t54.5 146.5q13 -8 13 -29q0 -61 -49 -150t-94 -89q-14 0 -43.5 24.5t-35.5 27.5q-31 -37 -64 -37q-40 0 -58 16t-18 36q0 8 62 44q38 55 78.5 179t40.5 186q-11 1 -34.5 5t-31.5 4q-12 0 -12 -4q0 -3 11 -46.5t11 -48.5q0 -18 -17 -18
q-16 0 -41.5 54.5t-25.5 74.5q0 23 18 36t45 13q14 0 37.5 -5t31.5 -5q23 0 35 16q2 6 28 9t40 3q16 0 32.5 -14.5t16.5 -29.5q0 -17 -19 -24q-4 -47 -40.5 -142.5t-71.5 -170t-35 -71.5q1 -10 36.5 -25t51.5 -15zM144 423q-9 0 -42.5 35.5t-33.5 51.5q0 28 29 28
q18 0 59 -52q35 50 51 50q23 0 23 -22q0 -10 -23.5 -41t-39.5 -43q-14 -7 -23 -7z" />
    <glyph glyph-name="zcaron" unicode="&#x17e;" horiz-adv-x="337" 
d="M83 262q35 -13 84 -13q22 0 49.5 3t30.5 3q50 0 50 -28q0 -59 -54 -129.5t-99 -100.5q90 -16 145.5 -48.5t71.5 -93.5q121 -14 201 -58.5t80 -122.5q0 -29 -23 -60.5t-38 -31.5q-10 0 -10 7q0 5 0.5 13t0.5 12q0 85 -56.5 135t-148.5 69v-10q0 -85 -86.5 -156t-198.5 -71
q-99 0 -182 41t-83 96q0 34 62.5 66t155.5 51.5t190 24.5q-23 41 -66 64.5t-79 23.5q-16 0 -26 8.5t-10 19.5q0 27 46 27q15 0 64 81.5t49 106.5q-23 0 -70 7t-71 15q-6 -14 -20.5 -65t-27.5 -90t-20 -39q-4 0 -10.5 3.5t-7.5 7.5q5 14 27 96.5t23 94.5q-8 6 -14.5 21.5
t-6.5 30.5q0 43 24.5 97.5t55.5 54.5q25 0 25 -55q0 -39 -27 -108zM243 -210q0 18 -5 38q-125 -5 -239.5 -33t-114.5 -57q0 -54 66 -97t141 -43q67 0 109.5 59t42.5 133zM200 269q-9 0 -42.5 35.5t-33.5 51.5q0 28 29 28q18 0 59 -52q35 50 51 50q23 0 23 -22
q0 -10 -23.5 -41t-39.5 -43q-14 -7 -23 -7z" />
    <glyph glyph-name="longs" unicode="&#x17f;" horiz-adv-x="197" 
d="M171 132q0 -28 -20 -49t-49 -21q-28 0 -48.5 20.5t-20.5 49.5q0 30 20 50.5t49 20.5t49 -20t20 -51z" />
    <glyph glyph-name="florin" unicode="&#x192;" horiz-adv-x="271" 
d="M78 194l-1 12q0 85 27 138.5t86 53.5q20 0 43.5 -19.5t23.5 -43.5q0 -19 -12 -19q-3 0 -19 7t-26 7q-14 0 -18 -135l11 -1q33 -4 47 -16t21 -40h-81q0 -16 2 -68.5t2 -64.5q0 -92 -24 -143t-59 -51q-25 0 -43.5 24t-18.5 47q0 16 8 16q4 0 6 -6.5t11 -7.5q14 0 14 141
v113q-27 0 -36.5 6.5t-9.5 29.5q0 10 9.5 14t36.5 6z" />
    <glyph glyph-name="circumflex" unicode="&#x2c6;" horiz-adv-x="203" 
d="M107 410q29 0 55 -55.5t26 -76.5q0 -12 -9.5 -19t-21.5 -7q-4 0 -13 13t-21 34.5t-18 29.5q-6 -7 -19.5 -29.5t-24 -36t-16.5 -13.5q-29 0 -29 30q0 24 35 77t56 53z" />
    <glyph glyph-name="caron" unicode="&#x2c7;" horiz-adv-x="203" 
d="M97 291q-9 0 -42.5 35.5t-33.5 51.5q0 28 29 28q18 0 59 -52q35 50 51 50q23 0 23 -22q0 -10 -23.5 -41t-39.5 -43q-14 -7 -23 -7z" />
    <glyph glyph-name="breve" unicode="&#x2d8;" horiz-adv-x="261" 
d="M58 426q18 0 25.5 -9.5t8 -20.5t8.5 -20.5t26 -9.5q15 0 22 9.5t8 20.5t7.5 20.5t19.5 9.5t20 -9t7 -19q0 -6 -3.5 -18.5t-11.5 -29t-26 -28.5t-42 -12q-49 0 -72.5 23.5t-23.5 60.5q0 14 8 23t19 9z" />
    <glyph glyph-name="dotaccent" unicode="&#x2d9;" horiz-adv-x="166" 
d="M20 339q0 23 15 38.5t41 15.5q31 0 55 -23.5t24 -49.5q0 -25 -17 -40.5t-44 -15.5q-26 0 -47 22.5t-27 52.5z" />
    <glyph glyph-name="ring" unicode="&#x2da;" horiz-adv-x="214" 
d="M45 375q0 25 19.5 48t45.5 23q23 0 43.5 -18t20.5 -44q0 -28 -19 -49t-46 -21q-26 0 -45 18.5t-19 42.5zM94 382q0 -7 5 -14t11 -7q7 0 12.5 6t5.5 14q0 7 -5.5 12.5t-12.5 5.5t-11.5 -5t-4.5 -12z" />
    <glyph glyph-name="ogonek" unicode="&#x2db;" horiz-adv-x="238" 
d="M150 8q25 0 25 -15q0 -2 -0.5 -6.5t-0.5 -5.5q0 -3 -34.5 -38t-34.5 -48q0 -5 4 -11.5t12 -6.5q13 0 19 6.5t6.5 15t7 15t20.5 6.5q25 0 25 -26q0 -6 -8 -21t-28 -31t-45 -16q-40 0 -60 18t-20 47q0 39 42.5 78t69.5 39z" />
    <glyph glyph-name="tilde" unicode="&#x2dc;" horiz-adv-x="277" 
d="M187 317q-31 0 -53.5 18t-36.5 18q-9 0 -19.5 -14t-23.5 -14q-10 0 -20 11.5t-10 25.5q0 28 20.5 45t41.5 17q22 0 37.5 -8.5t22.5 -18.5t17.5 -18.5t22.5 -8.5q8 0 18.5 20.5t21.5 20.5t17.5 -12.5t6.5 -21.5q0 -27 -21 -43.5t-42 -16.5z" />
    <glyph glyph-name="hungarumlaut" unicode="&#x2dd;" horiz-adv-x="241" 
d="M92 414q11 0 21.5 -11.5t10.5 -24.5t-41 -50t-58 -37q-9 0 -15.5 7.5t-6.5 18.5q0 15 38.5 56t50.5 41zM202 414q12 0 22 -11.5t10 -24.5t-41 -50t-58 -37q-8 0 -14.5 7.5t-6.5 18.5q0 15 38 56t50 41z" />
    <glyph glyph-name="pi" unicode="&#x3c0;" horiz-adv-x="354" 
d="M28 258l-13 9l-7 27q0 27 51.5 34.5t167.5 7.5q74 0 98 -14.5t24 -42.5q0 -3 -2 -8.5t-2 -6.5l-11 -9l-56 12v-217q0 -97 -6 -130t-29 -33q-3 0 -8 2t-6 2l-9 11q0 28 3 84.5t3 90.5v193h-24q-31 0 -45 -1v-72q0 -5 0.5 -74.5t0.5 -72.5q0 -90 -10 -126.5t-34 -36.5
q-26 0 -41 4t-17 8l-2 4q0 28 3 85t3 90v187q-29 -6 -32 -7z" />
    <glyph glyph-name="endash" unicode="&#x2013;" horiz-adv-x="355" 
d="M83 23q-52 0 -52 29q0 13 3 22.5t14 20.5t37 17t67 6q85 0 125 -19.5t40 -45.5q0 -19 -18 -30h-216z" />
    <glyph glyph-name="emdash" unicode="&#x2014;" horiz-adv-x="516" 
d="M429 3h-333q-1 0 -3 -0.5t-3 -0.5q-12 0 -20 10t-8 24q0 24 22.5 43.5t65.5 19.5q25 0 80 0.5t99.5 0.5h46.5q52 0 76 -15t24 -36q0 -19 -14.5 -32.5t-32.5 -13.5z" />
    <glyph glyph-name="quoteleft" unicode="&#x2018;" horiz-adv-x="132" 
d="M82 332q15 0 26 -14.5t11 -36.5q0 -35 -16 -57t-40 -22q-20 0 -32.5 22.5t-12.5 56.5q0 52 23.5 108.5t48.5 56.5q13 0 13 -19q-32 -55 -36 -98q6 3 15 3z" />
    <glyph glyph-name="quoteright" unicode="&#x2019;" horiz-adv-x="138" 
d="M74 324q-9 -3 -16 -3q-19 0 -32 17.5t-13 39.5q0 36 16.5 49.5t46.5 13.5q27 0 40 -13.5t13 -50.5q0 -56 -27 -121t-55 -65q-16 0 -16 23q35 48 43 110z" />
    <glyph glyph-name="quotesinglbase" unicode="&#x201a;" horiz-adv-x="138" 
d="M70 -79l-17 -6q-16 0 -26.5 19.5t-10.5 37.5q0 24 17 39.5t40 15.5q48 0 48 -55q0 -42 -24.5 -112t-52.5 -70q-16 0 -16 21q39 63 42 110z" />
    <glyph glyph-name="quotedblleft" unicode="&#x201c;" horiz-adv-x="240" 
d="M194 278q14 0 25 -13t11 -32q0 -28 -16 -47t-39 -19q-21 0 -33 18.5t-12 47.5q0 70 22 137.5t46 67.5q13 0 13 -12q-29 -108 -33 -152q1 0 6 2t10 2zM78 278q15 0 26 -13t11 -32q0 -28 -16.5 -47t-39.5 -19q-19 0 -32 18.5t-13 47.5q0 50 24 127.5t47 77.5q13 0 13 -12
q-10 -10 -21 -63.5t-14 -88.5q3 0 8 2t7 2z" />
    <glyph glyph-name="quotedblright" unicode="&#x201d;" horiz-adv-x="250" 
d="M169 324q-14 0 -24 16.5t-10 33.5q0 25 15.5 43t38.5 18q26 0 38.5 -17.5t12.5 -43.5q0 -40 -28 -117.5t-51 -77.5q-15 0 -15 25q3 6 9.5 20.5t10 23t8 22.5t7 29t3.5 32q-8 -7 -15 -7zM51 327q-15 0 -26 13t-11 32q0 28 16.5 47t39.5 19q19 0 32 -18.5t13 -47.5
q0 -50 -24 -127.5t-47 -77.5q-13 0 -13 12q10 10 21 63.5t14 88.5q-3 0 -8 -2t-7 -2z" />
    <glyph glyph-name="quotedblbase" unicode="&#x201e;" horiz-adv-x="270" 
d="M74 -82l-15 -7q-16 0 -28.5 19t-12.5 37q0 25 17 40.5t41 15.5q48 0 48 -56q0 -43 -24.5 -116t-50.5 -73q-14 0 -14 21q36 75 39 119zM184 -89q-15 0 -28.5 19t-13.5 37q0 25 17 40.5t42 15.5q22 0 34.5 -15t12.5 -41q0 -46 -24 -117.5t-48 -71.5q-16 0 -16 21
q37 72 40 119q-6 -7 -16 -7z" />
    <glyph glyph-name="dagger" unicode="&#x2020;" horiz-adv-x="282" 
d="M94 -27v150q0 64 1 96h-8q-5 0 -20 -2t-23 -2q-35 0 -35 34q0 43 88 43q3 106 18 114q14 14 46 14q12 0 24 -13.5t12 -36.5q0 -9 -2 -38t-2 -40q46 -3 68 -13t22 -32q0 -34 -29 -34q-9 0 -12 1h-1q-20 5 -51 5v-46q0 -6 0.5 -20.5t0.5 -23.5v-13q0 -5 0.5 -20t0.5 -25
v-10q0 -75 2 -107l3 -41l-10 -15q-15 -12 -23 -12q-24 0 -45 22t-25 65z" />
    <glyph glyph-name="daggerdbl" unicode="&#x2021;" horiz-adv-x="348" 
d="M129 -73l-5 50q-21 -1 -60 -1l-18 -2q-16 0 -25 9t-9 23q0 35 112 35v59q-10 0 -40 -1t-39 -1q-33 0 -33 30q0 17 32.5 26.5t81.5 9.5q0 43 13.5 63.5t51.5 20.5q21 0 21 -38v-45q84 -4 101 -13q15 -7 15 -19q0 -20 -17 -26.5t-50 -6.5q-8 0 -24 0.5t-25 0.5v-60
q59 -1 87.5 -6.5t28.5 -24.5q0 -25 -27 -30q-11 -2 -89 -2v-81q-12 -10 -27 -10q-8 0 -18.5 2.5t-23.5 12t-14 25.5z" />
    <glyph glyph-name="bullet" unicode="&#x2022;" horiz-adv-x="226" 
d="M202 119q0 -35 -27 -60.5t-67 -25.5q-38 0 -65.5 25.5t-27.5 60.5q0 38 27 63t66 25q41 0 67.5 -25t26.5 -63z" />
    <glyph glyph-name="ellipsis" unicode="&#x2026;" horiz-adv-x="615" 
d="M81 47q33 0 47 -20t14 -42q0 -25 -15 -45.5t-52 -20.5q-17 0 -32 17t-15 36q0 36 15.5 55.5t37.5 19.5zM308 38q20 0 38 -13.5t18 -43.5q0 -33 -22 -49t-46 -16q-18 0 -32 11t-14 27q0 43 17.5 63.5t40.5 20.5zM535 37q19 -1 33.5 -16.5t14.5 -47.5q0 -21 -21.5 -41
t-41.5 -20q-18 0 -35 19.5t-17 47.5q0 20 23 39t44 19z" />
    <glyph glyph-name="perthousand" unicode="&#x2030;" horiz-adv-x="497" 
d="M141 -118q-32 0 -54 23t-22 45q0 36 26 107.5t73.5 180.5t61.5 143q11 15 32 15q28 0 28 -31q0 -9 -72.5 -221t-72.5 -262zM477 5q0 -41 -19.5 -85.5t-48.5 -44.5q-34 0 -51 42v-2q-15 35 -15 78q0 51 25 84.5t58 33.5q39 0 46 -43h-12q-7 0 -11 -1q11 -3 19.5 -20
t8.5 -42zM116 354q26 0 26 -76q0 -49 -16 -88t-45 -39q-32 0 -54 42v-1q-16 35 -16 83q0 62 22.5 87.5t52.5 25.5q17 0 27 -35q1 0 3 1zM294 34q8 8 22 8t14 -37q0 -42 -19.5 -86t-48.5 -44q-31 0 -50 42v-2q-15 31 -15 78q0 51 25 84.5t57 33.5q39 0 47 -43
q-30 0 -55.5 -21.5t-25.5 -59.5q0 -51 17 -51q15 0 23.5 30.5t8.5 67.5zM433 53l3 8q-46 -26 -46 -74q0 -51 18 -51q13 0 21 27t8 61q0 5 -1 10t-2 10.5t-1 8.5zM91 328q-29 0 -29 -59q0 -55 18 -55q21 0 23 108q-5 6 -12 6z" />
    <glyph glyph-name="guilsinglleft" unicode="&#x2039;" horiz-adv-x="266" 
d="M13 110q0 7 34.5 38.5t74 75.5t49.5 79q41 0 55 -13.5t14 -36.5q0 -21 -54 -74.5t-88 -65.5q148 -89 148 -120q0 -17 -16 -28.5t-44 -11.5q0 11 -43 40.5t-86.5 63t-43.5 53.5z" />
    <glyph glyph-name="guilsinglright" unicode="&#x203a;" horiz-adv-x="329" 
d="M116 -28q-23 0 -50 17.5t-27 33.5q0 12 36 28t81.5 33.5t59.5 28.5q-4 2 -29.5 16.5t-46 26.5t-44.5 28t-38 30t-14 24q0 18 26.5 36.5t51.5 18.5q27 -35 72 -73.5t75 -63.5t30 -34q0 -22 -45.5 -53.5t-91.5 -59t-46 -37.5z" />
    <glyph glyph-name="fraction" unicode="&#x2044;" horiz-adv-x="245" 
d="M90 -102q-18 0 -47 7t-29 19q0 71 43 179.5t88 183.5t56 75t24.5 -9t14.5 -21q-150 -295 -150 -434z" />
    <glyph glyph-name="franc" unicode="&#x20a3;" horiz-adv-x="266" 
d="M146 -33v-76q-2 -27 -25 -45t-59 -18q-16 0 -22 8t-6 29v93h-16q-8 0 -12.5 9t-5.5 18v9v10q0 11 6 16t28 8v276q0 27 25 42.5t50 19t52 3.5q47 0 61.5 -5t14.5 -24q0 -15 -22.5 -26.5t-68.5 -11.5v-128l69 1q7 0 13.5 -8.5t6.5 -20.5q0 -6 -7 -11t-18.5 -9t-22.5 -6.5
t-24 -5.5t-17 -4v-81q43 -4 43 -27q0 -25 -43 -35z" />
    <glyph glyph-name="peseta" unicode="&#x20a7;" horiz-adv-x="197" 
d="M171 132q0 -28 -20 -49t-49 -21q-28 0 -48.5 20.5t-20.5 49.5q0 30 20 50.5t49 20.5t49 -20t20 -51z" />
    <glyph glyph-name="Euro" unicode="&#x20ac;" horiz-adv-x="395" 
d="M337 267q0 -14 -10.5 -32t-20.5 -18q-13 49 -31 73.5t-35 24.5q-23 0 -41 -45.5t-24 -117.5q126 -4 126 -30q0 -21 -32 -21h-96v-44q127 -7 127 -23q0 -2 -1 -7t-5 -11t-10 -6h-108q11 -123 67 -123q36 0 65 46q31 -13 31 -36q0 -29 -29 -48t-70 -19q-58 0 -107 44
t-64 135h-53q0 12 11.5 25t36.5 20v47h-48q0 15 11.5 29.5t40.5 19.5q11 107 57 167t102 60q46 0 78 -29.5t32 -80.5z" />
    <glyph glyph-name="trademark" unicode="&#x2122;" horiz-adv-x="488" 
d="M443 392q7 0 9.5 -2t3.5 -9t4 -12q-15 -74 -15 -134q0 -3 2 -27q2 -7 2 -18q0 -19 -12 -19q-30 0 -30 43q0 6 2 26.5t2 45.5l-14 -20l-28 -52h-3q-27 0 -53 68l-6 -4q0 -4 -0.5 -10.5t-0.5 -9.5q0 -8 3 -24v-3q5 -25 5 -41q0 -9 -13 -18.5t-23 -9.5q-48 0 -48 79
q0 20 2 28v22q0 64 8 83t33 19q24 0 38.5 -10.5t19 -22.5t10.5 -35.5t11 -34.5q6 10 15 23t12 17l10 12q40 50 54 50zM143 245q0 -32 7 -57q-4 -9 -20 -14t-28 -5q-29 0 -29 52q0 32 3 73l4 42q-16 0 -17 -2h-1l-12 1q-16 15 -16 29q0 24 25 24h9q2 0 46.5 3t68.5 3
q37 0 37 -28q0 -23 -22 -23q-37 0 -46 -2q-9 -88 -9 -96z" />
    <glyph glyph-name="Omega" unicode="&#x2126;" horiz-adv-x="278" 
d="M155 -87q0 -22 -53 -22q-88 0 -88 31q0 19 30 24q-26 81 -26 199q0 94 40 150.5t109 56.5q46 0 72 -50.5t26 -133.5q0 -61 -12 -133.5t-31 -93.5q31 0 40 -4t9 -21q0 -16 -14 -20t-43 -4q-20 0 -33.5 11.5t-13.5 32.5q0 15 15 28q32 26 32 201q0 58 -13 90.5t-34 32.5
q-19 0 -33 -50.5t-14 -118.5q0 -99 14 -149q2 -7 11.5 -21t9.5 -36z" />
    <glyph glyph-name="estimated" unicode="&#x212e;" horiz-adv-x="197" 
d="M167 179q0 -28 -20 -49t-49 -21q-28 0 -48.5 20.5t-20.5 49.5q0 30 20 50.5t49 20.5t49 -20t20 -51z" />
    <glyph glyph-name="partialdiff" unicode="&#x2202;" horiz-adv-x="276" 
d="M143 299q-13 0 -44 -23.5t-39 -23.5q-42 0 -42 36q0 30 37 59.5t83 29.5q39 0 68 -45.5t42 -108.5t13 -130q0 -83 -26 -133.5t-73 -50.5q-149 0 -149 164q0 70 41 107t86 37q34 0 63 -26q-15 108 -60 108zM168 169q-20 0 -39 -30.5t-19 -72.5q0 -24 14.5 -58.5
t38.5 -34.5q21 0 33.5 32.5t12.5 90.5q0 37 -1 54q-23 19 -40 19z" />
    <glyph glyph-name="Delta" unicode="&#x2206;" horiz-adv-x="325" 
d="M124 40q0 19 13 32.5t32 13.5t32.5 -13.5t13.5 -32.5t-13.5 -32t-32.5 -13t-32 13t-13 32z" />
    <glyph glyph-name="product" unicode="&#x220f;" horiz-adv-x="270" 
d="M130 103q0 -5 1 -36t1 -34q0 -92 -18 -127.5t-67 -35.5q-3 0 -8.5 2t-6.5 2l-9 11q7 36 7 88q0 13 -0.5 42.5t-0.5 44.5v193q0 8 -0.5 15.5t-0.5 11.5q0 27 28.5 34t103.5 7q54 0 65.5 -5t11.5 -25q0 -18 0.5 -66.5t0.5 -80.5v-111q0 -97 -6 -130t-29 -33q-3 0 -9 2l-5 2
l-10 11q6 60 6 175v207h-11q-32 0 -44 -3v-161z" />
    <glyph glyph-name="summation" unicode="&#x2211;" horiz-adv-x="259" 
d="M12 293q0 16 43 25.5t91 9.5q62 0 78 -6t16 -25q0 -7 -1.5 -11t-6.5 -7t-10.5 -4t-16.5 -1.5t-22.5 -0.5t-30.5 -1t-38 -3q27 -44 55 -98t28 -63q0 -2 -0.5 -5t-0.5 -4q0 -10 -25 -55.5t-52 -87.5q18 -2 36.5 -3t29.5 -1t21.5 -1t16 -2t10 -3.5t6 -6.5t1.5 -10
q0 -19 -16.5 -26t-77.5 -7q-47 0 -90.5 9.5t-43.5 25.5q0 22 41 81.5t47 88.5q-10 17 -36.5 75.5t-35.5 69.5l-7 17q-4 4 -6 11.5t-3 13.5v5z" />
    <glyph glyph-name="minus" unicode="&#x2212;" horiz-adv-x="237" 
d="M95 151h33q44 0 65.5 -15.5t21.5 -38.5q0 -26 -14 -26l-103 10q-2 0 -24 -4t-34 -4q-19 0 -19 27q0 21 18.5 36t55.5 15z" />
    <glyph glyph-name="radical" unicode="&#x221a;" horiz-adv-x="353" 
d="M338 344q0 -21 -62 -24q-6 -32 -16.5 -94.5t-18.5 -109.5t-18 -97t-19 -79.5t-16 -33.5q-1 0 -7 -5t-16.5 -8.5t-26.5 -3.5q-21 0 -43 17.5t-25 30.5q-39 169 -47 226v-2q-1 3 -1 8q0 35 59 35q16 0 31.5 -14.5t15.5 -28.5q0 -11 6 -38t15 -71.5t14 -88.5q5 87 67 385
q7 25 56 25q52 0 52 -29z" />
    <glyph glyph-name="infinity" unicode="&#x221e;" horiz-adv-x="466" 
d="M339 194q109 0 109 -96q0 -39 -20.5 -57.5t-54.5 -18.5q-51 0 -123 52q-81 -62 -129 -62q-44 0 -75.5 32.5t-31.5 65.5q0 36 24 64.5t76 28.5q46 0 118 -53q65 44 107 44zM373 65q18 0 18 28q0 15 -8.5 22.5t-17.5 9t-24 1.5q-19 0 -51 -23q51 -38 83 -38zM128 146
q-26 0 -26 -31q0 -24 24 -24t64 30q-41 25 -62 25z" />
    <glyph glyph-name="integral" unicode="&#x222b;" horiz-adv-x="202" 
d="M205 363q-31 0 -43.5 -33.5t-12.5 -112.5v-126q0 -4 0.5 -33t0.5 -31q0 -83 -19 -117.5t-63 -34.5q-54 0 -54 30t18 30q4 0 10 -4t9 -4q18 0 18 125v125q0 4 -0.5 33t-0.5 32q0 83 19.5 117t67.5 34q15 0 24.5 -1.5t17.5 -8.5t8 -20z" />
    <glyph glyph-name="approxequal" unicode="&#x2248;" horiz-adv-x="360" 
d="M233 190q17 0 25 10.5t8.5 22.5t7.5 22.5t22 10.5q28 0 28 -21q0 -46 -19.5 -71t-75.5 -25q-54 0 -75 43q-12 25 -30 25q-23 0 -23 -27q0 -25 -10.5 -32.5t-30.5 -7.5q-16 0 -31 8.5t-15 23.5q0 40 25 64.5t69 24.5q70 0 94 -44q14 -27 31 -27zM233 56q17 0 25 10.5
t8.5 22.5t7.5 22.5t22 10.5q28 0 28 -20q0 -47 -19.5 -72t-75.5 -25q-54 0 -75 43q-13 25 -30 25q-23 0 -23 -28q0 -17 -6 -26t-14 -11t-21 -2q-16 0 -31 8t-15 23q0 40 25 65t69 25q32 0 54.5 -11t31.5 -24.5t19 -24.5t20 -11z" />
    <glyph glyph-name="notequal" unicode="&#x2260;" horiz-adv-x="348" 
d="M139 186h60q49 85 83 85q9 0 21.5 -8t13.5 -19l-47 -63q61 -9 61 -33q0 -12 -5.5 -26.5t-13.5 -14.5h-84l-37 -52h77q29 0 42 -16.5t13 -36.5q0 -24 -9 -24q-5 0 -14 3q-50 9 -127 9h-8l-39 -82l-14 -3q-47 0 -47 22q0 15 21 58l-43 -4q-6 0 -11 9t-5 21q0 18 14.5 31
t46.5 13h29l37 52h-111q-12 0 -19 15.5t-7 27.5q0 36 122 36z" />
    <glyph glyph-name="lessequal" unicode="&#x2264;" horiz-adv-x="352" 
d="M299 285q11 0 17.5 -10t6.5 -26q0 -18 -60.5 -51t-152.5 -64q18 -4 52 -11.5t53.5 -12t44 -8t41.5 -3.5q31 -7 31 -33q0 -20 -16 -41.5t-29 -21.5q-30 0 -133 40.5t-121 52.5q-6 10 -6 42q0 33 16 37q45 10 129 45.5t127 64.5zM148 -19h52q65 0 99.5 -24t34.5 -52
q0 -33 -23 -33q-2 0 -4.5 0.5t-6.5 1.5t-6 1q-45 11 -113 11h-27q-5 0 -39 -5.5t-50 -5.5q-14 0 -21.5 9.5t-7.5 22.5q0 14 7.5 35.5t18.5 24.5h-2q25 14 88 14z" />
    <glyph glyph-name="greaterequal" unicode="&#x2265;" horiz-adv-x="349" 
d="M82 -108q-60 0 -60 34q0 22 33 40.5t92 18.5h52q132 0 132 -55q0 -14 -6 -30q-39 0 -137.5 -3t-105.5 -5zM318 193q5 -11 5 -26q0 -40 -51.5 -75.5t-108 -53t-89.5 -17.5q-13 0 -29 21.5t-16 41.5q0 26 31 33q17 0 41.5 3.5t44 8t53.5 12t52 11.5q-92 31 -152.5 64
t-60.5 51q0 16 7 26t17 10q43 -29 127 -64.5t129 -45.5z" />
    <glyph glyph-name="lozenge" unicode="&#x25ca;" horiz-adv-x="330" 
d="M163 -91q-7 0 -24 2.5t-19 4.5q-17 13 -55 107t-38 110v10l3 6q19 52 50.5 125.5t46.5 85.5q9 7 44 7q13 0 17 -7q19 -13 68 -112t49 -114q0 -2 -0.5 -5t-0.5 -4q0 -14 -52 -104t-70 -104q-9 -8 -19 -8zM172 272q-5 -8 -20 -63t-27 -72q10 -18 24.5 -74.5t21.5 -65.5
q24 30 73 130q-7 14 -23 48t-29 61t-20 36z" />
    <glyph glyph-name="yinyang" unicode="&#x262f;" horiz-adv-x="197" 
d="M167 145q0 -28 -20 -49t-49 -21q-28 0 -48.5 20.5t-20.5 49.5q0 30 20 50.5t49 20.5t49 -20t20 -51z" />
    <glyph glyph-name="smileface" unicode="&#x263a;" horiz-adv-x="197" 
d="M167 179q0 -28 -20 -49t-49 -21q-28 0 -48.5 20.5t-20.5 49.5q0 30 20 50.5t49 20.5t49 -20t20 -51z" />
    <glyph glyph-name="a37" unicode="&#x272a;" horiz-adv-x="197" 
d="M167 179q0 -28 -20 -49t-49 -21q-28 0 -48.5 20.5t-20.5 49.5q0 30 20 50.5t49 20.5t49 -20t20 -51z" />
    <glyph glyph-name="a184" unicode="&#x27b3;" horiz-adv-x="197" 
d="M167 179q0 -28 -20 -49t-49 -21q-28 0 -48.5 20.5t-20.5 49.5q0 30 20 50.5t49 20.5t49 -20t20 -51z" />
    <glyph glyph-name="apple" unicode="&#xf8ff;" horiz-adv-x="2009" 
d="M1431 604q35 0 35 -49q0 -11 -5 -37.5t-5 -39.5q0 -16 20 -16l11 4q-2 -6 -5.5 -15.5t-17 -25.5t-30.5 -16q-33 0 -33 51q0 44 12 92h-34q0 -1 -4.5 -30.5t-9.5 -64t-6 -46.5h-5q-17 0 -25 1t-15.5 7t-7.5 19q0 5 7 39t7 47q0 28 -30 28q1 20 12.5 36t36.5 16
q32 0 38 -34q18 34 54 34zM1103 45q-11 6 -11 13q0 17 121 21q47 66 64 66q8 0 8 -6q0 -16 -29 -59q144 5 153 6q2 -4 2 -5q0 -17 -102 -17q-41 0 -64 1q-9 -12 -42 -53.5t-49.5 -68t-16.5 -44.5q0 -11 9 -11q15 0 32 21t30.5 46.5t37 46.5t50.5 21q21 0 21 -16
q0 -11 -4 -19q6 0 6 -6q0 -23 -53 -72q-2 -4 -2 -10q0 -12 10 -12q7 0 15.5 4t15 9t14.5 14t12.5 14.5t12 16t9.5 12.5l10 19q2 24 10.5 37.5t15 16t12.5 2.5q11 0 11 -11q0 -16 -32 -50q0 -12 7 -39t7 -36q0 -22 -38 -22q-15 0 -27 5t-12 12q0 4 5 9q7 -11 33 -11
q21 0 21 11q0 6 -5.5 25t-6.5 29q-15 -25 -42.5 -51.5t-51.5 -26.5q-18 0 -18 19q-29 -20 -39 -20q-26 0 -28 24q-21 -23 -43 -23q-18 0 -18 20q0 10 5 28q-5 -5 -16 -17t-16.5 -17.5t-15 -10.5t-17.5 -5q-39 0 -39 17q0 6 5 10q4 -12 32 -12q10 0 18 6t8 20q0 5 -1.5 20
l-2.5 25q-66 -79 -102 -79q-15 0 -15 14q0 8 2 11q-35 -26 -46 -26q-16 0 -16 15q0 24 50 91l-109 -104q-1 -1 -4 -1q-5 0 -5 8q0 16 46 85l-43 -48q-9 -12 -29.5 -28.5t-30.5 -16.5q-14 0 -16 14q-17 -19 -36 -19t-19 20q0 4 2 16q-34 -32 -49 -32q-28 0 -28 23v1
q-24 -24 -39 -24q-17 0 -17 15q0 21 54 97l-109 -100l-2 -4t-1 -3.5t-1 -2.5t-3 -1q-7 0 -7 8q0 22 61 104l-112 -98q-16 -30 -18 -30q-13 0 -13 9q1 10 42 75h-37q-22 0 -32 1q-45 -43 -99 -69v-28q0 -19 -3 -19q-9 0 -9 15q0 7 2 27q-48 -21 -98 -21q-78 0 -118.5 36
t-40.5 91q0 83 72 154t189 71q64 0 92 -34q44 13 86 13q92 0 92 -63q0 -40 -96 -208l118 102h1q2 1 4 1q14 0 15 -5q-1 -2 -13.5 -18t-30.5 -40t-29 -41l117 104h5q12 0 14 -5q-20 -23 -48.5 -65t-28.5 -53q0 -4 4 -4q11 0 27.5 20t31.5 43.5t37.5 43.5t43.5 20q11 0 13 -5
q26 52 54 91.5t42 39.5q19 0 19 -20q0 -12 -45 -77.5t-89 -115.5q-8 -22 -8 -33t9 -11q14 0 26 14t32 48.5t37 57.5q1 1 3 1q13 0 15 -4q-20 -25 -43.5 -61t-23.5 -48q0 -4 5 -4q7 0 27 20l105 107h4q14 0 15 -5q-1 -2 -17.5 -22.5t-36.5 -47.5t-28 -44l126 119q18 0 19 -5
q-20 -23 -48.5 -65t-28.5 -53q0 -4 4 -4q3 0 21.5 13.5t28.5 23.5q46 80 56 80q11 0 15 -4q-19 -23 -42.5 -60t-23.5 -49q0 -4 4 -4q14 0 48.5 32.5t50.5 53.5q0 49 28 50h5q10 0 10 -4q0 -11 -31 -49v-1q0 -9 2.5 -30t2.5 -34q17 19 33.5 44t36 58.5t32.5 52.5h-8
q-92 0 -92 -20zM851 494q0 -10 0.5 -15t5.5 -10t14 -5h5v6q0 23 6 54.5t12.5 52.5t8.5 20q16 15 66 15q57 0 57 -48q0 -14 -7.5 -28t-19.5 -20q31 -13 31 -43q0 -26 -21.5 -47t-54.5 -21q-25 0 -46.5 12t-30.5 33q-3 -15 -13.5 -28t-26.5 -13q-26 0 -35 36q-26 -37 -56 -37
q-17 0 -26.5 19t-9.5 43q0 134 117 134q11 0 21 -1.5t15 -2.5l5 -2l-1 -1h7l-2 -9q-3 -8 -6.5 -19t-7 -24.5t-5.5 -27t-2 -23.5zM200 -73q-49 0 -72.5 19.5t-23.5 49.5q0 37 31.5 67.5t78.5 30.5q58 0 79.5 -27t21.5 -75q0 -8 -1 -13q36 28 60 74q-77 5 -77 51
q0 18 22.5 35.5t56.5 29.5q-24 27 -74 27q-116 0 -184 -67.5t-68 -146.5q0 -50 34.5 -81t110.5 -31q47 0 100 23q7 49 8 63q-47 -29 -103 -29zM1167 338q0 -11 -6 -48t-6 -55q0 -19 9 -36q-6 -2 -19 -2q-45 0 -45 41q0 13 4.5 51.5t5.5 48.5h-37q0 -14 -3.5 -48.5t-6 -62
t-3.5 -28.5q-10 -2 -27 -2q-28 0 -28 9q0 2 3.5 26t7.5 55t4 51h-39l-18 -142q-53 0 -53 6l6 47q7 47 7 61q0 27 -29 27q0 20 11.5 37t37.5 17q28 0 37 -32q16 32 52 32q35 0 40 -39q17 39 55 39q40 0 40 -53zM1464 255q0 134 118 134l53 -5l-2 -1h2q-10 -21 -14 -33.5
t-7.5 -37t-3.5 -60.5q0 -29 5.5 -53.5t5.5 -30.5q0 -40 -40 -40q-39 0 -73 3.5t-35 3.5q-8 0 -15 -4l-3 6q0 12 14 28.5t34 16.5h58l-6 49q-22 -38 -54 -38q-17 0 -27 19.5t-10 42.5zM1129 465v5q0 134 118 134l42 -6l-4 -1h9l-3 -9q-3 -8 -6 -19t-6.5 -24.5t-6 -27
t-2.5 -23.5t0.5 -15t5.5 -10t15 -5h9q0 -18 -12 -36.5t-32 -18.5q-25 0 -35 36q-23 -37 -55 -37q-14 0 -24 14t-12 33q-21 -45 -47 -45q-43 0 -43 62q0 46 12 80q13 -11 29 -11q15 0 21 8q-7 -16 -7 -48q0 -39 22 -39q9 0 12 3zM343 -50q-5 5 -5 7q0 11 30 11q4 0 15 -0.5
t17 -0.5q32 30 60 67t40 58l12 22h9q6 0 6 -4q-41 -75 -110 -144q10 -1 29 -1q23 0 34 2q72 125 72 161q0 52 -80 52q-36 0 -79 -12q11 -20 11 -43q0 -30 -14 -63q40 1 72.5 17.5t32.5 38.5q1 1 3 1q6 0 6 -6q0 -24 -35.5 -42t-78.5 -18h-3q-25 -56 -73 -89q-1 -12 -4 -34
t-4 -32q37 20 78 54h-17q-19 0 -24 -2zM1664 45q-11 6 -11 13q0 17 129 21q45 66 64 66q7 0 7 -6q0 -18 -28 -58q122 2 145 5q1 -2 1 -5q0 -17 -118 -17h-39q-8 -12 -41 -52t-50 -67t-17 -46q0 -11 9 -11q17 0 33 18t26.5 38.5t12.5 22.5q5 -3 5 -10q0 -11 -26.5 -45.5
t-53.5 -34.5q-19 0 -19 20q0 11 5 29q-48 -48 -83 -48q-22 0 -22 18q0 5 1 8q-25 -23 -35 -23q-18 0 -18 15q0 35 36 88l-94 -101q-2 -1 -4 -1q-6 0 -6 8q0 42 65 129q16 0 19 -5q-1 -2 -15 -22.5t-30.5 -47t-23.5 -43.5l112 118q17 0 20 -5q-16 -19 -40 -62.5t-24 -55.5
q0 -4 4 -4q13 0 27 20.5t25.5 45t29.5 45t38 20.5q24 0 24 -20q0 -22 -32.5 -51.5t-61.5 -30.5q-5 -15 -5 -23q0 -11 9 -11q16 0 45 21.5t52 50.5q27 56 62 106h-17q-92 0 -92 -20zM1698 192q-32 0 -50 22.5t-18 56.5q0 121 86 121q76 0 76 -79q0 -54 -30 -75
q-2 -17 -21.5 -31.5t-42.5 -14.5zM674 819l-3 -9q-3 -8 -6 -19.5t-6.5 -25t-6 -27.5t-2.5 -24t0.5 -15t5.5 -9.5t15 -4.5h9q0 -18 -11.5 -37t-31.5 -19q-26 0 -35 38q-26 -39 -56 -39q-17 0 -26.5 19.5t-9.5 43.5q0 134 117 134q24 0 47 -6zM872 280q0 -10 0.5 -15t6 -10.5
t15.5 -5.5h9q0 -17 -12 -35.5t-32 -18.5q-26 0 -36 36q-25 -38 -55 -38q-16 0 -26.5 20t-10.5 42q0 134 118 134l42 -5l-2 -2q6 0 7 1l-3 -9q-3 -8 -6 -19t-6.5 -24.5t-6 -27t-2.5 -23.5zM1317 280q0 -10 0.5 -15t5.5 -10.5t14 -5.5h9q0 -17 -11.5 -35.5t-31.5 -18.5
q-28 0 -35 36q-25 -38 -55 -38q-17 0 -27 19.5t-10 42.5q0 134 118 134l41 -5l-3 -2q7 0 8 1q-5 -12 -14 -46.5t-9 -56.5zM754 779l-15 -143q-58 0 -58 7q16 79 16 122h-22q2 26 15 43.5t28 17.5q21 0 27 -25q4 14 19 23.5t31 9.5q23 0 35 -14.5t12 -37.5q0 -26 -14.5 -56
t-32.5 -39q10 -12 24 -23.5t19 -11.5q-4 -16 -17.5 -26.5t-23.5 -10.5q-17 0 -34 28.5t-17 51.5l2 9l16 -2q21 22 21 53q0 24 -21 24h-10zM1038 682q0 -18 -20 -33.5t-46 -15.5q-59 0 -59 77q0 48 23 86.5t62 38.5q29 0 44.5 -21t15.5 -49q0 -57 -22 -77q2 -3 2 -6zM557 441
q3 0 8 -1t8 -1q6 0 12.5 11.5t13 38.5t8.5 63h-4q-29 0 -39 -21q-9 0 -9 25q0 56 63 56h122q0 -15 -7.5 -37.5t-16.5 -22.5h-51q0 -8 0.5 -23.5t0.5 -17.5v-5q7 0 17 0.5t15 0.5t5 1q0 -12 -3 -27t-6 -15l-33 1q-8 -34 -25.5 -54.5t-37.5 -20.5q-26 0 -41 49zM471 796h-20
q-9 0 -15.5 -20.5t-6.5 -44.5q0 -51 31 -51q16 0 44 19q0 -29 -18 -53t-45 -24q-40 0 -58 25.5t-18 80.5q0 52 29 91t81 39q20 0 30.5 -10.5t10.5 -25.5l-15 -77h-10q-20 5 -20 51zM303 -28v9q0 101 -89 101q-42 0 -70 -26t-28 -57q0 -25 21 -41.5t64 -16.5q59 0 102 31z
M723 265q0 -31 -17.5 -55t-46.5 -24q-75 0 -75 90q0 52 29 91t81 39q20 0 30.5 -11t10.5 -26q0 -49 -30 -77h-15v51h-20q-3 0 -7 -6t-7.5 -19t-3.5 -29q0 -44 30 -44q31 0 41 20zM1142 765h-14q0 -16 19.5 -49.5t19.5 -50.5q0 -14 -18 -25.5t-42 -11.5q0 23 -18 58.5
t-18 64.5q0 36 14 60t43 24h72q0 -45 -12 -57.5t-46 -12.5zM849 870q23 30 51 30q18 0 32 -9q0 -12 -19 -87.5t-19 -116.5q0 -50 30 -63q-22 -2 -37 -2q-24 0 -33.5 10t-9.5 30q0 26 10.5 91.5t10.5 93.5q0 23 -16 23zM1362 338h-21q1 26 13.5 40t29.5 14q28 0 28 -45v-1
q22 48 44 48t22 -35q0 -12 -6 -27h-29q-19 0 -28 -32.5t-11.5 -65t-3.5 -32.5h-55q17 77 17 136zM1161 635q0 -32 -23 -53t-52 -21q-21 0 -38 12t-17 36q0 22 16 41t43 19q-10 -13 -10 -31q0 -28 36 -28q26 0 45 25zM392 124q0 22 -12 40q-31 -11 -51.5 -26t-20.5 -29
q0 -43 70 -47q14 29 14 62zM1295 -20q9 12 9 22q0 9 -10 9q-23 0 -57 -43t-34 -67q0 -13 14 -13q16 0 28 16.5t24.5 40.5t25.5 35zM1882 -4q-3 0 -3 1q1 4 5 8l-2 2q-9 0 -18 -11t-9 -21q0 -11 13 -11q18 0 32 14t14 29q0 22 -26 22q-25 0 -42 -18.5t-17 -38.5q0 -31 38 -31
q19 0 35 9.5t21 22.5q5 0 5 -4q0 -14 -21 -26.5t-42 -12.5q-49 0 -49 39q0 26 21.5 49t52.5 23q36 0 36 -30q0 -19 -16.5 -37.5t-39.5 -18.5q-25 0 -25 20q0 13 12.5 26t29.5 13q8 0 8 -5q0 -4 -4.5 -8.5t-8.5 -4.5zM737 8q-23 0 -53 -39t-30 -64q0 -13 14 -13t51 44
q10 31 26 65q0 7 -8 7zM1250 698q48 -5 48 -19t-18.5 -36.5t-34.5 -22.5h-41q3 2 24.5 39t21.5 39zM975 557q-8 4 -16 4q-13 0 -22 -27t-9 -64q0 -10 6.5 -15t14.5 -5q11 0 18.5 9.5t7.5 23.5q0 21 -16 29q16 18 16 45zM1735 338h-38q-10 0 -10 -60q0 -36 21 -36q27 0 27 96
zM1010 771h-35q-2 0 -4.5 -7t-4.5 -19.5t-2 -25.5q0 -40 21 -40q12 0 18.5 28t6.5 64zM763 479q0 -23 10 -23q14 0 21.5 16t12.5 45.5t6 34.5h-32q-4 0 -8 -9.5t-7 -26.5t-3 -37zM562 701q0 -22 11 -22q14 0 21.5 16t12 44.5t6.5 33.5h-32q-4 0 -8.5 -9t-7.5 -26.5t-3 -36.5
zM1569 338h-33q-7 0 -12.5 -21t-5.5 -52q0 -22 9 -22q14 0 21.5 15t12.5 43.5t8 36.5zM1183 479q0 -23 10 -23q13 0 20.5 16t13 46t6.5 34h-33q-4 0 -7.5 -9t-6.5 -26.5t-3 -37.5zM785 265q0 -22 10 -22q13 0 21 16t13 45t6 34h-32q-4 0 -8 -9.5t-7 -26.5t-3 -37zM1229 265
q0 -22 10 -22q14 0 21.5 16.5t12 44.5t6.5 34h-32q-4 0 -8 -9.5t-7 -26.5t-3 -37zM852 128q-15 0 -48 -51t-58 -108q38 48 72 99t34 60zM1687 1q0 7 -8 7q-13 0 -32.5 -24.5t-31.5 -52.5q22 6 47 31.5t25 38.5zM1421 -117q-6 6 -6 11q0 10 8 17t17 7q12 0 12 -13
q0 -8 -6 -16t-16 -8q-7 0 -9 2zM886 57l-24 -25h-13q0 7 9 19t14 12q14 0 14 -6zM1085 56l-24 -25l-12 1q0 8 8.5 19t14.5 11q13 0 13 -6zM1838 132q-4 0 -40 -52h6q34 47 34 52zM1269 132q-5 0 -39 -53h5q34 49 34 53zM1763 24l31 41h-5zM1341 384q0 -1 -1 -1z" />
    <glyph glyph-name="longs_t" unicode="&#xfb05;" horiz-adv-x="197" 
d="M162 132q0 -28 -20 -49t-49 -21q-28 0 -48.5 20.5t-20.5 49.5q0 30 20 50.5t49 20.5t49 -20t20 -51z" />
    <glyph glyph-name="s_t" unicode="&#xfb06;" horiz-adv-x="499" 
d="M44 252q0 31 8 54q3 39 46 83t101 44q29 0 47 -34t18 -83q0 -10 -2 -34h47l1 24q3 16 34 28t49 12q29 0 29 -19v-9l-4 -36h48q-7 -58 -26 -58q-7 1 -15 1l-13 -3l-30 -215q-1 -5 -1 -16q0 -85 39 -85q17 0 32 40t48 156q14 -8 14 -29q0 -64 -39 -151.5t-83 -87.5
q-58 0 -88.5 47.5t-30.5 122.5q0 12 3 38t7.5 55t8.5 56.5t7 46.5l3 18q-70 0 -79 6q-9 7 -12 39.5t-3.5 62t-2.5 29.5q-24 0 -37.5 -28t-13.5 -62q0 -49 34 -204t34 -178q0 -67 -37 -107t-83 -40q-38 0 -64 29.5t-26 84.5q0 11 7.5 23.5t14.5 12.5q27 -96 54 -96
q30 0 30 67q0 61 -35.5 195t-38.5 200z" />
    <glyph glyph-name="ampersand.salt01" horiz-adv-x="416" 
d="M355 178q19 0 39 -7t20 -24q0 -20 -12.5 -38t-30.5 -18q-23 0 -63 -3q0 -17 -15.5 -51.5t-33.5 -59.5q48 -40 68 -40q8 0 13 -12.5t5 -25.5q0 -17 -15.5 -33t-39.5 -16q-30 0 -95 55q-46 -39 -72 -39q-40 0 -69 30.5t-29 79.5q0 46 48 94q-32 69 -32 131q0 78 40 127
t94 49q48 0 84 -26.5t36 -72.5v-4q0 -24 -11 -37t-30 -13q-39 0 -41 7q-6 20 -13 28.5t-19 8.5q-17 0 -29.5 -21.5t-12.5 -66.5q0 -38 28 -88.5t57 -80.5q19 31 19 54q0 2 -3 20h-6q-41 0 -41 23q0 35 60.5 52.5t101.5 17.5zM101 16q-18 -24 -18 -44q0 -18 10.5 -29
t27.5 -11q15 0 35 12q-27 29 -55 72z" />
    <glyph glyph-name="A.001" 
d="M355 -46q15 0 23 -11t8 -24q0 -16 -12 -24t-25 -8q-17 0 -27.5 3t-22.5 17t-17 41q0 1 -0.5 9.5t-2 29.5t-2.5 41h-107q-23 -64 -38 -97q39 -10 104 -28.5t106.5 -29.5t54.5 -11q21 0 30 11t15 11q15 0 22.5 -15.5t7.5 -30.5q0 -23 -15.5 -38t-47.5 -15q-36 0 -80 11.5
t-72.5 23.5t-79.5 35.5t-67 30.5q-42 -76 -83 -76t-66.5 26.5t-25.5 61.5q0 52 88 52q19 0 31 -3q19 58 54 207.5t49 194.5q-21 0 -62 -55.5t-53 -111.5q-6 -17 -21 -17q-13 0 -20 9.5t-7 21.5q0 88 74 158.5t151 70.5q27 0 47 -11.5t33 -37t20.5 -54t12.5 -75t8 -85.5
t7 -100.5t8 -107.5zM245 328q-3 -18 -24.5 -107.5t-31.5 -135.5h85q-1 11 -3 50t-3.5 67t-4 61t-6 51t-7.5 18t-5 -4zM32 -109q1 3 4 9t4 10q-20 4 -30 4q-26 0 -26 -20q0 -15 10.5 -22.5t18.5 -7.5q3 0 19 27z" />
    <glyph glyph-name="Agrave.001" 
d="M355 -46q15 0 23 -11t8 -24q0 -16 -12 -24t-25 -8q-17 0 -27.5 3t-22.5 17t-17 41q0 1 -0.5 9.5t-2 29.5t-2.5 41h-107q-23 -64 -38 -97q39 -10 104 -28.5t106.5 -29.5t54.5 -11q21 0 30 11t15 11q15 0 22.5 -15.5t7.5 -30.5q0 -23 -15.5 -38t-47.5 -15q-36 0 -80 11.5
t-72.5 23.5t-79.5 35.5t-67 30.5q-42 -76 -83 -76t-66.5 26.5t-25.5 61.5q0 52 88 52q19 0 31 -3q19 58 54 207.5t49 194.5q-21 0 -62 -55.5t-53 -111.5q-6 -17 -21 -17q-13 0 -20 9.5t-7 21.5q0 88 74 158.5t151 70.5q27 0 47 -11.5t33 -37t20.5 -54t12.5 -75t8 -85.5
t7 -100.5t8 -107.5zM245 328q-3 -18 -24.5 -107.5t-31.5 -135.5h85q-1 11 -3 50t-3.5 67t-4 61t-6 51t-7.5 18t-5 -4zM32 -109q1 3 4 9t4 10q-20 4 -30 4q-26 0 -26 -20q0 -15 10.5 -22.5t18.5 -7.5q3 0 19 27zM183 622q21 0 54.5 -59.5t33.5 -80.5q0 -10 -6.5 -18t-14.5 -8
q-20 0 -66 50.5t-46 75.5q0 11 14 25.5t31 14.5z" />
    <glyph glyph-name="Aacute.001" 
d="M355 -46q15 0 23 -11t8 -24q0 -16 -12 -24t-25 -8q-17 0 -27.5 3t-22.5 17t-17 41q0 1 -0.5 9.5t-2 29.5t-2.5 41h-107q-23 -64 -38 -97q39 -10 104 -28.5t106.5 -29.5t54.5 -11q21 0 30 11t15 11q15 0 22.5 -15.5t7.5 -30.5q0 -23 -15.5 -38t-47.5 -15q-36 0 -80 11.5
t-72.5 23.5t-79.5 35.5t-67 30.5q-42 -76 -83 -76t-66.5 26.5t-25.5 61.5q0 52 88 52q19 0 31 -3q19 58 54 207.5t49 194.5q-21 0 -62 -55.5t-53 -111.5q-6 -17 -21 -17q-13 0 -20 9.5t-7 21.5q0 88 74 158.5t151 70.5q27 0 47 -11.5t33 -37t20.5 -54t12.5 -75t8 -85.5
t7 -100.5t8 -107.5zM245 328q-3 -18 -24.5 -107.5t-31.5 -135.5h85q-1 11 -3 50t-3.5 67t-4 61t-6 51t-7.5 18t-5 -4zM32 -109q1 3 4 9t4 10q-20 4 -30 4q-26 0 -26 -20q0 -15 10.5 -22.5t18.5 -7.5q3 0 19 27zM279 624q17 0 31 -14.5t14 -25.5q0 -25 -46 -75.5t-66 -50.5
q-8 0 -14.5 8t-6.5 18q0 21 33.5 80.5t54.5 59.5z" />
    <glyph glyph-name="Acircumflex.001" 
d="M355 -46q15 0 23 -11t8 -24q0 -16 -12 -24t-25 -8q-17 0 -27.5 3t-22.5 17t-17 41q0 1 -0.5 9.5t-2 29.5t-2.5 41h-107q-23 -64 -38 -97q39 -10 104 -28.5t106.5 -29.5t54.5 -11q21 0 30 11t15 11q15 0 22.5 -15.5t7.5 -30.5q0 -23 -15.5 -38t-47.5 -15q-36 0 -80 11.5
t-72.5 23.5t-79.5 35.5t-67 30.5q-42 -76 -83 -76t-66.5 26.5t-25.5 61.5q0 52 88 52q19 0 31 -3q19 58 54 207.5t49 194.5q-21 0 -62 -55.5t-53 -111.5q-6 -17 -21 -17q-13 0 -20 9.5t-7 21.5q0 88 74 158.5t151 70.5q27 0 47 -11.5t33 -37t20.5 -54t12.5 -75t8 -85.5
t7 -100.5t8 -107.5zM245 328q-3 -18 -24.5 -107.5t-31.5 -135.5h85q-1 11 -3 50t-3.5 67t-4 61t-6 51t-7.5 18t-5 -4zM32 -109q1 3 4 9t4 10q-20 4 -30 4q-26 0 -26 -20q0 -15 10.5 -22.5t18.5 -7.5q3 0 19 27zM231 603q29 0 55 -55.5t26 -76.5q0 -12 -9.5 -19t-21.5 -7
q-4 0 -13 13t-21 34.5t-18 29.5q-6 -7 -19.5 -29.5t-24 -36t-16.5 -13.5q-29 0 -29 30q0 24 35 77t56 53z" />
    <glyph glyph-name="Atilde.001" 
d="M355 -46q15 0 23 -11t8 -24q0 -16 -12 -24t-25 -8q-17 0 -27.5 3t-22.5 17t-17 41q0 1 -0.5 9.5t-2 29.5t-2.5 41h-107q-23 -64 -38 -97q39 -10 104 -28.5t106.5 -29.5t54.5 -11q21 0 30 11t15 11q15 0 22.5 -15.5t7.5 -30.5q0 -23 -15.5 -38t-47.5 -15q-36 0 -80 11.5
t-72.5 23.5t-79.5 35.5t-67 30.5q-42 -76 -83 -76t-66.5 26.5t-25.5 61.5q0 52 88 52q19 0 31 -3q19 58 54 207.5t49 194.5q-21 0 -62 -55.5t-53 -111.5q-6 -17 -21 -17q-13 0 -20 9.5t-7 21.5q0 88 74 158.5t151 70.5q27 0 47 -11.5t33 -37t20.5 -54t12.5 -75t8 -85.5
t7 -100.5t8 -107.5zM245 328q-3 -18 -24.5 -107.5t-31.5 -135.5h85q-1 11 -3 50t-3.5 67t-4 61t-6 51t-7.5 18t-5 -4zM32 -109q1 3 4 9t4 10q-20 4 -30 4q-26 0 -26 -20q0 -15 10.5 -22.5t18.5 -7.5q3 0 19 27zM256 450q-31 0 -53.5 18t-36.5 18q-9 0 -19.5 -14t-23.5 -14
q-10 0 -20 11.5t-10 25.5q0 28 20.5 45t41.5 17q22 0 37.5 -8.5t22.5 -18.5t17.5 -18.5t22.5 -8.5q8 0 18.5 20.5t21.5 20.5t17.5 -12.5t6.5 -21.5q0 -27 -21 -43.5t-42 -16.5z" />
    <glyph glyph-name="Adieresis.001" 
d="M355 -46q15 0 23 -11t8 -24q0 -16 -12 -24t-25 -8q-17 0 -27.5 3t-22.5 17t-17 41q0 1 -0.5 9.5t-2 29.5t-2.5 41h-107q-23 -64 -38 -97q39 -10 104 -28.5t106.5 -29.5t54.5 -11q21 0 30 11t15 11q15 0 22.5 -15.5t7.5 -30.5q0 -23 -15.5 -38t-47.5 -15q-36 0 -80 11.5
t-72.5 23.5t-79.5 35.5t-67 30.5q-42 -76 -83 -76t-66.5 26.5t-25.5 61.5q0 52 88 52q19 0 31 -3q19 58 54 207.5t49 194.5q-21 0 -62 -55.5t-53 -111.5q-6 -17 -21 -17q-13 0 -20 9.5t-7 21.5q0 88 74 158.5t151 70.5q27 0 47 -11.5t33 -37t20.5 -54t12.5 -75t8 -85.5
t7 -100.5t8 -107.5zM245 328q-3 -18 -24.5 -107.5t-31.5 -135.5h85q-1 11 -3 50t-3.5 67t-4 61t-6 51t-7.5 18t-5 -4zM32 -109q1 3 4 9t4 10q-20 4 -30 4q-26 0 -26 -20q0 -15 10.5 -22.5t18.5 -7.5q3 0 19 27zM207 494q0 -20 -10 -35t-32 -15q-17 0 -29 12.5t-12 29.5
t12 33.5t27 16.5q18 0 31 -11.5t13 -30.5zM323 492q0 -17 -12 -32t-32 -15q-17 0 -29 17t-12 37q0 16 11.5 28t26.5 12q23 0 35 -13t12 -34z" />
    <glyph glyph-name="Aring.001" 
d="M355 -46q15 0 23 -11t8 -24q0 -16 -12 -24t-25 -8q-17 0 -27.5 3t-22.5 17t-17 41q0 1 -0.5 9.5t-2 29.5t-2.5 41h-107q-23 -64 -38 -97q39 -10 104 -28.5t106.5 -29.5t54.5 -11q21 0 30 11t15 11q15 0 22.5 -15.5t7.5 -30.5q0 -23 -15.5 -38t-47.5 -15q-36 0 -80 11.5
t-72.5 23.5t-79.5 35.5t-67 30.5q-42 -76 -83 -76t-66.5 26.5t-25.5 61.5q0 52 88 52q19 0 31 -3q19 58 54 207.5t49 194.5q-21 0 -62 -55.5t-53 -111.5q-6 -17 -21 -17q-13 0 -20 9.5t-7 21.5q0 88 74 158.5t151 70.5q27 0 47 -11.5t33 -37t20.5 -54t12.5 -75t8 -85.5
t7 -100.5t8 -107.5zM245 328q-3 -18 -24.5 -107.5t-31.5 -135.5h85q-1 11 -3 50t-3.5 67t-4 61t-6 51t-7.5 18t-5 -4zM32 -109q1 3 4 9t4 10q-20 4 -30 4q-26 0 -26 -20q0 -15 10.5 -22.5t18.5 -7.5q3 0 19 27zM166 517q0 25 19.5 48t45.5 23q23 0 43.5 -18t20.5 -44
q0 -28 -19 -49t-46 -21q-26 0 -45 18.5t-19 42.5zM215 524q0 -7 5 -14t11 -7q7 0 12.5 6t5.5 14q0 7 -5.5 12.5t-12.5 5.5t-11.5 -5t-4.5 -12z" />
    <glyph glyph-name="Amacron.001" 
d="M355 -46q15 0 23 -11t8 -24q0 -16 -12 -24t-25 -8q-17 0 -27.5 3t-22.5 17t-17 41q0 1 -0.5 9.5t-2 29.5t-2.5 41h-107q-23 -64 -38 -97q39 -10 104 -28.5t106.5 -29.5t54.5 -11q21 0 30 11t15 11q15 0 22.5 -15.5t7.5 -30.5q0 -23 -15.5 -38t-47.5 -15q-36 0 -80 11.5
t-72.5 23.5t-79.5 35.5t-67 30.5q-42 -76 -83 -76t-66.5 26.5t-25.5 61.5q0 52 88 52q19 0 31 -3q19 58 54 207.5t49 194.5q-21 0 -62 -55.5t-53 -111.5q-6 -17 -21 -17q-13 0 -20 9.5t-7 21.5q0 88 74 158.5t151 70.5q27 0 47 -11.5t33 -37t20.5 -54t12.5 -75t8 -85.5
t7 -100.5t8 -107.5zM245 328q-3 -18 -24.5 -107.5t-31.5 -135.5h85q-1 11 -3 50t-3.5 67t-4 61t-6 51t-7.5 18t-5 -4zM32 -109q1 3 4 9t4 10q-20 4 -30 4q-26 0 -26 -20q0 -15 10.5 -22.5t18.5 -7.5q3 0 19 27zM283 518q18 -3 28 -13.5t10 -23.5q0 -10 -6 -17.5t-18 -6.5
l-101 5l-40 -4q-13 0 -20.5 7t-7.5 17q0 36 63 36h92z" />
    <glyph glyph-name="Abreve.001" 
d="M355 -46q15 0 23 -11t8 -24q0 -16 -12 -24t-25 -8q-17 0 -27.5 3t-22.5 17t-17 41q0 1 -0.5 9.5t-2 29.5t-2.5 41h-107q-23 -64 -38 -97q39 -10 104 -28.5t106.5 -29.5t54.5 -11q21 0 30 11t15 11q15 0 22.5 -15.5t7.5 -30.5q0 -23 -15.5 -38t-47.5 -15q-36 0 -80 11.5
t-72.5 23.5t-79.5 35.5t-67 30.5q-42 -76 -83 -76t-66.5 26.5t-25.5 61.5q0 52 88 52q19 0 31 -3q19 58 54 207.5t49 194.5q-21 0 -62 -55.5t-53 -111.5q-6 -17 -21 -17q-13 0 -20 9.5t-7 21.5q0 88 74 158.5t151 70.5q27 0 47 -11.5t33 -37t20.5 -54t12.5 -75t8 -85.5
t7 -100.5t8 -107.5zM245 328q-3 -18 -24.5 -107.5t-31.5 -135.5h85q-1 11 -3 50t-3.5 67t-4 61t-6 51t-7.5 18t-5 -4zM32 -109q1 3 4 9t4 10q-20 4 -30 4q-26 0 -26 -20q0 -15 10.5 -22.5t18.5 -7.5q3 0 19 27zM154 570q18 0 25.5 -9.5t8 -20.5t8.5 -20.5t26 -9.5
q15 0 22 9.5t8 20.5t7.5 20.5t19.5 9.5t20 -9t7 -19q0 -6 -3.5 -18.5t-11.5 -29t-26 -28.5t-42 -12q-49 0 -72.5 23.5t-23.5 60.5q0 14 8 23t19 9z" />
    <glyph glyph-name="Aogonek.001" 
d="M355 -46q15 0 23 -11t8 -24q0 -16 -12 -24t-25 -8q-17 0 -27.5 3t-22.5 17t-17 41q0 1 -0.5 9.5t-2 29.5t-2.5 41h-107q-23 -64 -38 -97q39 -10 104 -28.5t106.5 -29.5t54.5 -11q21 0 30 11t15 11q15 0 22.5 -15.5t7.5 -30.5q0 -23 -15.5 -38t-47.5 -15q-36 0 -80 11.5
t-72.5 23.5t-79.5 35.5t-67 30.5q-42 -76 -83 -76t-66.5 26.5t-25.5 61.5q0 52 88 52q19 0 31 -3q19 58 54 207.5t49 194.5q-21 0 -62 -55.5t-53 -111.5q-6 -17 -21 -17q-13 0 -20 9.5t-7 21.5q0 88 74 158.5t151 70.5q27 0 47 -11.5t33 -37t20.5 -54t12.5 -75t8 -85.5
t7 -100.5t8 -107.5zM245 328q-3 -18 -24.5 -107.5t-31.5 -135.5h85q-1 11 -3 50t-3.5 67t-4 61t-6 51t-7.5 18t-5 -4zM32 -109q1 3 4 9t4 10q-20 4 -30 4q-26 0 -26 -20q0 -15 10.5 -22.5t18.5 -7.5q3 0 19 27zM306 -150q25 0 25 -15q0 -2 -0.5 -6.5t-0.5 -5.5
q0 -3 -34.5 -38t-34.5 -48q0 -5 4 -11.5t12 -6.5q13 0 19 6.5t6.5 15t7 15t20.5 6.5q25 0 25 -26q0 -6 -8 -21t-28 -31t-45 -16q-40 0 -60 18t-20 47q0 39 42.5 78t69.5 39z" />
    <glyph glyph-name="A.salt01" 
d="M-70 -40q0 13 8 31.5t24 41.5t49 42.5t75 27.5q6 14 42 108.5t56 138.5v1q0 2 -5 2q-21 0 -50 -21.5t-55 -75.5q-10 -23 -32 -23q-21 0 -33 15.5t-12 32.5q0 43 75.5 92t146.5 49q91 0 102 -74q3 -21 8 -100t13.5 -152t24.5 -151t49 -125.5t80 -47.5q23 0 83.5 17
t106.5 17q45 0 66.5 -14.5t21.5 -36.5q0 -18 -13 -32t-27 -14q-7 0 -14.5 9.5t-26.5 19.5t-54 10q-26 0 -79.5 -11.5t-81.5 -11.5q-78 0 -116.5 53t-55.5 143l-18 135h-116q-56 -224 -125 -224q-48 0 -82.5 41.5t-34.5 86.5zM248 328q-5 0 -10.5 -11t-12 -35t-11.5 -46.5
t-14 -62t-15 -65.5h97l-27 214q-5 6 -7 6zM4 -43q19 0 60 93q-78 -15 -78 -80q0 -5 7 -9t11 -4z" />
    <glyph glyph-name="Adieresis.salt01" 
d="M-70 -40q0 13 8 31.5t24 41.5t49 42.5t75 27.5q6 14 42 108.5t56 138.5v1q0 2 -5 2q-21 0 -50 -21.5t-55 -75.5q-10 -23 -32 -23q-21 0 -33 15.5t-12 32.5q0 43 75.5 92t146.5 49q91 0 102 -74q3 -21 8 -100t13.5 -152t24.5 -151t49 -125.5t80 -47.5q23 0 83.5 17
t106.5 17q45 0 66.5 -14.5t21.5 -36.5q0 -18 -13 -32t-27 -14q-7 0 -14.5 9.5t-26.5 19.5t-54 10q-26 0 -79.5 -11.5t-81.5 -11.5q-78 0 -116.5 53t-55.5 143l-18 135h-116q-56 -224 -125 -224q-48 0 -82.5 41.5t-34.5 86.5zM248 328q-5 0 -10.5 -11t-12 -35t-11.5 -46.5
t-14 -62t-15 -65.5h97l-27 214q-5 6 -7 6zM4 -43q19 0 60 93q-78 -15 -78 -80q0 -5 7 -9t11 -4zM189 494q0 -20 -10 -35t-32 -15q-17 0 -29 12.5t-12 29.5t12 33.5t27 16.5q18 0 31 -11.5t13 -30.5zM305 492q0 -17 -12 -32t-32 -15q-17 0 -29 17t-12 37q0 16 11.5 28
t26.5 12q23 0 35 -13t12 -34z" />
    <glyph glyph-name="Agrave.salt01" 
d="M-70 -40q0 13 8 31.5t24 41.5t49 42.5t75 27.5q6 14 42 108.5t56 138.5v1q0 2 -5 2q-21 0 -50 -21.5t-55 -75.5q-10 -23 -32 -23q-21 0 -33 15.5t-12 32.5q0 43 75.5 92t146.5 49q91 0 102 -74q3 -21 8 -100t13.5 -152t24.5 -151t49 -125.5t80 -47.5q23 0 83.5 17
t106.5 17q45 0 66.5 -14.5t21.5 -36.5q0 -18 -13 -32t-27 -14q-7 0 -14.5 9.5t-26.5 19.5t-54 10q-26 0 -79.5 -11.5t-81.5 -11.5q-78 0 -116.5 53t-55.5 143l-18 135h-116q-56 -224 -125 -224q-48 0 -82.5 41.5t-34.5 86.5zM248 328q-5 0 -10.5 -11t-12 -35t-11.5 -46.5
t-14 -62t-15 -65.5h97l-27 214q-5 6 -7 6zM4 -43q19 0 60 93q-78 -15 -78 -80q0 -5 7 -9t11 -4zM158 627q21 0 54.5 -59.5t33.5 -80.5q0 -10 -6.5 -18t-14.5 -8q-20 0 -66 50.5t-46 75.5q0 11 14 25.5t31 14.5z" />
    <glyph glyph-name="Aacute.salt01" 
d="M-70 -40q0 13 8 31.5t24 41.5t49 42.5t75 27.5q6 14 42 108.5t56 138.5v1q0 2 -5 2q-21 0 -50 -21.5t-55 -75.5q-10 -23 -32 -23q-21 0 -33 15.5t-12 32.5q0 43 75.5 92t146.5 49q91 0 102 -74q3 -21 8 -100t13.5 -152t24.5 -151t49 -125.5t80 -47.5q23 0 83.5 17
t106.5 17q45 0 66.5 -14.5t21.5 -36.5q0 -18 -13 -32t-27 -14q-7 0 -14.5 9.5t-26.5 19.5t-54 10q-26 0 -79.5 -11.5t-81.5 -11.5q-78 0 -116.5 53t-55.5 143l-18 135h-116q-56 -224 -125 -224q-48 0 -82.5 41.5t-34.5 86.5zM248 328q-5 0 -10.5 -11t-12 -35t-11.5 -46.5
t-14 -62t-15 -65.5h97l-27 214q-5 6 -7 6zM4 -43q19 0 60 93q-78 -15 -78 -80q0 -5 7 -9t11 -4zM279 624q17 0 31 -14.5t14 -25.5q0 -25 -46 -75.5t-66 -50.5q-8 0 -14.5 8t-6.5 18q0 21 33.5 80.5t54.5 59.5z" />
    <glyph glyph-name="Acircumflex.salt01" 
d="M-70 -40q0 13 8 31.5t24 41.5t49 42.5t75 27.5q6 14 42 108.5t56 138.5v1q0 2 -5 2q-21 0 -50 -21.5t-55 -75.5q-10 -23 -32 -23q-21 0 -33 15.5t-12 32.5q0 43 75.5 92t146.5 49q91 0 102 -74q3 -21 8 -100t13.5 -152t24.5 -151t49 -125.5t80 -47.5q23 0 83.5 17
t106.5 17q45 0 66.5 -14.5t21.5 -36.5q0 -18 -13 -32t-27 -14q-7 0 -14.5 9.5t-26.5 19.5t-54 10q-26 0 -79.5 -11.5t-81.5 -11.5q-78 0 -116.5 53t-55.5 143l-18 135h-116q-56 -224 -125 -224q-48 0 -82.5 41.5t-34.5 86.5zM248 328q-5 0 -10.5 -11t-12 -35t-11.5 -46.5
t-14 -62t-15 -65.5h97l-27 214q-5 6 -7 6zM4 -43q19 0 60 93q-78 -15 -78 -80q0 -5 7 -9t11 -4zM231 603q29 0 55 -55.5t26 -76.5q0 -12 -9.5 -19t-21.5 -7q-4 0 -13 13t-21 34.5t-18 29.5q-6 -7 -19.5 -29.5t-24 -36t-16.5 -13.5q-29 0 -29 30q0 24 35 77t56 53z" />
    <glyph glyph-name="Atilde.salt01" 
d="M-70 -40q0 13 8 31.5t24 41.5t49 42.5t75 27.5q6 14 42 108.5t56 138.5v1q0 2 -5 2q-21 0 -50 -21.5t-55 -75.5q-10 -23 -32 -23q-21 0 -33 15.5t-12 32.5q0 43 75.5 92t146.5 49q91 0 102 -74q3 -21 8 -100t13.5 -152t24.5 -151t49 -125.5t80 -47.5q23 0 83.5 17
t106.5 17q45 0 66.5 -14.5t21.5 -36.5q0 -18 -13 -32t-27 -14q-7 0 -14.5 9.5t-26.5 19.5t-54 10q-26 0 -79.5 -11.5t-81.5 -11.5q-78 0 -116.5 53t-55.5 143l-18 135h-116q-56 -224 -125 -224q-48 0 -82.5 41.5t-34.5 86.5zM248 328q-5 0 -10.5 -11t-12 -35t-11.5 -46.5
t-14 -62t-15 -65.5h97l-27 214q-5 6 -7 6zM4 -43q19 0 60 93q-78 -15 -78 -80q0 -5 7 -9t11 -4zM279 449q-31 0 -53.5 18t-36.5 18q-9 0 -19.5 -14t-23.5 -14q-10 0 -20 11.5t-10 25.5q0 28 20.5 45t41.5 17q22 0 37.5 -8.5t22.5 -18.5t17.5 -18.5t22.5 -8.5q8 0 18.5 20.5
t21.5 20.5t17.5 -12.5t6.5 -21.5q0 -27 -21 -43.5t-42 -16.5z" />
    <glyph glyph-name="Aring.salt01" 
d="M-70 -40q0 13 8 31.5t24 41.5t49 42.5t75 27.5q6 14 42 108.5t56 138.5v1q0 2 -5 2q-21 0 -50 -21.5t-55 -75.5q-10 -23 -32 -23q-21 0 -33 15.5t-12 32.5q0 43 75.5 92t146.5 49q91 0 102 -74q3 -21 8 -100t13.5 -152t24.5 -151t49 -125.5t80 -47.5q23 0 83.5 17
t106.5 17q45 0 66.5 -14.5t21.5 -36.5q0 -18 -13 -32t-27 -14q-7 0 -14.5 9.5t-26.5 19.5t-54 10q-26 0 -79.5 -11.5t-81.5 -11.5q-78 0 -116.5 53t-55.5 143l-18 135h-116q-56 -224 -125 -224q-48 0 -82.5 41.5t-34.5 86.5zM248 328q-5 0 -10.5 -11t-12 -35t-11.5 -46.5
t-14 -62t-15 -65.5h97l-27 214q-5 6 -7 6zM4 -43q19 0 60 93q-78 -15 -78 -80q0 -5 7 -9t11 -4zM166 517q0 25 19.5 48t45.5 23q23 0 43.5 -18t20.5 -44q0 -28 -19 -49t-46 -21q-26 0 -45 18.5t-19 42.5zM215 524q0 -7 5 -14t11 -7q7 0 12.5 6t5.5 14q0 7 -5.5 12.5
t-12.5 5.5t-11.5 -5t-4.5 -12z" />
    <glyph glyph-name="A.begin" 
d="M59 276q-38 25 -38 54q0 40 47.5 60t155.5 20q81 0 81 -61q0 -14 -0.5 -69t-0.5 -70q0 -40 9 -94.5t19.5 -92t16.5 -37.5l7 2q6 2 11 2q22 0 34 -17.5t12 -37.5q0 -25 -17.5 -37t-38.5 -12q-95 34 -115 170h-100q-26 -79 -43 -119q21 -12 73.5 -44.5t80.5 -47.5
q63 29 93 29q19 0 39.5 -12t20.5 -34q0 -21 -19 -40.5t-49 -19.5q-36 0 -76 18q-137 -92 -197 -92q-6 0 -9 1q-6 2 -15.5 5t-25 15t-15.5 27q0 8 10 8q3 0 8.5 -0.5t7.5 -0.5q10 0 24 3.5t34 12t33 14.5t41 20t39 19q-22 14 -60 42.5t-55 39.5q-35 -73 -68 -73
q-39 0 -63.5 27.5t-24.5 60.5q0 54 72 54q31 0 49 -7q18 48 53 193t53 188q-1 1 -4 2h-22t-22.5 -1t-17 -4.5t-16 -10.5t-8.5 -20.5t-4 -32.5zM245 348q-6 0 -13.5 -13.5t-18 -43.5t-18.5 -56.5t-22.5 -75t-22.5 -75.5h89q-3 33 -3 70q0 66 14 189q0 5 -5 5zM22 -91
q4 5 10 17q-19 7 -35 7q-23 0 -23 -20q0 -14 10 -21.5t18 -7.5q2 0 20 25zM356 -166q-12 0 -40 -15q11 -3 33 -7q3 0 7.5 3.5t5.5 10.5q0 8 -6 8z" />
    <glyph glyph-name="Adieresis.begin" 
d="M59 276q-38 25 -38 54q0 40 47.5 60t155.5 20q81 0 81 -61q0 -14 -0.5 -69t-0.5 -70q0 -40 9 -94.5t19.5 -92t16.5 -37.5l7 2q6 2 11 2q22 0 34 -17.5t12 -37.5q0 -25 -17.5 -37t-38.5 -12q-95 34 -115 170h-100q-26 -79 -43 -119q21 -12 73.5 -44.5t80.5 -47.5
q63 29 93 29q19 0 39.5 -12t20.5 -34q0 -21 -19 -40.5t-49 -19.5q-36 0 -76 18q-137 -92 -197 -92q-6 0 -9 1q-6 2 -15.5 5t-25 15t-15.5 27q0 8 10 8q3 0 8.5 -0.5t7.5 -0.5q10 0 24 3.5t34 12t33 14.5t41 20t39 19q-22 14 -60 42.5t-55 39.5q-35 -73 -68 -73
q-39 0 -63.5 27.5t-24.5 60.5q0 54 72 54q31 0 49 -7q18 48 53 193t53 188q-1 1 -4 2h-22t-22.5 -1t-17 -4.5t-16 -10.5t-8.5 -20.5t-4 -32.5zM245 348q-6 0 -13.5 -13.5t-18 -43.5t-18.5 -56.5t-22.5 -75t-22.5 -75.5h89q-3 33 -3 70q0 66 14 189q0 5 -5 5zM22 -91
q4 5 10 17q-19 7 -35 7q-23 0 -23 -20q0 -14 10 -21.5t18 -7.5q2 0 20 25zM356 -166q-12 0 -40 -15q11 -3 33 -7q3 0 7.5 3.5t5.5 10.5q0 8 -6 8zM189 494q0 -20 -10 -35t-32 -15q-17 0 -29 12.5t-12 29.5t12 33.5t27 16.5q18 0 31 -11.5t13 -30.5zM305 492q0 -17 -12 -32
t-32 -15q-17 0 -29 17t-12 37q0 16 11.5 28t26.5 12q23 0 35 -13t12 -34z" />
    </font>
</defs>
</svg>
